Model Upgrade-Big.ufo
<glyph name="exclam" format="2">
	<advance width="287"/>
	<unicode hex="0021"/>
	<outline>
		<contour>
			<point x="65" y="109" type="line"/>
			<point x="68" y="109" type="line"/>
			<point x="386" y="887" type="line"/>
			<point x="365" y="887" type="line"/>
		</contour>
		<contour>
			<point x="8" y="19" type="curve" smooth="yes"/>
			<point x="7" y="17"/>
			<point x="7" y="15"/>
			<point x="7" y="13" type="curve" smooth="yes"/>
			<point x="7" y="4"/>
			<point x="12" y="-3"/>
			<point x="23" y="-3" type="curve" smooth="yes"/>
			<point x="35" y="-3"/>
			<point x="48" y="6"/>
			<point x="53" y="19" type="curve" smooth="yes"/>
			<point x="54" y="21"/>
			<point x="54" y="24"/>
			<point x="54" y="26" type="curve" smooth="yes"/>
			<point x="54" y="35"/>
			<point x="48" y="42"/>
			<point x="39" y="42" type="curve" smooth="yes"/>
			<point x="24" y="42"/>
			<point x="12" y="32"/>
		</contour>
	</outline>
</glyph>
<glyph name="quotedbl" format="2">
	<advance width="270"/>
	<unicode hex="0022"/>
	<outline>
		<contour>
			<point x="228" y="860" type="curve" smooth="yes"/>
			<point x="152" y="683" type="line"/>
			<point x="155" y="683" type="line"/>
			<point x="254" y="852" type="line" smooth="yes"/>
			<point x="257" y="858"/>
			<point x="259" y="863"/>
			<point x="259" y="867" type="curve" smooth="yes"/>
			<point x="259" y="874"/>
			<point x="255" y="877"/>
			<point x="249" y="877" type="curve" smooth="yes"/>
			<point x="242" y="877"/>
			<point x="234" y="872"/>
		</contour>
		<contour>
			<point x="302" y="860" type="curve" smooth="yes"/>
			<point x="226" y="683" type="line"/>
			<point x="229" y="683" type="line"/>
			<point x="328" y="852" type="line" smooth="yes"/>
			<point x="331" y="858"/>
			<point x="333" y="863"/>
			<point x="333" y="867" type="curve" smooth="yes"/>
			<point x="333" y="874"/>
			<point x="329" y="877"/>
			<point x="323" y="877" type="curve" smooth="yes"/>
			<point x="316" y="877"/>
			<point x="308" y="872"/>
		</contour>
	</outline>
</glyph>
<glyph name="numbersign" format="2">
	<advance width="698"/>
	<unicode hex="0023"/>
	<outline>
		<contour>
			<point x="160" y="446" type="line"/>
			<point x="310" y="446" type="line" smooth="yes"/>
			<point x="319" y="446"/>
			<point x="321" y="442"/>
			<point x="318" y="434" type="curve" smooth="yes"/>
			<point x="237" y="239" type="line" smooth="yes"/>
			<point x="234" y="231"/>
			<point x="228" y="227"/>
			<point x="219" y="227" type="curve" smooth="yes"/>
			<point x="74" y="227" type="line"/>
			<point x="74" y="223" type="line"/>
			<point x="217" y="223" type="line" smooth="yes"/>
			<point x="226" y="223"/>
			<point x="228" y="219"/>
			<point x="225" y="211" type="curve" smooth="yes"/>
			<point x="179" y="100" type="line"/>
			<point x="184" y="100" type="line"/>
			<point x="230" y="211" type="line" smooth="yes"/>
			<point x="233" y="219"/>
			<point x="239" y="223"/>
			<point x="248" y="223" type="curve" smooth="yes"/>
			<point x="396" y="223" type="line" smooth="yes"/>
			<point x="405" y="223"/>
			<point x="407" y="219"/>
			<point x="404" y="211" type="curve" smooth="yes"/>
			<point x="358" y="100" type="line"/>
			<point x="363" y="100" type="line"/>
			<point x="409" y="211" type="line" smooth="yes"/>
			<point x="412" y="219"/>
			<point x="418" y="223"/>
			<point x="427" y="223" type="curve" smooth="yes"/>
			<point x="572" y="223" type="line"/>
			<point x="572" y="227" type="line"/>
			<point x="429" y="227" type="line" smooth="yes"/>
			<point x="420" y="227"/>
			<point x="418" y="231"/>
			<point x="421" y="239" type="curve" smooth="yes"/>
			<point x="502" y="434" type="line" smooth="yes"/>
			<point x="505" y="442"/>
			<point x="511" y="446"/>
			<point x="520" y="446" type="curve" smooth="yes"/>
			<point x="658" y="446" type="line"/>
			<point x="658" y="450" type="line"/>
			<point x="522" y="450" type="line" smooth="yes"/>
			<point x="513" y="450"/>
			<point x="511" y="454"/>
			<point x="514" y="462" type="curve" smooth="yes"/>
			<point x="560" y="572" type="line"/>
			<point x="555" y="572" type="line"/>
			<point x="508" y="462" type="line" smooth="yes"/>
			<point x="504" y="454"/>
			<point x="499" y="450"/>
			<point x="490" y="450" type="curve" smooth="yes"/>
			<point x="343" y="450" type="line" smooth="yes"/>
			<point x="334" y="450"/>
			<point x="332" y="454"/>
			<point x="335" y="462" type="curve" smooth="yes"/>
			<point x="381" y="572" type="line"/>
			<point x="376" y="572" type="line"/>
			<point x="330" y="462" type="line" smooth="yes"/>
			<point x="327" y="454"/>
			<point x="321" y="450"/>
			<point x="312" y="450" type="curve" smooth="yes"/>
			<point x="160" y="450" type="line"/>
		</contour>
		<contour>
			<point x="497" y="434" type="curve" smooth="yes"/>
			<point x="416" y="239" type="line" smooth="yes"/>
			<point x="413" y="231"/>
			<point x="407" y="227"/>
			<point x="398" y="227" type="curve" smooth="yes"/>
			<point x="250" y="227" type="line" smooth="yes"/>
			<point x="241" y="227"/>
			<point x="239" y="231"/>
			<point x="242" y="239" type="curve" smooth="yes"/>
			<point x="323" y="434" type="line" smooth="yes"/>
			<point x="326" y="442"/>
			<point x="332" y="446"/>
			<point x="341" y="446" type="curve" smooth="yes"/>
			<point x="489" y="446" type="line" smooth="yes"/>
			<point x="498" y="446"/>
			<point x="500" y="442"/>
		</contour>
	</outline>
</glyph>
<glyph name="percent" format="2">
	<advance width="537"/>
	<unicode hex="0025"/>
	<outline>
		<contour>
			<point x="502" y="563" type="line"/>
			<point x="483" y="563" type="line"/>
			<point x="23" y="45" type="line"/>
			<point x="26" y="43" type="line"/>
		</contour>
		<contour>
			<point x="258" y="136" type="curve" smooth="yes"/>
			<point x="258" y="103"/>
			<point x="278" y="79"/>
			<point x="310" y="79" type="curve" smooth="yes"/>
			<point x="359" y="79"/>
			<point x="402" y="133"/>
			<point x="402" y="180" type="curve" smooth="yes"/>
			<point x="402" y="213"/>
			<point x="381" y="237"/>
			<point x="349" y="237" type="curve" smooth="yes"/>
			<point x="300" y="237"/>
			<point x="258" y="183"/>
		</contour>
		<contour>
			<point x="348" y="233" type="curve" smooth="yes"/>
			<point x="369" y="233"/>
			<point x="381" y="212"/>
			<point x="381" y="183" type="curve" smooth="yes"/>
			<point x="381" y="145"/>
			<point x="354" y="83"/>
			<point x="311" y="83" type="curve" smooth="yes"/>
			<point x="291" y="83"/>
			<point x="278" y="102"/>
			<point x="278" y="130" type="curve" smooth="yes"/>
			<point x="278" y="167"/>
			<point x="306" y="233"/>
		</contour>
		<contour>
			<point x="117" y="435" type="curve" smooth="yes"/>
			<point x="117" y="402"/>
			<point x="137" y="378"/>
			<point x="169" y="378" type="curve" smooth="yes"/>
			<point x="219" y="378"/>
			<point x="260" y="431"/>
			<point x="260" y="478" type="curve" smooth="yes"/>
			<point x="260" y="512"/>
			<point x="239" y="536"/>
			<point x="208" y="536" type="curve" smooth="yes"/>
			<point x="159" y="536"/>
			<point x="117" y="482"/>
		</contour>
		<contour>
			<point x="206" y="532" type="curve" smooth="yes"/>
			<point x="227" y="532"/>
			<point x="240" y="511"/>
			<point x="240" y="481" type="curve" smooth="yes"/>
			<point x="240" y="443"/>
			<point x="212" y="382"/>
			<point x="170" y="382" type="curve" smooth="yes"/>
			<point x="149" y="382"/>
			<point x="137" y="401"/>
			<point x="137" y="429" type="curve" smooth="yes"/>
			<point x="137" y="466"/>
			<point x="165" y="532"/>
		</contour>
	</outline>
</glyph>
<glyph name="ampersand" format="2">
	<advance width="591"/>
	<unicode hex="0026"/>
	<outline>
		<contour>
			<point x="506" y="850" type="curve"/>
			<point x="517" y="862" type="line"/>
			<point x="420" y="862"/>
			<point x="318" y="764"/>
			<point x="318" y="567" type="curve" smooth="yes"/>
			<point x="318" y="394"/>
			<point x="407" y="236"/>
			<point x="407" y="63" type="curve" smooth="yes"/>
			<point x="407" y="-78"/>
			<point x="342" y="-179"/>
			<point x="253" y="-179" type="curve" smooth="yes"/>
			<point x="219" y="-179"/>
			<point x="192" y="-165"/>
			<point x="184" y="-135" type="curve"/>
			<point x="182" y="-138" type="line"/>
			<point x="186" y="-172"/>
			<point x="209" y="-190"/>
			<point x="246" y="-190" type="curve" smooth="yes"/>
			<point x="343" y="-190"/>
			<point x="416" y="-78"/>
			<point x="416" y="78" type="curve" smooth="yes"/>
			<point x="416" y="251"/>
			<point x="328" y="409"/>
			<point x="328" y="580" type="curve" smooth="yes"/>
			<point x="328" y="767"/>
			<point x="420" y="850"/>
		</contour>
		<contour>
			<point x="488" y="785" type="curve"/>
			<point x="487" y="785"/>
			<point x="486" y="783"/>
			<point x="488" y="782" type="curve" smooth="yes"/>
			<point x="494" y="779"/>
			<point x="500" y="761"/>
			<point x="500" y="744" type="curve" smooth="yes"/>
			<point x="500" y="720"/>
			<point x="487" y="684"/>
			<point x="474" y="668" type="curve" smooth="yes"/>
			<point x="421" y="599"/>
			<point x="339" y="565"/>
			<point x="263" y="529" type="curve" smooth="yes"/>
			<point x="152" y="475"/>
			<point x="-16" y="378"/>
			<point x="-16" y="193" type="curve" smooth="yes"/>
			<point x="-16" y="62"/>
			<point x="71" y="-23"/>
			<point x="205" y="-23" type="curve" smooth="yes"/>
			<point x="374" y="-23"/>
			<point x="531" y="125"/>
			<point x="531" y="285" type="curve" smooth="yes"/>
			<point x="531" y="375"/>
			<point x="477" y="433"/>
			<point x="394" y="433" type="curve" smooth="yes"/>
			<point x="287" y="433"/>
			<point x="189" y="343"/>
			<point x="189" y="244" type="curve" smooth="yes"/>
			<point x="189" y="179"/>
			<point x="222" y="131"/>
			<point x="267" y="131" type="curve" smooth="yes"/>
			<point x="274" y="131"/>
			<point x="281" y="131"/>
			<point x="288" y="135" type="curve"/>
			<point x="289" y="137"/>
			<point x="289" y="138"/>
			<point x="286" y="138" type="curve"/>
			<point x="281" y="135"/>
			<point x="276" y="135"/>
			<point x="276" y="135" type="curve" smooth="yes"/>
			<point x="235" y="135"/>
			<point x="205" y="182"/>
			<point x="205" y="246" type="curve" smooth="yes"/>
			<point x="205" y="343"/>
			<point x="290" y="428"/>
			<point x="388" y="428" type="curve" smooth="yes"/>
			<point x="465" y="428"/>
			<point x="514" y="373"/>
			<point x="514" y="287" type="curve" smooth="yes"/>
			<point x="514" y="128"/>
			<point x="367" y="-19"/>
			<point x="207" y="-19" type="curve" smooth="yes"/>
			<point x="81" y="-19"/>
			<point x="-1" y="64"/>
			<point x="-1" y="193" type="curve" smooth="yes"/>
			<point x="-1" y="315"/>
			<point x="89" y="442"/>
			<point x="266" y="524" type="curve" smooth="yes"/>
			<point x="447" y="608"/>
			<point x="514" y="676"/>
			<point x="514" y="738" type="curve" smooth="yes"/>
			<point x="514" y="761"/>
			<point x="504" y="780"/>
		</contour>
	</outline>
</glyph>
<glyph name="quotesingle" format="2">
	<advance width="196"/>
	<unicode hex="0027"/>
	<outline>
		<contour>
			<point x="228" y="860" type="curve" smooth="yes"/>
			<point x="152" y="683" type="line"/>
			<point x="155" y="683" type="line"/>
			<point x="254" y="852" type="line" smooth="yes"/>
			<point x="257" y="858"/>
			<point x="259" y="863"/>
			<point x="259" y="867" type="curve" smooth="yes"/>
			<point x="259" y="874"/>
			<point x="255" y="877"/>
			<point x="249" y="877" type="curve" smooth="yes"/>
			<point x="242" y="877"/>
			<point x="234" y="872"/>
		</contour>
	</outline>
</glyph>
<glyph name="parenleft" format="2">
	<advance width="465"/>
	<unicode hex="0028"/>
	<outline>
		<contour>
			<point x="719" y="893" type="curve"/>
			<point x="717" y="897" type="line"/>
			<point x="505" y="826"/>
			<point x="290" y="622"/>
			<point x="179" y="376" type="curve" smooth="yes"/>
			<point x="124" y="253"/>
			<point x="94" y="117"/>
			<point x="94" y="-18" type="curve" smooth="yes"/>
			<point x="94" y="-130"/>
			<point x="115" y="-242"/>
			<point x="160" y="-344" type="curve"/>
			<point x="164" y="-342" type="line"/>
			<point x="124" y="-243"/>
			<point x="106" y="-141"/>
			<point x="106" y="-41" type="curve" smooth="yes"/>
			<point x="106" y="104"/>
			<point x="143" y="246"/>
			<point x="200" y="373" type="curve" smooth="yes"/>
			<point x="311" y="617"/>
			<point x="509" y="823"/>
		</contour>
	</outline>
</glyph>
<glyph name="parenright" format="2">
	<advance width="599"/>
	<unicode hex="0029"/>
	<outline>
		<contour>
			<point x="-224" y="-386" type="curve"/>
			<point x="-222" y="-390" type="line"/>
			<point x="-10" y="-319"/>
			<point x="205" y="-115"/>
			<point x="316" y="131" type="curve"/>
			<point x="371" y="254"/>
			<point x="401" y="390"/>
			<point x="401" y="525" type="curve" smooth="yes"/>
			<point x="401" y="637"/>
			<point x="380" y="749"/>
			<point x="335" y="851" type="curve"/>
			<point x="331" y="849" type="line"/>
			<point x="371" y="750"/>
			<point x="389" y="648"/>
			<point x="389" y="548" type="curve" smooth="yes"/>
			<point x="389" y="403"/>
			<point x="352" y="261"/>
			<point x="295" y="134" type="curve" smooth="yes"/>
			<point x="184" y="-110"/>
			<point x="-14" y="-316"/>
		</contour>
	</outline>
</glyph>
<glyph name="asterisk" format="2">
	<advance width="387"/>
	<unicode hex="002A"/>
	<outline>
		<contour>
			<point x="184" y="479" type="curve" smooth="yes"/>
			<point x="271" y="570" type="line"/>
			<point x="316" y="479" type="line" smooth="yes"/>
			<point x="318" y="476"/>
			<point x="321" y="474"/>
			<point x="324" y="474" type="curve" smooth="yes"/>
			<point x="330" y="474"/>
			<point x="337" y="480"/>
			<point x="337" y="486" type="curve" smooth="yes"/>
			<point x="337" y="488"/>
			<point x="336" y="490"/>
			<point x="334" y="492" type="curve" smooth="yes"/>
			<point x="278" y="570" type="line"/>
			<point x="383" y="561" type="line" smooth="yes"/>
			<point x="394" y="560"/>
			<point x="399" y="567"/>
			<point x="399" y="574" type="curve" smooth="yes"/>
			<point x="399" y="580"/>
			<point x="395" y="585"/>
			<point x="387" y="584" type="curve" smooth="yes"/>
			<point x="281" y="576" type="line"/>
			<point x="377" y="656" type="line" smooth="yes"/>
			<point x="380" y="660"/>
			<point x="382" y="663"/>
			<point x="382" y="666" type="curve" smooth="yes"/>
			<point x="382" y="671"/>
			<point x="378" y="674"/>
			<point x="373" y="674" type="curve" smooth="yes"/>
			<point x="370" y="674"/>
			<point x="366" y="673"/>
			<point x="362" y="669" type="curve" smooth="yes"/>
			<point x="274" y="576" type="line"/>
			<point x="229" y="669" type="line" smooth="yes"/>
			<point x="228" y="672"/>
			<point x="226" y="673"/>
			<point x="223" y="673" type="curve" smooth="yes"/>
			<point x="218" y="673"/>
			<point x="210" y="668"/>
			<point x="210" y="661" type="curve" smooth="yes"/>
			<point x="210" y="659"/>
			<point x="210" y="658"/>
			<point x="211" y="656" type="curve" smooth="yes"/>
			<point x="266" y="576" type="line"/>
			<point x="160" y="585" type="line" smooth="yes"/>
			<point x="152" y="585"/>
			<point x="147" y="578"/>
			<point x="147" y="571" type="curve" smooth="yes"/>
			<point x="147" y="566"/>
			<point x="150" y="561"/>
			<point x="157" y="562" type="curve" smooth="yes"/>
			<point x="264" y="570" type="line"/>
			<point x="168" y="492" type="line" smooth="yes"/>
			<point x="164" y="489"/>
			<point x="163" y="486"/>
			<point x="163" y="483" type="curve" smooth="yes"/>
			<point x="163" y="478"/>
			<point x="167" y="474"/>
			<point x="173" y="474" type="curve" smooth="yes"/>
			<point x="176" y="474"/>
			<point x="180" y="475"/>
		</contour>
	</outline>
</glyph>
<glyph name="comma" format="2">
	<advance width="212"/>
	<unicode hex="002C"/>
	<outline>
		<contour>
			<point x="38" y="40" type="curve" smooth="yes"/>
			<point x="23" y="40"/>
			<point x="9" y="27"/>
			<point x="9" y="13" type="curve" smooth="yes"/>
			<point x="9" y="5"/>
			<point x="13" y="-3"/>
			<point x="24" y="-3" type="curve" smooth="yes"/>
			<point x="26" y="-3"/>
			<point x="30" y="-3"/>
			<point x="32" y="-2" type="curve"/>
			<point x="33" y="-3"/>
			<point x="33" y="-5"/>
			<point x="33" y="-7" type="curve" smooth="yes"/>
			<point x="33" y="-26"/>
			<point x="-34" y="-98"/>
			<point x="-55" y="-113" type="curve"/>
			<point x="-55" y="-114"/>
			<point x="-53" y="-116"/>
			<point x="-53" y="-117" type="curve"/>
			<point x="-14" y="-88"/>
			<point x="54" y="-12"/>
			<point x="54" y="19" type="curve" smooth="yes"/>
			<point x="54" y="32"/>
			<point x="47" y="40"/>
		</contour>
	</outline>
</glyph>
<glyph name="slash" format="2">
	<advance width="416"/>
	<unicode hex="002F"/>
	<guideline y="339"/>
	<outline>
		<contour>
			<point x="10" y="-121" type="curve"/>
			<point x="21" y="-121" type="line"/>
			<point x="21" y="-121"/>
			<point x="135" y="110"/>
			<point x="251" y="337" type="curve" smooth="yes"/>
			<point x="364" y="558"/>
			<point x="476" y="775"/>
			<point x="476" y="775" type="curve"/>
			<point x="465" y="775" type="line"/>
			<point x="465" y="775"/>
			<point x="360" y="560"/>
			<point x="247" y="339" type="curve" smooth="yes"/>
			<point x="131" y="112"/>
			<point x="10" y="-121"/>
		</contour>
	</outline>
</glyph>
<glyph name="zero" format="2">
	<advance width="532"/>
	<unicode hex="0030"/>
	<outline>
		<contour>
			<point x="48" y="327" type="curve" smooth="yes"/>
			<point x="25" y="271"/>
			<point x="14" y="219"/>
			<point x="11" y="171" type="curve" smooth="yes"/>
			<point x="4" y="55"/>
			<point x="55" y="-27"/>
			<point x="156" y="-27" type="curve" smooth="yes"/>
			<point x="287" y="-27"/>
			<point x="468" y="130"/>
			<point x="546" y="318" type="curve" smooth="yes"/>
			<point x="569" y="373"/>
			<point x="581" y="426"/>
			<point x="584" y="472" type="curve" smooth="yes"/>
			<point x="593" y="590"/>
			<point x="534" y="672"/>
			<point x="437" y="672" type="curve" smooth="yes"/>
			<point x="301" y="672"/>
			<point x="126" y="518"/>
		</contour>
		<contour>
			<point x="436" y="668" type="curve" smooth="yes"/>
			<point x="527" y="668"/>
			<point x="574" y="589"/>
			<point x="566" y="476" type="curve" smooth="yes"/>
			<point x="563" y="431"/>
			<point x="551" y="379"/>
			<point x="529" y="324" type="curve" smooth="yes"/>
			<point x="452" y="132"/>
			<point x="286" y="-22"/>
			<point x="158" y="-22" type="curve" smooth="yes"/>
			<point x="66" y="-22"/>
			<point x="20" y="56"/>
			<point x="27" y="168" type="curve" smooth="yes"/>
			<point x="30" y="214"/>
			<point x="42" y="266"/>
			<point x="64" y="322" type="curve" smooth="yes"/>
			<point x="141" y="514"/>
			<point x="308" y="668"/>
		</contour>
	</outline>
</glyph>
<glyph name="one" format="2">
	<advance width="302"/>
	<unicode hex="0031"/>
	<outline>
		<contour>
			<point x="96" y="226" type="curve"/>
			<point x="84" y="239"/>
			<point x="83" y="252"/>
			<point x="83" y="265" type="curve" smooth="yes"/>
			<point x="83" y="405"/>
			<point x="232" y="506"/>
			<point x="331" y="571" type="curve"/>
			<point x="237" y="438"/>
			<point x="120" y="211"/>
			<point x="41" y="1" type="curve"/>
			<point x="59" y="1" type="line"/>
			<point x="141" y="218"/>
			<point x="253" y="448"/>
			<point x="341" y="577" type="curve"/>
			<point x="377" y="599" type="line" smooth="yes"/>
			<point x="407" y="618"/>
			<point x="440" y="640"/>
			<point x="457" y="654" type="curve" smooth="yes"/>
			<point x="466" y="662"/>
			<point x="470" y="669"/>
			<point x="470" y="675" type="curve" smooth="yes"/>
			<point x="470" y="683"/>
			<point x="463" y="688"/>
			<point x="453" y="688" type="curve" smooth="yes"/>
			<point x="427" y="688"/>
			<point x="385" y="646"/>
			<point x="337" y="579" type="curve"/>
			<point x="235" y="514"/>
			<point x="77" y="420"/>
			<point x="77" y="278" type="curve" smooth="yes"/>
			<point x="77" y="263"/>
			<point x="79" y="240"/>
			<point x="94" y="225" type="curve"/>
			<point x="95" y="224"/>
			<point x="96" y="225"/>
		</contour>
		<contour>
			<point x="446" y="679" type="curve" smooth="yes"/>
			<point x="454" y="679"/>
			<point x="458" y="676"/>
			<point x="458" y="670" type="curve" smooth="yes"/>
			<point x="458" y="665"/>
			<point x="455" y="659"/>
			<point x="448" y="653" type="curve" smooth="yes"/>
			<point x="431" y="639"/>
			<point x="405" y="622"/>
			<point x="375" y="603" type="curve" smooth="yes"/>
			<point x="346" y="584" type="line"/>
			<point x="387" y="643"/>
			<point x="422" y="679"/>
		</contour>
	</outline>
</glyph>
<glyph name="two" format="2">
	<advance width="524"/>
	<unicode hex="0032"/>
	<outline>
		<contour>
			<point x="-31" y="-2" type="curve"/>
			<point x="-17" y="-2" type="line"/>
			<point x="-12" y="10"/>
			<point x="2" y="32"/>
			<point x="9" y="39" type="curve" smooth="yes"/>
			<point x="61" y="91"/>
			<point x="140" y="146"/>
			<point x="223" y="205" type="curve" smooth="yes"/>
			<point x="383" y="318"/>
			<point x="553" y="441"/>
			<point x="553" y="562" type="curve" smooth="yes"/>
			<point x="553" y="642"/>
			<point x="490" y="684"/>
			<point x="418" y="684" type="curve" smooth="yes"/>
			<point x="300" y="684"/>
			<point x="161" y="566"/>
			<point x="161" y="433" type="curve" smooth="yes"/>
			<point x="161" y="410"/>
			<point x="173" y="370"/>
			<point x="199" y="368" type="curve"/>
			<point x="202" y="368"/>
			<point x="203" y="372"/>
			<point x="201" y="372" type="curve"/>
			<point x="175" y="375"/>
			<point x="170" y="405"/>
			<point x="170" y="427" type="curve" smooth="yes"/>
			<point x="170" y="557"/>
			<point x="302" y="680"/>
			<point x="418" y="680" type="curve" smooth="yes"/>
			<point x="484" y="680"/>
			<point x="542" y="649"/>
			<point x="542" y="573" type="curve" smooth="yes"/>
			<point x="542" y="462"/>
			<point x="380" y="341"/>
			<point x="227" y="226" type="curve" smooth="yes"/>
			<point x="140" y="161"/>
			<point x="56" y="98"/>
			<point x="5" y="40" type="curve" smooth="yes"/>
			<point x="-9" y="25"/>
			<point x="-22" y="12"/>
		</contour>
		<contour>
			<point x="11" y="44" type="curve"/>
			<point x="7" y="40" type="line"/>
			<point x="74" y="40"/>
			<point x="134" y="-25"/>
			<point x="239" y="-25" type="curve" smooth="yes"/>
			<point x="322" y="-25"/>
			<point x="431" y="13"/>
			<point x="431" y="111" type="curve" smooth="yes"/>
			<point x="431" y="114"/>
			<point x="431" y="117"/>
			<point x="431" y="120" type="curve"/>
			<point x="430" y="123"/>
			<point x="428" y="124"/>
			<point x="427" y="121" type="curve"/>
			<point x="428" y="117"/>
			<point x="428" y="114"/>
			<point x="428" y="110" type="curve" smooth="yes"/>
			<point x="428" y="27"/>
			<point x="334" y="-15"/>
			<point x="264" y="-15" type="curve" smooth="yes"/>
			<point x="171" y="-15"/>
			<point x="89" y="44"/>
		</contour>
	</outline>
</glyph>
<glyph name="three" format="2">
	<advance width="407"/>
	<unicode hex="0033"/>
	<outline>
		<contour>
			<point x="191" y="333" type="curve" smooth="yes"/>
			<point x="218" y="333"/>
			<point x="243" y="326"/>
			<point x="265" y="314" type="curve"/>
			<point x="246" y="307"/>
			<point x="215" y="301"/>
			<point x="195" y="301" type="curve" smooth="yes"/>
			<point x="165" y="301"/>
			<point x="152" y="310"/>
			<point x="152" y="319" type="curve" smooth="yes"/>
			<point x="152" y="326"/>
			<point x="169" y="333"/>
		</contour>
		<contour>
			<point x="-22" y="-191" type="curve" smooth="yes"/>
			<point x="-100" y="-191"/>
			<point x="-165" y="-166"/>
			<point x="-165" y="-107" type="curve" smooth="yes"/>
			<point x="-165" y="-99"/>
			<point x="-163" y="-91"/>
			<point x="-153" y="-81" type="curve"/>
			<point x="-154" y="-81"/>
			<point x="-156" y="-79"/>
			<point x="-157" y="-79" type="curve"/>
			<point x="-171" y="-96"/>
			<point x="-173" y="-101"/>
			<point x="-173" y="-119" type="curve" smooth="yes"/>
			<point x="-174" y="-161"/>
			<point x="-98" y="-197"/>
			<point x="-19" y="-197" type="curve" smooth="yes"/>
			<point x="156" y="-197"/>
			<point x="361" y="-32"/>
			<point x="361" y="137" type="curve" smooth="yes"/>
			<point x="361" y="212"/>
			<point x="326" y="278"/>
			<point x="276" y="312" type="curve"/>
			<point x="369" y="349"/>
			<point x="484" y="462"/>
			<point x="484" y="569" type="curve" smooth="yes"/>
			<point x="484" y="646"/>
			<point x="423" y="684"/>
			<point x="349" y="684" type="curve" smooth="yes"/>
			<point x="249" y="684"/>
			<point x="112" y="588"/>
			<point x="112" y="480" type="curve" smooth="yes"/>
			<point x="112" y="457"/>
			<point x="122" y="423"/>
			<point x="146" y="421" type="curve"/>
			<point x="147" y="422"/>
			<point x="148" y="424"/>
			<point x="148" y="425" type="curve"/>
			<point x="126" y="428"/>
			<point x="120" y="449"/>
			<point x="120" y="469" type="curve" smooth="yes"/>
			<point x="120" y="577"/>
			<point x="246" y="680"/>
			<point x="349" y="680" type="curve" smooth="yes"/>
			<point x="415" y="680"/>
			<point x="467" y="646"/>
			<point x="467" y="574" type="curve" smooth="yes"/>
			<point x="467" y="469"/>
			<point x="363" y="353"/>
			<point x="270" y="316" type="curve"/>
			<point x="245" y="330"/>
			<point x="217" y="338"/>
			<point x="187" y="338" type="curve" smooth="yes"/>
			<point x="177" y="338"/>
			<point x="138" y="334"/>
			<point x="138" y="317" type="curve" smooth="yes"/>
			<point x="138" y="307"/>
			<point x="161" y="297"/>
			<point x="195" y="297" type="curve" smooth="yes"/>
			<point x="218" y="297"/>
			<point x="249" y="302"/>
			<point x="271" y="311" type="curve"/>
			<point x="315" y="280"/>
			<point x="344" y="221"/>
			<point x="344" y="150" type="curve" smooth="yes"/>
			<point x="344" y="1"/>
			<point x="176" y="-191"/>
		</contour>
	</outline>
</glyph>
<glyph name="four" format="2">
	<advance width="502"/>
	<unicode hex="0034"/>
	<outline>
		<contour>
			<point x="313" y="848" type="curve"/>
			<point x="312" y="843" type="line"/>
			<point x="364" y="830"/>
			<point x="376" y="762"/>
			<point x="376" y="717" type="curve" smooth="yes"/>
			<point x="376" y="493"/>
			<point x="133" y="179"/>
			<point x="-31" y="39" type="curve"/>
			<point x="-56" y="37"/>
			<point x="-70" y="22"/>
			<point x="-70" y="11" type="curve" smooth="yes"/>
			<point x="-70" y="8"/>
			<point x="-69" y="5"/>
			<point x="-68" y="2" type="curve"/>
			<point x="-55" y="1" type="line"/>
			<point x="-53" y="12"/>
			<point x="-46" y="21"/>
			<point x="-35" y="30" type="curve"/>
			<point x="-30" y="32"/>
			<point x="-24" y="33"/>
			<point x="-16" y="33" type="curve" smooth="yes"/>
			<point x="75" y="33"/>
			<point x="124" y="-12"/>
			<point x="230" y="-20" type="curve"/>
			<point x="208" y="-73"/>
			<point x="188" y="-125"/>
			<point x="170" y="-174" type="curve"/>
			<point x="188" y="-174" type="line"/>
			<point x="206" y="-125"/>
			<point x="226" y="-74"/>
			<point x="247" y="-21" type="curve"/>
			<point x="253" y="-22"/>
			<point x="260" y="-22"/>
			<point x="267" y="-22" type="curve" smooth="yes"/>
			<point x="316" y="-22"/>
			<point x="370" y="-11"/>
			<point x="407" y="15" type="curve" smooth="yes"/>
			<point x="440" y="38"/>
			<point x="459" y="79"/>
			<point x="456" y="123" type="curve"/>
			<point x="455" y="125"/>
			<point x="453" y="125"/>
			<point x="452" y="123" type="curve"/>
			<point x="456" y="83"/>
			<point x="431" y="46"/>
			<point x="398" y="23" type="curve" smooth="yes"/>
			<point x="361" y="-3"/>
			<point x="313" y="-18"/>
			<point x="267" y="-18" type="curve" smooth="yes"/>
			<point x="260" y="-18"/>
			<point x="254" y="-17"/>
			<point x="248" y="-17" type="curve"/>
			<point x="352" y="243"/>
			<point x="481" y="534"/>
			<point x="561" y="616" type="curve"/>
			<point x="558" y="617" type="line"/>
			<point x="472" y="528"/>
			<point x="336" y="240"/>
			<point x="231" y="-16" type="curve"/>
			<point x="122" y="-8"/>
			<point x="77" y="38"/>
			<point x="-25" y="39" type="curve"/>
			<point x="140" y="178"/>
			<point x="387" y="483"/>
			<point x="387" y="703" type="curve" smooth="yes"/>
			<point x="387" y="754"/>
			<point x="367" y="835"/>
		</contour>
	</outline>
</glyph>
<glyph name="five" format="2">
	<advance width="394"/>
	<unicode hex="0035"/>
	<outline>
		<contour>
			<point x="244" y="644" type="curve" smooth="yes"/>
			<point x="240" y="640"/>
			<point x="239" y="641"/>
			<point x="240" y="647" type="curve" smooth="yes"/>
			<point x="243" y="664"/>
			<point x="245" y="678"/>
			<point x="246" y="691" type="curve"/>
			<point x="242" y="691" type="line"/>
			<point x="237" y="609"/>
			<point x="190" y="467"/>
			<point x="138" y="409" type="curve" smooth="yes"/>
			<point x="132" y="403"/>
			<point x="125" y="396"/>
			<point x="124" y="392" type="curve"/>
			<point x="124" y="390" type="line"/>
			<point x="134" y="395" type="line"/>
			<point x="140" y="403"/>
			<point x="164" y="410"/>
			<point x="192" y="410" type="curve" smooth="yes"/>
			<point x="297" y="410"/>
			<point x="352" y="318"/>
			<point x="352" y="216" type="curve" smooth="yes"/>
			<point x="352" y="28"/>
			<point x="174" y="-191"/>
			<point x="-22" y="-191" type="curve" smooth="yes"/>
			<point x="-100" y="-191"/>
			<point x="-165" y="-166"/>
			<point x="-165" y="-107" type="curve" smooth="yes"/>
			<point x="-165" y="-99"/>
			<point x="-163" y="-91"/>
			<point x="-153" y="-81" type="curve"/>
			<point x="-152" y="-80"/>
			<point x="-156" y="-78"/>
			<point x="-157" y="-79" type="curve"/>
			<point x="-171" y="-96"/>
			<point x="-173" y="-101"/>
			<point x="-173" y="-119" type="curve" smooth="yes"/>
			<point x="-174" y="-161"/>
			<point x="-98" y="-197"/>
			<point x="-19" y="-197" type="curve" smooth="yes"/>
			<point x="175" y="-197"/>
			<point x="368" y="7"/>
			<point x="368" y="199" type="curve" smooth="yes"/>
			<point x="368" y="312"/>
			<point x="304" y="416"/>
			<point x="189" y="416" type="curve" smooth="yes"/>
			<point x="176" y="416"/>
			<point x="161" y="415"/>
			<point x="149" y="414" type="curve"/>
			<point x="188" y="462"/>
			<point x="222" y="557"/>
			<point x="237" y="630" type="curve"/>
			<point x="244" y="641"/>
			<point x="260" y="651"/>
			<point x="276" y="651" type="curve" smooth="yes"/>
			<point x="308" y="651"/>
			<point x="352" y="625"/>
			<point x="386" y="625" type="curve" smooth="yes"/>
			<point x="410" y="625"/>
			<point x="452" y="633"/>
			<point x="461" y="667" type="curve"/>
			<point x="459" y="669" type="line"/>
			<point x="447" y="642"/>
			<point x="425" y="638"/>
			<point x="402" y="638" type="curve" smooth="yes"/>
			<point x="368" y="638"/>
			<point x="326" y="663"/>
			<point x="294" y="663" type="curve" smooth="yes"/>
			<point x="275" y="663"/>
			<point x="256" y="654"/>
		</contour>
	</outline>
</glyph>
<glyph name="six" format="2">
	<advance width="518"/>
	<unicode hex="0036"/>
	<outline>
		<contour>
			<point x="735" y="837" type="curve"/>
			<point x="725" y="840"/>
			<point x="714" y="841"/>
			<point x="701" y="841" type="curve" smooth="yes"/>
			<point x="636" y="841"/>
			<point x="539" y="806"/>
			<point x="453" y="752" type="curve" smooth="yes"/>
			<point x="245" y="622"/>
			<point x="28" y="384"/>
			<point x="28" y="146" type="curve" smooth="yes"/>
			<point x="28" y="64"/>
			<point x="54" y="-22"/>
			<point x="174" y="-22" type="curve" smooth="yes"/>
			<point x="325" y="-22"/>
			<point x="504" y="165"/>
			<point x="504" y="322" type="curve" smooth="yes"/>
			<point x="504" y="405"/>
			<point x="454" y="460"/>
			<point x="385" y="460" type="curve" smooth="yes"/>
			<point x="252" y="460"/>
			<point x="143" y="332"/>
			<point x="123" y="208" type="curve"/>
			<point x="123" y="207"/>
			<point x="127" y="207"/>
			<point x="127" y="208" type="curve"/>
			<point x="146" y="328"/>
			<point x="253" y="455"/>
			<point x="381" y="455" type="curve" smooth="yes"/>
			<point x="443" y="455"/>
			<point x="488" y="415"/>
			<point x="488" y="341" type="curve" smooth="yes"/>
			<point x="488" y="175"/>
			<point x="320" y="-17"/>
			<point x="174" y="-17" type="curve" smooth="yes"/>
			<point x="69" y="-17"/>
			<point x="46" y="62"/>
			<point x="46" y="138" type="curve" smooth="yes"/>
			<point x="46" y="381"/>
			<point x="267" y="625"/>
			<point x="454" y="748" type="curve" smooth="yes"/>
			<point x="527" y="795"/>
			<point x="626" y="836"/>
			<point x="701" y="836" type="curve" smooth="yes"/>
			<point x="713" y="836"/>
			<point x="724" y="835"/>
			<point x="735" y="833" type="curve"/>
			<point x="737" y="834"/>
			<point x="737" y="836"/>
		</contour>
	</outline>
</glyph>
<glyph name="seven" format="2">
	<advance width="390"/>
	<unicode hex="0037"/>
	<outline>
		<contour>
			<point x="59" y="-109" type="curve"/>
			<point x="59" y="128"/>
			<point x="351" y="481"/>
			<point x="551" y="619" type="curve" smooth="yes"/>
			<point x="567" y="630"/>
			<point x="578" y="647"/>
			<point x="587" y="661" type="curve"/>
			<point x="573" y="661" type="line"/>
			<point x="568" y="649"/>
			<point x="556" y="625"/>
			<point x="547" y="620" type="curve" smooth="yes"/>
			<point x="337" y="490"/>
			<point x="54" y="153"/>
			<point x="54" y="-98" type="curve"/>
			<point x="55" y="-103"/>
			<point x="56" y="-106"/>
		</contour>
		<contour>
			<point x="545" y="615" type="curve"/>
			<point x="549" y="619" type="line"/>
			<point x="484" y="619"/>
			<point x="428" y="684"/>
			<point x="328" y="684" type="curve" smooth="yes"/>
			<point x="251" y="684"/>
			<point x="152" y="647"/>
			<point x="152" y="548" type="curve" smooth="yes"/>
			<point x="152" y="545"/>
			<point x="152" y="542"/>
			<point x="152" y="539" type="curve"/>
			<point x="152" y="536"/>
			<point x="156" y="537"/>
			<point x="156" y="538" type="curve"/>
			<point x="155" y="542"/>
			<point x="155" y="545"/>
			<point x="155" y="549" type="curve" smooth="yes"/>
			<point x="155" y="632"/>
			<point x="239" y="674"/>
			<point x="303" y="674" type="curve" smooth="yes"/>
			<point x="392" y="674"/>
			<point x="470" y="615"/>
		</contour>
	</outline>
</glyph>
<glyph name="eight" format="2">
	<advance width="440"/>
	<unicode hex="0038"/>
	<outline>
		<contour>
			<point x="339" y="826" type="curve"/>
			<point x="369" y="855"/>
			<point x="404" y="869"/>
			<point x="444" y="869" type="curve" smooth="yes"/>
			<point x="506" y="869"/>
			<point x="541" y="833"/>
			<point x="541" y="768" type="curve" smooth="yes"/>
			<point x="541" y="662"/>
			<point x="442" y="587"/>
			<point x="327" y="510" type="curve" smooth="yes"/>
			<point x="167" y="403"/>
			<point x="-26" y="297"/>
			<point x="-26" y="110" type="curve" smooth="yes"/>
			<point x="-26" y="21"/>
			<point x="35" y="-30"/>
			<point x="125" y="-30" type="curve" smooth="yes"/>
			<point x="272" y="-30"/>
			<point x="401" y="98"/>
			<point x="401" y="241" type="curve" smooth="yes"/>
			<point x="401" y="379"/>
			<point x="319" y="493"/>
			<point x="319" y="638" type="curve" smooth="yes"/>
			<point x="319" y="721"/>
			<point x="354" y="777"/>
			<point x="415" y="790" type="curve"/>
			<point x="418" y="792"/>
			<point x="419" y="793"/>
			<point x="416" y="795" type="curve"/>
			<point x="347" y="780"/>
			<point x="306" y="717"/>
			<point x="306" y="629" type="curve" smooth="yes"/>
			<point x="306" y="489"/>
			<point x="384" y="365"/>
			<point x="384" y="229" type="curve" smooth="yes"/>
			<point x="384" y="93"/>
			<point x="263" y="-25"/>
			<point x="125" y="-25" type="curve" smooth="yes"/>
			<point x="41" y="-25"/>
			<point x="-15" y="19"/>
			<point x="-15" y="105" type="curve" smooth="yes"/>
			<point x="-15" y="288"/>
			<point x="170" y="397"/>
			<point x="329" y="505" type="curve" smooth="yes"/>
			<point x="447" y="585"/>
			<point x="554" y="661"/>
			<point x="554" y="769" type="curve" smooth="yes"/>
			<point x="554" y="835"/>
			<point x="515" y="874"/>
			<point x="447" y="874" type="curve" smooth="yes"/>
			<point x="405" y="874"/>
			<point x="369" y="859"/>
			<point x="338" y="830" type="curve"/>
			<point x="337" y="829"/>
			<point x="338" y="827"/>
		</contour>
	</outline>
</glyph>
<glyph name="nine" format="2">
	<advance width="498"/>
	<unicode hex="0039"/>
	<outline>
		<contour>
			<point x="-144" y="-184" type="curve"/>
			<point x="-134" y="-187"/>
			<point x="-123" y="-188"/>
			<point x="-110" y="-188" type="curve" smooth="yes"/>
			<point x="-45" y="-188"/>
			<point x="52" y="-153"/>
			<point x="138" y="-99" type="curve" smooth="yes"/>
			<point x="346" y="31"/>
			<point x="563" y="269"/>
			<point x="563" y="507" type="curve" smooth="yes"/>
			<point x="563" y="589"/>
			<point x="537" y="675"/>
			<point x="417" y="675" type="curve" smooth="yes"/>
			<point x="266" y="675"/>
			<point x="87" y="488"/>
			<point x="87" y="331" type="curve" smooth="yes"/>
			<point x="87" y="248"/>
			<point x="137" y="193"/>
			<point x="206" y="193" type="curve" smooth="yes"/>
			<point x="339" y="193"/>
			<point x="448" y="321"/>
			<point x="468" y="445" type="curve"/>
			<point x="467" y="447"/>
			<point x="465" y="447"/>
			<point x="464" y="445" type="curve"/>
			<point x="445" y="325"/>
			<point x="338" y="198"/>
			<point x="210" y="198" type="curve" smooth="yes"/>
			<point x="148" y="198"/>
			<point x="103" y="238"/>
			<point x="103" y="312" type="curve" smooth="yes"/>
			<point x="103" y="478"/>
			<point x="271" y="670"/>
			<point x="417" y="670" type="curve" smooth="yes"/>
			<point x="522" y="670"/>
			<point x="545" y="591"/>
			<point x="545" y="515" type="curve" smooth="yes"/>
			<point x="545" y="272"/>
			<point x="324" y="28"/>
			<point x="137" y="-95" type="curve" smooth="yes"/>
			<point x="64" y="-142"/>
			<point x="-35" y="-183"/>
			<point x="-110" y="-183" type="curve" smooth="yes"/>
			<point x="-122" y="-183"/>
			<point x="-133" y="-182"/>
			<point x="-144" y="-180" type="curve"/>
			<point x="-145" y="-180"/>
			<point x="-145" y="-184"/>
		</contour>
	</outline>
</glyph>
<glyph name="colon" format="2">
	<advance width="302"/>
	<unicode hex="003A"/>
	<outline>
		<contour>
			<point x="8" y="19" type="curve" smooth="yes"/>
			<point x="5" y="8"/>
			<point x="10" y="-3"/>
			<point x="23" y="-3" type="curve" smooth="yes"/>
			<point x="35" y="-3"/>
			<point x="48" y="6"/>
			<point x="53" y="19" type="curve" smooth="yes"/>
			<point x="57" y="32"/>
			<point x="50" y="42"/>
			<point x="39" y="42" type="curve" smooth="yes"/>
			<point x="24" y="42"/>
			<point x="12" y="32"/>
		</contour>
		<contour>
			<point x="167" y="419" type="curve" smooth="yes"/>
			<point x="164" y="408"/>
			<point x="169" y="397"/>
			<point x="182" y="397" type="curve" smooth="yes"/>
			<point x="194" y="397"/>
			<point x="207" y="406"/>
			<point x="212" y="419" type="curve" smooth="yes"/>
			<point x="216" y="432"/>
			<point x="209" y="442"/>
			<point x="198" y="442" type="curve" smooth="yes"/>
			<point x="183" y="442"/>
			<point x="171" y="432"/>
		</contour>
	</outline>
</glyph>
<glyph name="semicolon" format="2">
	<advance width="302"/>
	<unicode hex="003B"/>
	<outline>
		<contour>
			<point x="38" y="40" type="curve" smooth="yes"/>
			<point x="23" y="40"/>
			<point x="9" y="27"/>
			<point x="9" y="13" type="curve" smooth="yes"/>
			<point x="9" y="5"/>
			<point x="13" y="-3"/>
			<point x="24" y="-3" type="curve" smooth="yes"/>
			<point x="26" y="-3"/>
			<point x="30" y="-3"/>
			<point x="32" y="-2" type="curve"/>
			<point x="33" y="-3"/>
			<point x="33" y="-5"/>
			<point x="33" y="-7" type="curve" smooth="yes"/>
			<point x="33" y="-26"/>
			<point x="-34" y="-98"/>
			<point x="-55" y="-113" type="curve"/>
			<point x="-56" y="-115"/>
			<point x="-56" y="-117"/>
			<point x="-53" y="-117" type="curve"/>
			<point x="-14" y="-88"/>
			<point x="54" y="-12"/>
			<point x="54" y="19" type="curve" smooth="yes"/>
			<point x="54" y="32"/>
			<point x="47" y="40"/>
		</contour>
		<contour>
			<point x="165" y="413" type="curve" smooth="yes"/>
			<point x="165" y="404"/>
			<point x="170" y="397"/>
			<point x="181" y="397" type="curve" smooth="yes"/>
			<point x="196" y="397"/>
			<point x="212" y="411"/>
			<point x="212" y="426" type="curve" smooth="yes"/>
			<point x="212" y="435"/>
			<point x="206" y="442"/>
			<point x="197" y="442" type="curve" smooth="yes"/>
			<point x="182" y="442"/>
			<point x="165" y="429"/>
		</contour>
	</outline>
</glyph>
<glyph name="equal" format="2">
	<advance width="582"/>
	<unicode hex="003D"/>
	<outline>
		<contour>
			<point x="153" y="369" type="curve"/>
			<point x="153" y="364" type="line"/>
			<point x="153" y="364"/>
			<point x="481" y="364"/>
			<point x="481" y="364" type="curve"/>
			<point x="481" y="369" type="line"/>
			<point x="481" y="369"/>
			<point x="153" y="369"/>
		</contour>
		<contour>
			<point x="105" y="264" type="curve"/>
			<point x="105" y="259" type="line"/>
			<point x="105" y="259"/>
			<point x="433" y="259"/>
			<point x="433" y="259" type="curve"/>
			<point x="433" y="264" type="line"/>
			<point x="433" y="264"/>
			<point x="105" y="264"/>
		</contour>
	</outline>
</glyph>
<glyph name="greater" format="2">
	<advance width="423"/>
	<unicode hex="003E"/>
	<outline>
		<contour>
			<point x="67" y="80" type="line"/>
			<point x="289" y="280" type="line"/>
			<point x="209" y="495" type="line"/>
			<point x="205" y="493" type="line"/>
			<point x="275" y="286" type="line"/>
			<point x="66" y="85" type="line"/>
		</contour>
	</outline>
</glyph>
<glyph name="question" format="2">
	<advance width="506"/>
	<unicode hex="003F"/>
	<outline>
		<contour>
			<point x="65" y="124" type="curve"/>
			<point x="77" y="124" type="line"/>
			<point x="101" y="372"/>
			<point x="551" y="488"/>
			<point x="551" y="719" type="curve" smooth="yes"/>
			<point x="551" y="811"/>
			<point x="476" y="879"/>
			<point x="375" y="879" type="curve" smooth="yes"/>
			<point x="256" y="879"/>
			<point x="151" y="786"/>
			<point x="151" y="680" type="curve" smooth="yes"/>
			<point x="151" y="622"/>
			<point x="181" y="576"/>
			<point x="221" y="576" type="curve" smooth="yes"/>
			<point x="229" y="576"/>
			<point x="236" y="576"/>
			<point x="241" y="579" type="curve"/>
			<point x="243" y="580"/>
			<point x="244" y="582"/>
			<point x="242" y="583" type="curve"/>
			<point x="233" y="580"/>
			<point x="224" y="580"/>
			<point x="224" y="580" type="curve" smooth="yes"/>
			<point x="189" y="580"/>
			<point x="165" y="614"/>
			<point x="165" y="662" type="curve" smooth="yes"/>
			<point x="165" y="776"/>
			<point x="264" y="875"/>
			<point x="377" y="875" type="curve" smooth="yes"/>
			<point x="470" y="875"/>
			<point x="534" y="814"/>
			<point x="534" y="725" type="curve" smooth="yes"/>
			<point x="534" y="483"/>
			<point x="88" y="364"/>
		</contour>
		<contour>
			<point x="8" y="19" type="curve" smooth="yes"/>
			<point x="7" y="17"/>
			<point x="7" y="15"/>
			<point x="7" y="13" type="curve" smooth="yes"/>
			<point x="7" y="4"/>
			<point x="12" y="-3"/>
			<point x="23" y="-3" type="curve" smooth="yes"/>
			<point x="35" y="-3"/>
			<point x="48" y="6"/>
			<point x="53" y="19" type="curve" smooth="yes"/>
			<point x="54" y="21"/>
			<point x="54" y="24"/>
			<point x="54" y="26" type="curve" smooth="yes"/>
			<point x="54" y="35"/>
			<point x="48" y="42"/>
			<point x="39" y="42" type="curve" smooth="yes"/>
			<point x="24" y="42"/>
			<point x="12" y="32"/>
		</contour>
	</outline>
</glyph>
<glyph name="at" format="2">
	<advance width="719"/>
	<unicode hex="0040"/>
	<outline>
		<contour>
			<point x="-17" y="161" type="curve" smooth="yes"/>
			<point x="-17" y="-34"/>
			<point x="77" y="-127"/>
			<point x="249" y="-127" type="curve" smooth="yes"/>
			<point x="403" y="-127"/>
			<point x="598" y="-60"/>
			<point x="722" y="280" type="curve"/>
			<point x="722" y="282"/>
			<point x="721" y="283"/>
			<point x="719" y="282" type="curve"/>
			<point x="596" y="-55"/>
			<point x="402" y="-123"/>
			<point x="249" y="-123" type="curve" smooth="yes"/>
			<point x="80" y="-123"/>
			<point x="-13" y="-30"/>
			<point x="-13" y="161" type="curve" smooth="yes"/>
			<point x="-13" y="387"/>
			<point x="198" y="745"/>
			<point x="463" y="745" type="curve" smooth="yes"/>
			<point x="612" y="745"/>
			<point x="680" y="633"/>
			<point x="680" y="490" type="curve" smooth="yes"/>
			<point x="680" y="367"/>
			<point x="573" y="97"/>
			<point x="435" y="97" type="curve" smooth="yes"/>
			<point x="394" y="97"/>
			<point x="373" y="130"/>
			<point x="373" y="170" type="curve" smooth="yes"/>
			<point x="373" y="216"/>
			<point x="391" y="271"/>
			<point x="409" y="310" type="curve" smooth="yes"/>
			<point x="515" y="531" type="line"/>
			<point x="496" y="531" type="line"/>
			<point x="394" y="310" type="line" smooth="yes"/>
			<point x="340" y="193"/>
			<point x="270" y="104"/>
			<point x="217" y="104" type="curve" smooth="yes"/>
			<point x="191" y="104"/>
			<point x="179" y="127"/>
			<point x="179" y="167" type="curve" smooth="yes"/>
			<point x="179" y="218"/>
			<point x="192" y="271"/>
			<point x="212" y="318" type="curve" smooth="yes"/>
			<point x="263" y="438"/>
			<point x="349" y="536"/>
			<point x="402" y="536" type="curve" smooth="yes"/>
			<point x="440" y="536"/>
			<point x="451" y="510"/>
			<point x="446" y="480" type="curve" smooth="yes"/>
			<point x="442" y="452"/>
			<point x="427" y="421"/>
			<point x="406" y="401" type="curve"/>
			<point x="405" y="400"/>
			<point x="406" y="399"/>
			<point x="407" y="398" type="curve"/>
			<point x="430" y="420"/>
			<point x="448" y="452"/>
			<point x="452" y="480" type="curve" smooth="yes"/>
			<point x="457" y="512"/>
			<point x="442" y="540"/>
			<point x="402" y="540" type="curve" smooth="yes"/>
			<point x="342" y="540"/>
			<point x="248" y="448"/>
			<point x="199" y="326" type="curve" smooth="yes"/>
			<point x="181" y="281"/>
			<point x="164" y="232"/>
			<point x="164" y="183" type="curve" smooth="yes"/>
			<point x="164" y="133"/>
			<point x="185" y="97"/>
			<point x="215" y="97" type="curve" smooth="yes"/>
			<point x="266" y="97"/>
			<point x="339" y="180"/>
			<point x="380" y="272" type="curve"/>
			<point x="382" y="272" type="line"/>
			<point x="371" y="241"/>
			<point x="364" y="207"/>
			<point x="364" y="177" type="curve" smooth="yes"/>
			<point x="364" y="131"/>
			<point x="387" y="93"/>
			<point x="435" y="93" type="curve" smooth="yes"/>
			<point x="575" y="93"/>
			<point x="684" y="365"/>
			<point x="684" y="490" type="curve" smooth="yes"/>
			<point x="684" y="635"/>
			<point x="614" y="749"/>
			<point x="463" y="749" type="curve" smooth="yes"/>
			<point x="240" y="749"/>
			<point x="55" y="498"/>
			<point x="0" y="282" type="curve" smooth="yes"/>
			<point x="-11" y="240"/>
			<point x="-17" y="198"/>
		</contour>
	</outline>
</glyph>
<glyph name="B" format="2">
	<advance width="865"/>
	<unicode hex="0042"/>
	<outline>
		<contour>
			<point x="631" y="936" type="curve" smooth="yes"/>
			<point x="366" y="936"/>
			<point x="44" y="681"/>
			<point x="44" y="393" type="curve" smooth="yes"/>
			<point x="44" y="267"/>
			<point x="110" y="127"/>
			<point x="275" y="127" type="curve" smooth="yes"/>
			<point x="435" y="127"/>
			<point x="597" y="267"/>
			<point x="597" y="433" type="curve" smooth="yes"/>
			<point x="597" y="529"/>
			<point x="534" y="603"/>
			<point x="439" y="603" type="curve" smooth="yes"/>
			<point x="328" y="603"/>
			<point x="223" y="511"/>
			<point x="223" y="413" type="curve" smooth="yes"/>
			<point x="223" y="379"/>
			<point x="234" y="342"/>
			<point x="269" y="328" type="curve"/>
			<point x="271" y="328"/>
			<point x="273" y="328"/>
			<point x="274" y="330" type="curve"/>
			<point x="245" y="338"/>
			<point x="234" y="370"/>
			<point x="234" y="400" type="curve" smooth="yes"/>
			<point x="234" y="507"/>
			<point x="328" y="598"/>
			<point x="439" y="598" type="curve" smooth="yes"/>
			<point x="534" y="598"/>
			<point x="583" y="528"/>
			<point x="583" y="436" type="curve" smooth="yes"/>
			<point x="583" y="274"/>
			<point x="437" y="132"/>
			<point x="276" y="132" type="curve" smooth="yes"/>
			<point x="115" y="132"/>
			<point x="56" y="260"/>
			<point x="56" y="376" type="curve" smooth="yes"/>
			<point x="56" y="661"/>
			<point x="378" y="930"/>
			<point x="637" y="930" type="curve" smooth="yes"/>
			<point x="786" y="930"/>
			<point x="893" y="841"/>
			<point x="893" y="720" type="curve" smooth="yes"/>
			<point x="893" y="594"/>
			<point x="783" y="460"/>
			<point x="652" y="460" type="curve"/>
			<point x="647" y="457" type="line"/>
			<point x="647" y="457"/>
			<point x="659" y="452"/>
			<point x="664" y="451" type="curve" smooth="yes"/>
			<point x="695" y="442"/>
			<point x="769" y="406"/>
			<point x="769" y="304" type="curve" smooth="yes"/>
			<point x="769" y="127"/>
			<point x="572" y="-45"/>
			<point x="369" y="-45" type="curve" smooth="yes"/>
			<point x="190" y="-45"/>
			<point x="110" y="78"/>
			<point x="-28" y="78" type="curve" smooth="yes"/>
			<point x="-63" y="78"/>
			<point x="-82" y="62"/>
			<point x="-82" y="48" type="curve" smooth="yes"/>
			<point x="-82" y="5"/>
			<point x="29" y="3"/>
			<point x="53" y="3" type="curve" smooth="yes"/>
			<point x="324" y="3"/>
			<point x="448" y="270"/>
			<point x="551" y="512" type="curve" smooth="yes"/>
			<point x="636" y="713"/>
			<point x="779" y="970"/>
			<point x="939" y="970" type="curve"/>
			<point x="939" y="979" type="line"/>
			<point x="790" y="979"/>
			<point x="619" y="716"/>
			<point x="528" y="512" type="curve" smooth="yes"/>
			<point x="423" y="278"/>
			<point x="316" y="8"/>
			<point x="53" y="8" type="curve" smooth="yes"/>
			<point x="31" y="8"/>
			<point x="-62" y="9"/>
			<point x="-62" y="47" type="curve" smooth="yes"/>
			<point x="-62" y="59"/>
			<point x="-49" y="73"/>
			<point x="-21" y="73" type="curve" smooth="yes"/>
			<point x="80" y="73"/>
			<point x="187" y="-49"/>
			<point x="373" y="-49" type="curve" smooth="yes"/>
			<point x="588" y="-49"/>
			<point x="785" y="114"/>
			<point x="785" y="292" type="curve" smooth="yes"/>
			<point x="785" y="382"/>
			<point x="728" y="426"/>
			<point x="689" y="446" type="curve" smooth="yes"/>
			<point x="682" y="449"/>
			<point x="679" y="451"/>
			<point x="679" y="453" type="curve" smooth="yes"/>
			<point x="679" y="455"/>
			<point x="683" y="456"/>
			<point x="690" y="458" type="curve" smooth="yes"/>
			<point x="809" y="479"/>
			<point x="910" y="595"/>
			<point x="910" y="715" type="curve" smooth="yes"/>
			<point x="910" y="841"/>
			<point x="792" y="936"/>
		</contour>
	</outline>
</glyph>
<glyph name="D" format="2">
	<advance width="1106"/>
	<unicode hex="0044"/>
	<anchor x="936" y="998" name="top"/>
	<outline>
		<contour>
			<point x="684" y="957" type="curve" smooth="yes"/>
			<point x="340" y="957"/>
			<point x="14" y="689"/>
			<point x="14" y="402" type="curve" smooth="yes"/>
			<point x="14" y="286"/>
			<point x="75" y="158"/>
			<point x="226" y="158" type="curve" smooth="yes"/>
			<point x="373" y="158"/>
			<point x="521" y="286"/>
			<point x="521" y="439" type="curve" smooth="yes"/>
			<point x="521" y="527"/>
			<point x="464" y="595"/>
			<point x="376" y="595" type="curve" smooth="yes"/>
			<point x="275" y="595"/>
			<point x="178" y="510"/>
			<point x="178" y="420" type="curve" smooth="yes"/>
			<point x="178" y="389"/>
			<point x="188" y="355"/>
			<point x="220" y="342" type="curve"/>
			<point x="223" y="341"/>
			<point x="223" y="343"/>
			<point x="225" y="344" type="curve"/>
			<point x="198" y="352"/>
			<point x="188" y="381"/>
			<point x="188" y="408" type="curve" smooth="yes"/>
			<point x="188" y="507"/>
			<point x="275" y="590"/>
			<point x="376" y="590" type="curve" smooth="yes"/>
			<point x="464" y="590"/>
			<point x="508" y="526"/>
			<point x="508" y="441" type="curve" smooth="yes"/>
			<point x="508" y="293"/>
			<point x="375" y="163"/>
			<point x="227" y="163" type="curve" smooth="yes"/>
			<point x="82" y="163"/>
			<point x="28" y="279"/>
			<point x="28" y="384" type="curve" smooth="yes"/>
			<point x="28" y="668"/>
			<point x="321" y="950"/>
			<point x="686" y="950" type="curve" smooth="yes"/>
			<point x="903" y="950"/>
			<point x="1067" y="801"/>
			<point x="1067" y="581" type="curve" smooth="yes"/>
			<point x="1067" y="285"/>
			<point x="805" y="-45"/>
			<point x="514" y="-45" type="curve" smooth="yes"/>
			<point x="323" y="-45"/>
			<point x="239" y="72"/>
			<point x="106" y="72" type="curve" smooth="yes"/>
			<point x="66" y="72"/>
			<point x="39" y="61"/>
			<point x="39" y="46" type="curve" smooth="yes"/>
			<point x="39" y="23"/>
			<point x="102" y="3"/>
			<point x="174" y="3" type="curve" smooth="yes"/>
			<point x="475" y="3"/>
			<point x="573" y="204"/>
			<point x="692" y="512" type="curve" smooth="yes"/>
			<point x="769" y="712"/>
			<point x="902" y="970"/>
			<point x="1062" y="970" type="curve"/>
			<point x="1062" y="979" type="line"/>
			<point x="913" y="979"/>
			<point x="751" y="716"/>
			<point x="669" y="512" type="curve" smooth="yes"/>
			<point x="549" y="212"/>
			<point x="466" y="8"/>
			<point x="174" y="8" type="curve" smooth="yes"/>
			<point x="110" y="8"/>
			<point x="59" y="25"/>
			<point x="59" y="46" type="curve" smooth="yes"/>
			<point x="59" y="59"/>
			<point x="80" y="67"/>
			<point x="112" y="67" type="curve" smooth="yes"/>
			<point x="229" y="67"/>
			<point x="316" y="-49"/>
			<point x="518" y="-49" type="curve" smooth="yes"/>
			<point x="819" y="-49"/>
			<point x="1084" y="275"/>
			<point x="1084" y="567" type="curve" smooth="yes"/>
			<point x="1084" y="797"/>
			<point x="910" y="957"/>
		</contour>
	</outline>
</glyph>
<glyph name="E" format="2">
	<advance width="673"/>
	<unicode hex="0045"/>
	<anchor x="630" y="998" name="top"/>
	<outline>
		<contour>
			<point x="600" y="920" type="curve" smooth="yes"/>
			<point x="703" y="920"/>
			<point x="782" y="854"/>
			<point x="782" y="769" type="curve" smooth="yes"/>
			<point x="782" y="713"/>
			<point x="753" y="663"/>
			<point x="716" y="654" type="curve"/>
			<point x="714" y="651"/>
			<point x="716" y="649"/>
			<point x="718" y="649" type="curve"/>
			<point x="761" y="660"/>
			<point x="796" y="713"/>
			<point x="796" y="767" type="curve" smooth="yes"/>
			<point x="796" y="852"/>
			<point x="703" y="925"/>
			<point x="594" y="925" type="curve" smooth="yes"/>
			<point x="411" y="925"/>
			<point x="323" y="794"/>
			<point x="323" y="672" type="curve" smooth="yes"/>
			<point x="323" y="568"/>
			<point x="391" y="470"/>
			<point x="525" y="470" type="curve" smooth="yes"/>
			<point x="557" y="470"/>
			<point x="582" y="483"/>
			<point x="582" y="501" type="curve" smooth="yes"/>
			<point x="582" y="534"/>
			<point x="511" y="562"/>
			<point x="429" y="562" type="curve" smooth="yes"/>
			<point x="184" y="562"/>
			<point x="-22" y="381"/>
			<point x="-22" y="167" type="curve" smooth="yes"/>
			<point x="-22" y="10"/>
			<point x="83" y="-94"/>
			<point x="244" y="-94" type="curve" smooth="yes"/>
			<point x="433" y="-94"/>
			<point x="604" y="57"/>
			<point x="604" y="223" type="curve" smooth="yes"/>
			<point x="604" y="323"/>
			<point x="539" y="393"/>
			<point x="447" y="393" type="curve" smooth="yes"/>
			<point x="336" y="393"/>
			<point x="237" y="294"/>
			<point x="237" y="180" type="curve" smooth="yes"/>
			<point x="237" y="153"/>
			<point x="246" y="127"/>
			<point x="265" y="107" type="curve"/>
			<point x="268" y="106"/>
			<point x="270" y="107"/>
			<point x="271" y="109" type="curve"/>
			<point x="257" y="124"/>
			<point x="248" y="151"/>
			<point x="248" y="176" type="curve" smooth="yes"/>
			<point x="248" y="290"/>
			<point x="339" y="387"/>
			<point x="444" y="387" type="curve" smooth="yes"/>
			<point x="530" y="387"/>
			<point x="585" y="323"/>
			<point x="585" y="224" type="curve" smooth="yes"/>
			<point x="585" y="55"/>
			<point x="428" y="-89"/>
			<point x="242" y="-89" type="curve" smooth="yes"/>
			<point x="90" y="-89"/>
			<point x="-5" y="2"/>
			<point x="-5" y="148" type="curve" smooth="yes"/>
			<point x="-5" y="364"/>
			<point x="199" y="558"/>
			<point x="428" y="558" type="curve" smooth="yes"/>
			<point x="501" y="558"/>
			<point x="563" y="532"/>
			<point x="563" y="503" type="curve" smooth="yes"/>
			<point x="563" y="488"/>
			<point x="542" y="477"/>
			<point x="512" y="477" type="curve" smooth="yes"/>
			<point x="400" y="477"/>
			<point x="341" y="568"/>
			<point x="341" y="667" type="curve" smooth="yes"/>
			<point x="341" y="788"/>
			<point x="424" y="920"/>
		</contour>
	</outline>
</glyph>
<glyph name="F" format="2">
	<advance width="806"/>
	<unicode hex="0046"/>
	<outline>
		<contour>
			<point x="190" y="459" type="curve"/>
			<point x="181" y="472"/>
			<point x="176" y="489"/>
			<point x="176" y="509" type="curve" smooth="yes"/>
			<point x="176" y="592"/>
			<point x="259" y="669"/>
			<point x="350" y="669" type="curve" smooth="yes"/>
			<point x="430" y="669"/>
			<point x="483" y="612"/>
			<point x="483" y="525" type="curve" smooth="yes"/>
			<point x="483" y="379"/>
			<point x="352" y="249"/>
			<point x="206" y="249" type="curve" smooth="yes"/>
			<point x="87" y="249"/>
			<point x="6" y="339"/>
			<point x="6" y="471" type="curve" smooth="yes"/>
			<point x="6" y="729"/>
			<point x="281" y="954"/>
			<point x="597" y="954" type="curve" smooth="yes"/>
			<point x="868" y="954"/>
			<point x="1031" y="794"/>
			<point x="1289" y="794" type="curve" smooth="yes"/>
			<point x="1364" y="794"/>
			<point x="1414" y="808"/>
			<point x="1456" y="839" type="curve"/>
			<point x="1457" y="841"/>
			<point x="1457" y="843"/>
			<point x="1454" y="843" type="curve"/>
			<point x="1412" y="812"/>
			<point x="1362" y="798"/>
			<point x="1288" y="798" type="curve" smooth="yes"/>
			<point x="1030" y="798"/>
			<point x="867" y="960"/>
			<point x="586" y="960" type="curve" smooth="yes"/>
			<point x="265" y="960"/>
			<point x="-3" y="743"/>
			<point x="-3" y="484" type="curve" smooth="yes"/>
			<point x="-3" y="345"/>
			<point x="84" y="245"/>
			<point x="206" y="245" type="curve" smooth="yes"/>
			<point x="355" y="245"/>
			<point x="496" y="379"/>
			<point x="496" y="522" type="curve" smooth="yes"/>
			<point x="496" y="611"/>
			<point x="438" y="673"/>
			<point x="354" y="673" type="curve" smooth="yes"/>
			<point x="259" y="673"/>
			<point x="166" y="594"/>
			<point x="166" y="514" type="curve" smooth="yes"/>
			<point x="166" y="493"/>
			<point x="172" y="476"/>
			<point x="185" y="457" type="curve"/>
			<point x="188" y="456"/>
			<point x="190" y="456"/>
		</contour>
		<contour>
			<point x="651" y="470" type="curve" smooth="yes"/>
			<point x="655" y="479"/>
			<point x="662" y="483"/>
			<point x="672" y="483" type="curve" smooth="yes"/>
			<point x="797" y="483" type="line"/>
			<point x="797" y="487" type="line"/>
			<point x="674" y="487" type="line" smooth="yes"/>
			<point x="664" y="487"/>
			<point x="662" y="491"/>
			<point x="666" y="500" type="curve" smooth="yes"/>
			<point x="732" y="631"/>
			<point x="815" y="760"/>
			<point x="923" y="785" type="curve"/>
			<point x="923" y="798" type="line"/>
			<point x="816" y="763"/>
			<point x="726" y="633"/>
			<point x="653" y="500" type="curve" smooth="yes"/>
			<point x="648" y="491"/>
			<point x="641" y="487"/>
			<point x="631" y="487" type="curve" smooth="yes"/>
			<point x="552" y="487" type="line"/>
			<point x="552" y="483" type="line"/>
			<point x="629" y="483" type="line" smooth="yes"/>
			<point x="639" y="483"/>
			<point x="642" y="479"/>
			<point x="637" y="470" type="curve" smooth="yes"/>
			<point x="601" y="402"/>
			<point x="570" y="336"/>
			<point x="543" y="283" type="curve" smooth="yes"/>
			<point x="478" y="156"/>
			<point x="330" y="-52"/>
			<point x="157" y="-52" type="curve" smooth="yes"/>
			<point x="71" y="-52"/>
			<point x="16" y="-10"/>
			<point x="15" y="56" type="curve" smooth="yes"/>
			<point x="14" y="97"/>
			<point x="36" y="130"/>
			<point x="72" y="146" type="curve"/>
			<point x="69" y="149" type="line"/>
			<point x="31" y="131"/>
			<point x="9" y="98"/>
			<point x="10" y="55" type="curve" smooth="yes"/>
			<point x="11" y="-17"/>
			<point x="70" y="-58"/>
			<point x="171" y="-58" type="curve" smooth="yes"/>
			<point x="371" y="-58"/>
			<point x="485" y="127"/>
			<point x="568" y="291" type="curve" smooth="yes"/>
			<point x="592" y="341"/>
			<point x="620" y="405"/>
		</contour>
	</outline>
</glyph>
<glyph name="G" format="2">
	<advance width="700"/>
	<unicode hex="0047"/>
	<outline>
		<contour>
			<point x="757" y="814" type="curve" smooth="yes"/>
			<point x="757" y="661"/>
			<point x="517" y="483"/>
			<point x="311" y="483" type="curve" smooth="yes"/>
			<point x="219" y="483"/>
			<point x="154" y="510"/>
			<point x="110" y="557" type="curve"/>
			<point x="214" y="744"/>
			<point x="410" y="915"/>
			<point x="608" y="915" type="curve" smooth="yes"/>
			<point x="701" y="915"/>
			<point x="757" y="877"/>
		</contour>
		<contour>
			<point x="53" y="-373" type="curve" smooth="yes"/>
			<point x="-76" y="-373"/>
			<point x="-183" y="-281"/>
			<point x="-183" y="-168" type="curve" smooth="yes"/>
			<point x="-183" y="-60"/>
			<point x="-104" y="27"/>
			<point x="-4" y="27" type="curve" smooth="yes"/>
			<point x="17" y="27"/>
			<point x="38" y="22"/>
			<point x="55" y="13" type="curve"/>
			<point x="57" y="18" type="line"/>
			<point x="39" y="26"/>
			<point x="18" y="30"/>
			<point x="-4" y="30" type="curve" smooth="yes"/>
			<point x="-108" y="30"/>
			<point x="-198" y="-52"/>
			<point x="-198" y="-166" type="curve" smooth="yes"/>
			<point x="-198" y="-285"/>
			<point x="-76" y="-378"/>
			<point x="55" y="-378" type="curve" smooth="yes"/>
			<point x="192" y="-378"/>
			<point x="307" y="-315"/>
			<point x="379" y="-209" type="curve" smooth="yes"/>
			<point x="467" y="-80"/>
			<point x="494" y="52"/>
			<point x="522" y="181" type="curve" smooth="yes"/>
			<point x="543" y="281"/>
			<point x="565" y="379"/>
			<point x="618" y="471" type="curve" smooth="yes"/>
			<point x="648" y="523"/>
			<point x="671" y="548"/>
			<point x="683" y="548" type="curve" smooth="yes"/>
			<point x="691" y="548"/>
			<point x="691" y="535"/>
			<point x="691" y="531" type="curve" smooth="yes"/>
			<point x="691" y="506"/>
			<point x="679" y="467"/>
			<point x="659" y="422" type="curve" smooth="yes"/>
			<point x="592" y="272"/>
			<point x="419" y="52"/>
			<point x="236" y="52" type="curve" smooth="yes"/>
			<point x="105" y="52"/>
			<point x="31" y="163"/>
			<point x="31" y="291" type="curve" smooth="yes"/>
			<point x="31" y="370"/>
			<point x="58" y="462"/>
			<point x="105" y="549" type="curve"/>
			<point x="152" y="505"/>
			<point x="218" y="479"/>
			<point x="312" y="479" type="curve" smooth="yes"/>
			<point x="527" y="479"/>
			<point x="771" y="653"/>
			<point x="771" y="806" type="curve" smooth="yes"/>
			<point x="771" y="875"/>
			<point x="707" y="918"/>
			<point x="604" y="918" type="curve" smooth="yes"/>
			<point x="395" y="918"/>
			<point x="197" y="745"/>
			<point x="96" y="572" type="curve"/>
			<point x="68" y="608"/>
			<point x="52" y="653"/>
			<point x="52" y="705" type="curve" smooth="yes"/>
			<point x="52" y="809"/>
			<point x="120" y="904"/>
			<point x="224" y="904" type="curve" smooth="yes"/>
			<point x="258" y="904"/>
			<point x="282" y="895"/>
			<point x="294" y="878" type="curve"/>
			<point x="297" y="878" type="line"/>
			<point x="283" y="898"/>
			<point x="256" y="908"/>
			<point x="220" y="908" type="curve" smooth="yes"/>
			<point x="116" y="908"/>
			<point x="37" y="815"/>
			<point x="37" y="708" type="curve" smooth="yes"/>
			<point x="37" y="651"/>
			<point x="58" y="602"/>
			<point x="91" y="564" type="curve"/>
			<point x="42" y="477"/>
			<point x="15" y="386"/>
			<point x="15" y="307" type="curve" smooth="yes"/>
			<point x="15" y="175"/>
			<point x="82" y="45"/>
			<point x="231" y="45" type="curve" smooth="yes"/>
			<point x="419" y="45"/>
			<point x="590" y="264"/>
			<point x="662" y="417" type="curve" smooth="yes"/>
			<point x="686" y="468"/>
			<point x="701" y="513"/>
			<point x="701" y="542" type="curve" smooth="yes"/>
			<point x="701" y="557"/>
			<point x="697" y="564"/>
			<point x="689" y="564" type="curve" smooth="yes"/>
			<point x="673" y="564"/>
			<point x="642" y="531"/>
			<point x="611" y="472" type="curve" smooth="yes"/>
			<point x="564" y="382"/>
			<point x="540" y="289"/>
			<point x="517" y="195" type="curve" smooth="yes"/>
			<point x="484" y="65"/>
			<point x="454" y="-68"/>
			<point x="363" y="-198" type="curve" smooth="yes"/>
			<point x="291" y="-301"/>
			<point x="185" y="-373"/>
		</contour>
	</outline>
</glyph>
<glyph name="H" format="2">
	<advance width="950"/>
	<unicode hex="0048"/>
	<outline>
		<contour>
			<point x="341" y="414" type="line"/>
			<point x="400" y="414" type="line" smooth="yes"/>
			<point x="408" y="414"/>
			<point x="410" y="411"/>
			<point x="406" y="404" type="curve" smooth="yes"/>
			<point x="354" y="307" type="line" smooth="yes"/>
			<point x="291" y="188"/>
			<point x="156" y="-13"/>
			<point x="-5" y="-13" type="curve" smooth="yes"/>
			<point x="-46" y="-13"/>
			<point x="-118" y="14"/>
			<point x="-118" y="83" type="curve" smooth="yes"/>
			<point x="-118" y="97"/>
			<point x="-115" y="111"/>
			<point x="-109" y="128" type="curve"/>
			<point x="-110" y="129" type="line"/>
			<point x="-118" y="109"/>
			<point x="-122" y="90"/>
			<point x="-122" y="75" type="curve" smooth="yes"/>
			<point x="-122" y="3"/>
			<point x="-46" y="-20"/>
			<point x="-1" y="-20" type="curve" smooth="yes"/>
			<point x="189" y="-20"/>
			<point x="303" y="163"/>
			<point x="383" y="316" type="curve"/>
			<point x="426" y="404" type="line" smooth="yes"/>
			<point x="429" y="411"/>
			<point x="434" y="414"/>
			<point x="442" y="414" type="curve" smooth="yes"/>
			<point x="810" y="414" type="line" smooth="yes"/>
			<point x="818" y="414"/>
			<point x="819" y="411"/>
			<point x="816" y="404" type="curve" smooth="yes"/>
			<point x="786" y="338"/>
			<point x="758" y="273"/>
			<point x="734" y="208" type="curve" smooth="yes"/>
			<point x="705" y="130"/>
			<point x="677" y="39"/>
			<point x="677" y="-36" type="curve" smooth="yes"/>
			<point x="677" y="-135"/>
			<point x="724" y="-194"/>
			<point x="801" y="-194" type="curve" smooth="yes"/>
			<point x="856" y="-194"/>
			<point x="903" y="-154"/>
			<point x="903" y="-108" type="curve" smooth="yes"/>
			<point x="903" y="-87"/>
			<point x="891" y="-67"/>
			<point x="875" y="-61" type="curve"/>
			<point x="874" y="-63" type="line"/>
			<point x="888" y="-70"/>
			<point x="896" y="-84"/>
			<point x="896" y="-100" type="curve" smooth="yes"/>
			<point x="896" y="-148"/>
			<point x="852" y="-190"/>
			<point x="802" y="-190" type="curve" smooth="yes"/>
			<point x="734" y="-190"/>
			<point x="692" y="-133"/>
			<point x="692" y="-41" type="curve" smooth="yes"/>
			<point x="692" y="29"/>
			<point x="717" y="117"/>
			<point x="748" y="195" type="curve" smooth="yes"/>
			<point x="776" y="264"/>
			<point x="806" y="334"/>
			<point x="838" y="404" type="curve" smooth="yes"/>
			<point x="841" y="411"/>
			<point x="846" y="414"/>
			<point x="854" y="414" type="curve" smooth="yes"/>
			<point x="915" y="414" type="line"/>
			<point x="915" y="418" type="line"/>
			<point x="855" y="418" type="line" smooth="yes"/>
			<point x="847" y="418"/>
			<point x="846" y="421"/>
			<point x="849" y="428" type="curve" smooth="yes"/>
			<point x="986" y="714"/>
			<point x="1156" y="959"/>
			<point x="1325" y="959" type="curve" smooth="yes"/>
			<point x="1371" y="959"/>
			<point x="1416" y="936"/>
			<point x="1426" y="895" type="curve"/>
			<point x="1428" y="895" type="line"/>
			<point x="1430" y="901"/>
			<point x="1431" y="906"/>
			<point x="1431" y="911" type="curve" smooth="yes"/>
			<point x="1431" y="948"/>
			<point x="1376" y="964"/>
			<point x="1332" y="964" type="curve" smooth="yes"/>
			<point x="1153" y="964"/>
			<point x="969" y="715"/>
			<point x="828" y="428" type="curve" smooth="yes"/>
			<point x="825" y="421"/>
			<point x="820" y="418"/>
			<point x="812" y="418" type="curve" smooth="yes"/>
			<point x="444" y="418" type="line" smooth="yes"/>
			<point x="436" y="418"/>
			<point x="435" y="421"/>
			<point x="438" y="428" type="curve" smooth="yes"/>
			<point x="494" y="544"/>
			<point x="589" y="733"/>
			<point x="686" y="793" type="curve" smooth="yes"/>
			<point x="720" y="815"/>
			<point x="770" y="825"/>
			<point x="770" y="858" type="curve" smooth="yes"/>
			<point x="770" y="934"/>
			<point x="589" y="976"/>
			<point x="458" y="976" type="curve" smooth="yes"/>
			<point x="217" y="976"/>
			<point x="-50" y="835"/>
			<point x="-50" y="595" type="curve" smooth="yes"/>
			<point x="-50" y="497"/>
			<point x="8" y="387"/>
			<point x="134" y="387" type="curve" smooth="yes"/>
			<point x="262" y="387"/>
			<point x="387" y="499"/>
			<point x="387" y="632" type="curve" smooth="yes"/>
			<point x="387" y="716"/>
			<point x="326" y="760"/>
			<point x="258" y="760" type="curve" smooth="yes"/>
			<point x="171" y="760"/>
			<point x="88" y="688"/>
			<point x="88" y="616" type="curve" smooth="yes"/>
			<point x="88" y="595"/>
			<point x="96" y="578"/>
			<point x="105" y="559" type="curve"/>
			<point x="107" y="558"/>
			<point x="109" y="558"/>
			<point x="109" y="561" type="curve"/>
			<point x="102" y="578"/>
			<point x="98" y="595"/>
			<point x="98" y="613" type="curve" smooth="yes"/>
			<point x="98" y="685"/>
			<point x="171" y="755"/>
			<point x="257" y="755" type="curve" smooth="yes"/>
			<point x="318" y="755"/>
			<point x="373" y="717"/>
			<point x="373" y="633" type="curve" smooth="yes"/>
			<point x="373" y="502"/>
			<point x="260" y="391"/>
			<point x="143" y="391" type="curve" smooth="yes"/>
			<point x="14" y="391"/>
			<point x="-38" y="487"/>
			<point x="-38" y="577" type="curve" smooth="yes"/>
			<point x="-38" y="771"/>
			<point x="164" y="971"/>
			<point x="458" y="971" type="curve" smooth="yes"/>
			<point x="597" y="971"/>
			<point x="759" y="926"/>
			<point x="759" y="858" type="curve" smooth="yes"/>
			<point x="759" y="828"/>
			<point x="714" y="815"/>
			<point x="685" y="798" type="curve" smooth="yes"/>
			<point x="572" y="731"/>
			<point x="482" y="545"/>
			<point x="418" y="428" type="curve" smooth="yes"/>
			<point x="414" y="421"/>
			<point x="410" y="418"/>
			<point x="402" y="418" type="curve" smooth="yes"/>
			<point x="343" y="418" type="line"/>
		</contour>
	</outline>
</glyph>
<glyph name="I" format="2">
	<advance width="569"/>
	<unicode hex="0049"/>
	<anchor x="674" y="998" name="top"/>
	<outline>
		<contour>
			<point x="-27" y="-48" type="curve" smooth="yes"/>
			<point x="149" y="-48"/>
			<point x="243" y="94"/>
			<point x="326" y="239" type="curve"/>
			<point x="449" y="254"/>
			<point x="557" y="361"/>
			<point x="557" y="489" type="curve" smooth="yes"/>
			<point x="557" y="533"/>
			<point x="544" y="574"/>
			<point x="511" y="604" type="curve"/>
			<point x="559" y="684"/>
			<point x="612" y="752"/>
			<point x="677" y="773" type="curve" smooth="yes"/>
			<point x="710" y="784"/>
			<point x="766" y="810"/>
			<point x="766" y="851" type="curve" smooth="yes"/>
			<point x="765" y="899"/>
			<point x="678" y="936"/>
			<point x="567" y="936" type="curve" smooth="yes"/>
			<point x="291" y="936"/>
			<point x="82" y="686"/>
			<point x="82" y="482" type="curve" smooth="yes"/>
			<point x="82" y="356"/>
			<point x="159" y="237"/>
			<point x="296" y="237" type="curve" smooth="yes"/>
			<point x="301" y="237" type="line"/>
			<point x="224" y="109"/>
			<point x="108" y="-42"/>
			<point x="-40" y="-42" type="curve" smooth="yes"/>
			<point x="-110" y="-42"/>
			<point x="-179" y="-6"/>
			<point x="-179" y="72" type="curve" smooth="yes"/>
			<point x="-179" y="111"/>
			<point x="-162" y="140"/>
			<point x="-131" y="156" type="curve"/>
			<point x="-130" y="157"/>
			<point x="-130" y="158"/>
			<point x="-133" y="158" type="curve"/>
			<point x="-171" y="139"/>
			<point x="-190" y="108"/>
			<point x="-190" y="67" type="curve" smooth="yes"/>
			<point x="-190" y="-21"/>
			<point x="-99" y="-48"/>
		</contour>
		<contour>
			<point x="576" y="931" type="curve" smooth="yes"/>
			<point x="676" y="931"/>
			<point x="751" y="895"/>
			<point x="752" y="847" type="curve" smooth="yes"/>
			<point x="752" y="811"/>
			<point x="708" y="792"/>
			<point x="677" y="780" type="curve" smooth="yes"/>
			<point x="612" y="756"/>
			<point x="556" y="688"/>
			<point x="504" y="610" type="curve"/>
			<point x="478" y="632"/>
			<point x="443" y="643"/>
			<point x="408" y="643" type="curve" smooth="yes"/>
			<point x="314" y="643"/>
			<point x="233" y="568"/>
			<point x="235" y="490" type="curve" smooth="yes"/>
			<point x="235" y="469"/>
			<point x="243" y="452"/>
			<point x="258" y="438" type="curve"/>
			<point x="260" y="437"/>
			<point x="262" y="438"/>
			<point x="262" y="440" type="curve"/>
			<point x="248" y="452"/>
			<point x="244" y="469"/>
			<point x="244" y="487" type="curve" smooth="yes"/>
			<point x="243" y="564"/>
			<point x="317" y="638"/>
			<point x="408" y="638" type="curve" smooth="yes"/>
			<point x="442" y="638"/>
			<point x="476" y="627"/>
			<point x="500" y="603" type="curve"/>
			<point x="439" y="506"/>
			<point x="387" y="392"/>
			<point x="349" y="321" type="curve" smooth="yes"/>
			<point x="336" y="297"/>
			<point x="321" y="269"/>
			<point x="304" y="241" type="curve"/>
			<point x="297" y="241" type="line" smooth="yes"/>
			<point x="166" y="241"/>
			<point x="91" y="346"/>
			<point x="91" y="469" type="curve" smooth="yes"/>
			<point x="91" y="675"/>
			<point x="305" y="931"/>
		</contour>
		<contour>
			<point x="328" y="243" type="curve"/>
			<point x="378" y="335" type="line" smooth="yes"/>
			<point x="413" y="399"/>
			<point x="455" y="505"/>
			<point x="506" y="597" type="curve"/>
			<point x="534" y="569"/>
			<point x="545" y="530"/>
			<point x="545" y="491" type="curve" smooth="yes"/>
			<point x="547" y="364"/>
			<point x="446" y="258"/>
		</contour>
	</outline>
</glyph>
<glyph name="J" format="2">
	<advance width="546"/>
	<unicode hex="004A"/>
	<outline>
		<contour>
			<point x="-160" y="-156" type="curve" smooth="yes"/>
			<point x="53" y="-156"/>
			<point x="179" y="52"/>
			<point x="265" y="227" type="curve" smooth="yes"/>
			<point x="267" y="230"/>
			<point x="268" y="235"/>
			<point x="270" y="238" type="curve"/>
			<point x="400" y="251"/>
			<point x="520" y="366"/>
			<point x="520" y="501" type="curve" smooth="yes"/>
			<point x="520" y="545"/>
			<point x="505" y="588"/>
			<point x="469" y="615" type="curve"/>
			<point x="523" y="694"/>
			<point x="585" y="753"/>
			<point x="654" y="773" type="curve" smooth="yes"/>
			<point x="691" y="783"/>
			<point x="748" y="811"/>
			<point x="747" y="854" type="curve" smooth="yes"/>
			<point x="746" y="909"/>
			<point x="654" y="936"/>
			<point x="553" y="936" type="curve" smooth="yes"/>
			<point x="272" y="936"/>
			<point x="46" y="676"/>
			<point x="46" y="470" type="curve" smooth="yes"/>
			<point x="46" y="348"/>
			<point x="111" y="237"/>
			<point x="246" y="237" type="curve" smooth="yes"/>
			<point x="247" y="237"/>
			<point x="249" y="237"/>
			<point x="250" y="237" type="curve"/>
			<point x="238" y="214" type="line" smooth="yes"/>
			<point x="167" y="78"/>
			<point x="12" y="-150"/>
			<point x="-173" y="-150" type="curve" smooth="yes"/>
			<point x="-244" y="-150"/>
			<point x="-310" y="-115"/>
			<point x="-310" y="-36" type="curve" smooth="yes"/>
			<point x="-310" y="3"/>
			<point x="-291" y="32"/>
			<point x="-260" y="48" type="curve"/>
			<point x="-259" y="49"/>
			<point x="-259" y="50"/>
			<point x="-262" y="50" type="curve"/>
			<point x="-300" y="31"/>
			<point x="-322" y="-1"/>
			<point x="-322" y="-41" type="curve" smooth="yes"/>
			<point x="-322" y="-130"/>
			<point x="-232" y="-156"/>
		</contour>
		<contour>
			<point x="562" y="931" type="curve" smooth="yes"/>
			<point x="661" y="931"/>
			<point x="733" y="902"/>
			<point x="733" y="849" type="curve" smooth="yes"/>
			<point x="733" y="812"/>
			<point x="688" y="791"/>
			<point x="655" y="780" type="curve" smooth="yes"/>
			<point x="586" y="758"/>
			<point x="521" y="696"/>
			<point x="464" y="618" type="curve"/>
			<point x="439" y="634"/>
			<point x="409" y="643"/>
			<point x="379" y="643" type="curve" smooth="yes"/>
			<point x="284" y="643"/>
			<point x="195" y="566"/>
			<point x="197" y="487" type="curve" smooth="yes"/>
			<point x="197" y="469"/>
			<point x="206" y="453"/>
			<point x="218" y="438" type="curve"/>
			<point x="220" y="437"/>
			<point x="222" y="437"/>
			<point x="222" y="440" type="curve"/>
			<point x="211" y="453"/>
			<point x="206" y="468"/>
			<point x="206" y="484" type="curve" smooth="yes"/>
			<point x="204" y="562"/>
			<point x="286" y="638"/>
			<point x="378" y="638" type="curve" smooth="yes"/>
			<point x="407" y="638"/>
			<point x="436" y="630"/>
			<point x="460" y="613" type="curve"/>
			<point x="375" y="497"/>
			<point x="305" y="348"/>
			<point x="252" y="241" type="curve"/>
			<point x="247" y="241" type="line" smooth="yes"/>
			<point x="119" y="241"/>
			<point x="55" y="338"/>
			<point x="55" y="456" type="curve" smooth="yes"/>
			<point x="55" y="661"/>
			<point x="285" y="931"/>
		</contour>
		<contour>
			<point x="465" y="609" type="curve"/>
			<point x="496" y="583"/>
			<point x="508" y="542"/>
			<point x="508" y="502" type="curve" smooth="yes"/>
			<point x="508" y="368"/>
			<point x="396" y="256"/>
			<point x="272" y="242" type="curve"/>
			<point x="322" y="344"/>
			<point x="385" y="493"/>
		</contour>
	</outline>
</glyph>
<glyph name="K" format="2">
	<advance width="914"/>
	<unicode hex="004B"/>
	<outline>
		<contour>
			<point x="101" y="-19" type="curve" smooth="yes"/>
			<point x="291" y="-19"/>
			<point x="395" y="162"/>
			<point x="471" y="316" type="curve" smooth="yes"/>
			<point x="496" y="367"/>
			<point x="525" y="434"/>
			<point x="560" y="501" type="curve" smooth="yes"/>
			<point x="625" y="627"/>
			<point x="725" y="755"/>
			<point x="784" y="793" type="curve" smooth="yes"/>
			<point x="818" y="815"/>
			<point x="868" y="825"/>
			<point x="868" y="857" type="curve" smooth="yes"/>
			<point x="868" y="954"/>
			<point x="609" y="976"/>
			<point x="547" y="976" type="curve" smooth="yes"/>
			<point x="248" y="976"/>
			<point x="2" y="774"/>
			<point x="2" y="527" type="curve" smooth="yes"/>
			<point x="2" y="415"/>
			<point x="71" y="313"/>
			<point x="190" y="313" type="curve" smooth="yes"/>
			<point x="318" y="313"/>
			<point x="441" y="425"/>
			<point x="439" y="558" type="curve" smooth="yes"/>
			<point x="437" y="642"/>
			<point x="376" y="686"/>
			<point x="308" y="686" type="curve" smooth="yes"/>
			<point x="229" y="686"/>
			<point x="155" y="614"/>
			<point x="155" y="542" type="curve" smooth="yes"/>
			<point x="155" y="525"/>
			<point x="163" y="512"/>
			<point x="173" y="497" type="curve"/>
			<point x="175" y="496"/>
			<point x="177" y="497"/>
			<point x="177" y="499" type="curve"/>
			<point x="169" y="512"/>
			<point x="165" y="525"/>
			<point x="165" y="539" type="curve" smooth="yes"/>
			<point x="165" y="611"/>
			<point x="229" y="681"/>
			<point x="307" y="681" type="curve" smooth="yes"/>
			<point x="368" y="681"/>
			<point x="423" y="643"/>
			<point x="425" y="559" type="curve" smooth="yes"/>
			<point x="427" y="428"/>
			<point x="316" y="317"/>
			<point x="199" y="317" type="curve" smooth="yes"/>
			<point x="81" y="317"/>
			<point x="13" y="401"/>
			<point x="13" y="514" type="curve" smooth="yes"/>
			<point x="13" y="761"/>
			<point x="258" y="971"/>
			<point x="548" y="971" type="curve" smooth="yes"/>
			<point x="605" y="971"/>
			<point x="857" y="950"/>
			<point x="857" y="857" type="curve" smooth="yes"/>
			<point x="857" y="828"/>
			<point x="812" y="815"/>
			<point x="783" y="798" type="curve" smooth="yes"/>
			<point x="715" y="758"/>
			<point x="613" y="629"/>
			<point x="543" y="501" type="curve" smooth="yes"/>
			<point x="505" y="432"/>
			<point x="469" y="361"/>
			<point x="442" y="307" type="curve" smooth="yes"/>
			<point x="382" y="188"/>
			<point x="248" y="-13"/>
			<point x="87" y="-13" type="curve" smooth="yes"/>
			<point x="15" y="-13"/>
			<point x="-48" y="23"/>
			<point x="-48" y="102" type="curve" smooth="yes"/>
			<point x="-48" y="131"/>
			<point x="-37" y="155"/>
			<point x="-18" y="171" type="curve" smooth="yes"/>
			<point x="-12" y="177"/>
			<point x="-6" y="181"/>
			<point x="2" y="185" type="curve"/>
			<point x="3" y="186"/>
			<point x="3" y="187"/>
			<point x="0" y="187" type="curve"/>
			<point x="-37" y="169"/>
			<point x="-60" y="138"/>
			<point x="-60" y="97" type="curve" smooth="yes"/>
			<point x="-60" y="6"/>
			<point x="26" y="-19"/>
		</contour>
		<contour>
			<point x="619" y="373" type="curve"/>
			<point x="619" y="367" type="line"/>
			<point x="678" y="345"/>
			<point x="682" y="223"/>
			<point x="688" y="93" type="curve" smooth="yes"/>
			<point x="694" y="-34"/>
			<point x="700" y="-170"/>
			<point x="761" y="-231" type="curve" smooth="yes"/>
			<point x="776" y="-246"/>
			<point x="801" y="-262"/>
			<point x="829" y="-262" type="curve" smooth="yes"/>
			<point x="848" y="-262"/>
			<point x="870" y="-255"/>
			<point x="892" y="-235" type="curve"/>
			<point x="890" y="-233" type="line"/>
			<point x="874" y="-249"/>
			<point x="852" y="-257"/>
			<point x="830" y="-257" type="curve" smooth="yes"/>
			<point x="805" y="-257"/>
			<point x="780" y="-247"/>
			<point x="763" y="-227" type="curve" smooth="yes"/>
			<point x="710" y="-164"/>
			<point x="711" y="-38"/>
			<point x="707" y="88" type="curve" smooth="yes"/>
			<point x="703" y="202"/>
			<point x="699" y="315"/>
			<point x="635" y="362" type="curve" smooth="yes"/>
			<point x="630" y="366"/>
			<point x="631" y="370"/>
			<point x="640" y="372" type="curve" smooth="yes"/>
			<point x="729" y="397"/>
			<point x="828" y="501"/>
			<point x="930" y="610" type="curve" smooth="yes"/>
			<point x="1058" y="745"/>
			<point x="1193" y="889"/>
			<point x="1327" y="889" type="curve" smooth="yes"/>
			<point x="1374" y="889"/>
			<point x="1417" y="867"/>
			<point x="1417" y="832" type="curve" smooth="yes"/>
			<point x="1417" y="828"/>
			<point x="1416" y="823"/>
			<point x="1415" y="818" type="curve"/>
			<point x="1420" y="817" type="line"/>
			<point x="1421" y="822"/>
			<point x="1422" y="826"/>
			<point x="1422" y="831" type="curve" smooth="yes"/>
			<point x="1422" y="869"/>
			<point x="1373" y="907"/>
			<point x="1316" y="907" type="curve" smooth="yes"/>
			<point x="1185" y="907"/>
			<point x="1053" y="747"/>
			<point x="928" y="614" type="curve" smooth="yes"/>
			<point x="820" y="500"/>
			<point x="713" y="386"/>
		</contour>
	</outline>
</glyph>
<glyph name="M" format="2">
	<advance width="1241"/>
	<unicode hex="004D"/>
	<outline>
		<contour>
			<point x="832" y="925" type="curve"/>
			<point x="806" y="860"/>
			<point x="761" y="831"/>
			<point x="682" y="831" type="curve" smooth="yes"/>
			<point x="583" y="831"/>
			<point x="506" y="876"/>
			<point x="384" y="876" type="curve" smooth="yes"/>
			<point x="159" y="876"/>
			<point x="-33" y="697"/>
			<point x="-33" y="488" type="curve" smooth="yes"/>
			<point x="-33" y="350"/>
			<point x="63" y="247"/>
			<point x="192" y="247" type="curve" smooth="yes"/>
			<point x="343" y="247"/>
			<point x="485" y="385"/>
			<point x="485" y="531" type="curve" smooth="yes"/>
			<point x="485" y="624"/>
			<point x="427" y="688"/>
			<point x="343" y="688" type="curve" smooth="yes"/>
			<point x="245" y="688"/>
			<point x="151" y="601"/>
			<point x="151" y="511" type="curve" smooth="yes"/>
			<point x="151" y="490"/>
			<point x="157" y="475"/>
			<point x="172" y="454" type="curve"/>
			<point x="175" y="452"/>
			<point x="176" y="452"/>
			<point x="177" y="456" type="curve"/>
			<point x="167" y="473"/>
			<point x="162" y="489"/>
			<point x="162" y="509" type="curve" smooth="yes"/>
			<point x="162" y="599"/>
			<point x="247" y="682"/>
			<point x="340" y="682" type="curve" smooth="yes"/>
			<point x="418" y="682"/>
			<point x="468" y="624"/>
			<point x="468" y="534" type="curve" smooth="yes"/>
			<point x="468" y="385"/>
			<point x="337" y="252"/>
			<point x="192" y="252" type="curve" smooth="yes"/>
			<point x="70" y="252"/>
			<point x="-18" y="343"/>
			<point x="-18" y="471" type="curve" smooth="yes"/>
			<point x="-18" y="683"/>
			<point x="174" y="869"/>
			<point x="393" y="869" type="curve" smooth="yes"/>
			<point x="508" y="869"/>
			<point x="577" y="826"/>
			<point x="676" y="826" type="curve" smooth="yes"/>
			<point x="758" y="826"/>
			<point x="809" y="855"/>
			<point x="839" y="919" type="curve"/>
			<point x="840" y="923"/>
			<point x="837" y="928"/>
		</contour>
		<contour>
			<point x="43" y="-53" type="curve" smooth="yes"/>
			<point x="-39" y="-53"/>
			<point x="-90" y="-9"/>
			<point x="-90" y="59" type="curve" smooth="yes"/>
			<point x="-90" y="98"/>
			<point x="-71" y="130"/>
			<point x="-40" y="145" type="curve"/>
			<point x="-39" y="146"/>
			<point x="-39" y="147"/>
			<point x="-42" y="147" type="curve"/>
			<point x="-80" y="129"/>
			<point x="-102" y="97"/>
			<point x="-102" y="54" type="curve" smooth="yes"/>
			<point x="-102" y="-18"/>
			<point x="-44" y="-59"/>
			<point x="57" y="-59" type="curve" smooth="yes"/>
			<point x="286" y="-59"/>
			<point x="414" y="168"/>
			<point x="525" y="347" type="curve" smooth="yes"/>
			<point x="595" y="460"/>
			<point x="725" y="724"/>
			<point x="859" y="818" type="curve"/>
			<point x="817" y="741"/>
			<point x="810" y="607"/>
			<point x="810" y="502" type="curve" smooth="yes"/>
			<point x="810" y="437" type="line"/>
			<point x="732" y="346"/>
			<point x="541" y="109"/>
			<point x="541" y="-19" type="curve" smooth="yes"/>
			<point x="541" y="-75"/>
			<point x="568" y="-105"/>
			<point x="605" y="-105" type="curve" smooth="yes"/>
			<point x="686" y="-105"/>
			<point x="801" y="45"/>
			<point x="819" y="227" type="curve" smooth="yes"/>
			<point x="823" y="265"/>
			<point x="824" y="322"/>
			<point x="824" y="383" type="curve" smooth="yes"/>
			<point x="824" y="403"/>
			<point x="824" y="424"/>
			<point x="824" y="444" type="curve"/>
			<point x="1027" y="684"/>
			<point x="1292" y="914"/>
			<point x="1415" y="914" type="curve" smooth="yes"/>
			<point x="1423" y="914"/>
			<point x="1426" y="911"/>
			<point x="1426" y="906" type="curve" smooth="yes"/>
			<point x="1426" y="887"/>
			<point x="1385" y="847"/>
			<point x="1373" y="835" type="curve" smooth="yes"/>
			<point x="1192" y="654"/>
			<point x="952" y="247"/>
			<point x="952" y="-35" type="curve" smooth="yes"/>
			<point x="952" y="-121"/>
			<point x="989" y="-194"/>
			<point x="1077" y="-194" type="curve" smooth="yes"/>
			<point x="1166" y="-194"/>
			<point x="1193" y="-130"/>
			<point x="1193" y="-101" type="curve" smooth="yes"/>
			<point x="1193" y="-89"/>
			<point x="1188" y="-62"/>
			<point x="1165" y="-53" type="curve"/>
			<point x="1164" y="-53"/>
			<point x="1164" y="-54"/>
			<point x="1164" y="-55" type="curve"/>
			<point x="1182" y="-65"/>
			<point x="1186" y="-83"/>
			<point x="1186" y="-93" type="curve" smooth="yes"/>
			<point x="1186" y="-121"/>
			<point x="1161" y="-190"/>
			<point x="1077" y="-190" type="curve" smooth="yes"/>
			<point x="1005" y="-190"/>
			<point x="972" y="-122"/>
			<point x="972" y="-41" type="curve" smooth="yes"/>
			<point x="972" y="221"/>
			<point x="1211" y="666"/>
			<point x="1379" y="834" type="curve" smooth="yes"/>
			<point x="1392" y="847"/>
			<point x="1447" y="896"/>
			<point x="1447" y="915" type="curve" smooth="yes"/>
			<point x="1447" y="923"/>
			<point x="1442" y="927"/>
			<point x="1432" y="927" type="curve" smooth="yes"/>
			<point x="1301" y="927"/>
			<point x="1032" y="694"/>
			<point x="824" y="453" type="curve"/>
			<point x="823" y="493"/>
			<point x="823" y="532"/>
			<point x="823" y="570" type="curve" smooth="yes"/>
			<point x="823" y="664"/>
			<point x="836" y="766"/>
			<point x="869" y="825" type="curve"/>
			<point x="884" y="834"/>
			<point x="899" y="842"/>
			<point x="914" y="847" type="curve" smooth="yes"/>
			<point x="939" y="856"/>
			<point x="952" y="867"/>
			<point x="952" y="874" type="curve" smooth="yes"/>
			<point x="952" y="880"/>
			<point x="948" y="883"/>
			<point x="941" y="883" type="curve" smooth="yes"/>
			<point x="905" y="883"/>
			<point x="881" y="855"/>
			<point x="864" y="826" type="curve"/>
			<point x="721" y="728"/>
			<point x="572" y="453"/>
			<point x="495" y="331" type="curve" smooth="yes"/>
			<point x="407" y="191"/>
			<point x="240" y="-53"/>
		</contour>
		<contour>
			<point x="925" y="875" type="curve" smooth="yes"/>
			<point x="928" y="875"/>
			<point x="930" y="874"/>
			<point x="931" y="872" type="curve"/>
			<point x="932" y="871"/>
			<point x="932" y="869"/>
			<point x="932" y="868" type="curve" smooth="yes"/>
			<point x="932" y="864"/>
			<point x="925" y="858"/>
			<point x="914" y="853" type="curve" smooth="yes"/>
			<point x="901" y="848"/>
			<point x="888" y="841"/>
			<point x="874" y="833" type="curve"/>
			<point x="884" y="850"/>
			<point x="903" y="875"/>
		</contour>
		<contour>
			<point x="810" y="428" type="curve"/>
			<point x="810" y="362"/>
			<point x="806" y="292"/>
			<point x="805" y="281" type="curve" smooth="yes"/>
			<point x="793" y="81"/>
			<point x="678" y="-98"/>
			<point x="599" y="-98" type="curve" smooth="yes"/>
			<point x="570" y="-98"/>
			<point x="553" y="-79"/>
			<point x="553" y="-32" type="curve" smooth="yes"/>
			<point x="553" y="103"/>
			<point x="729" y="331"/>
		</contour>
	</outline>
</glyph>
<glyph name="N" format="2">
	<advance width="1069"/>
	<unicode hex="004E"/>
	<anchor x="1107" y="936" name="top"/>
	<outline>
		<contour>
			<point x="890" y="183" type="curve" smooth="yes"/>
			<point x="1030" y="523"/>
			<point x="1286" y="913"/>
			<point x="1483" y="913" type="curve" smooth="yes"/>
			<point x="1548" y="913"/>
			<point x="1571" y="881"/>
			<point x="1581" y="841" type="curve"/>
			<point x="1584" y="841" type="line"/>
			<point x="1586" y="847"/>
			<point x="1587" y="852"/>
			<point x="1587" y="857" type="curve"/>
			<point x="1586" y="895"/>
			<point x="1533" y="924"/>
			<point x="1464" y="924" type="curve" smooth="yes"/>
			<point x="1268" y="924"/>
			<point x="1021" y="524"/>
			<point x="886" y="187" type="curve" smooth="yes"/>
			<point x="864" y="133"/>
			<point x="844" y="77"/>
			<point x="830" y="28" type="curve" smooth="yes"/>
			<point x="825" y="11"/>
			<point x="820" y="-6"/>
			<point x="820" y="-17" type="curve" smooth="yes"/>
			<point x="820" y="-37"/>
			<point x="825" y="-46"/>
			<point x="835" y="-46" type="curve" smooth="yes"/>
			<point x="871" y="-46"/>
			<point x="901" y="27"/>
			<point x="901" y="119" type="curve" smooth="yes"/>
			<point x="901" y="306"/>
			<point x="786" y="479"/>
			<point x="785" y="667" type="curve" smooth="yes"/>
			<point x="785" y="732"/>
			<point x="797" y="781"/>
			<point x="831" y="822" type="curve"/>
			<point x="845" y="833"/>
			<point x="860" y="841"/>
			<point x="876" y="847" type="curve" smooth="yes"/>
			<point x="897" y="855"/>
			<point x="912" y="866"/>
			<point x="911" y="874" type="curve"/>
			<point x="911" y="878"/>
			<point x="908" y="880"/>
			<point x="901" y="880" type="curve" smooth="yes"/>
			<point x="862" y="880"/>
			<point x="827" y="843"/>
			<point x="809" y="811" type="curve"/>
			<point x="686" y="702"/>
			<point x="607" y="446"/>
			<point x="548" y="329" type="curve" smooth="yes"/>
			<point x="476" y="187"/>
			<point x="333" y="-53"/>
			<point x="134" y="-53" type="curve" smooth="yes"/>
			<point x="52" y="-53"/>
			<point x="1" y="-9"/>
			<point x="0" y="59" type="curve" smooth="yes"/>
			<point x="0" y="98"/>
			<point x="18" y="130"/>
			<point x="49" y="145" type="curve"/>
			<point x="50" y="146"/>
			<point x="50" y="147"/>
			<point x="47" y="147" type="curve"/>
			<point x="9" y="129"/>
			<point x="-12" y="97"/>
			<point x="-12" y="54" type="curve" smooth="yes"/>
			<point x="-11" y="-18"/>
			<point x="47" y="-59"/>
			<point x="148" y="-59" type="curve" smooth="yes"/>
			<point x="377" y="-59"/>
			<point x="489" y="165"/>
			<point x="577" y="347" type="curve" smooth="yes"/>
			<point x="629" y="454"/>
			<point x="693" y="694"/>
			<point x="804" y="801" type="curve"/>
			<point x="781" y="758"/>
			<point x="773" y="703"/>
			<point x="773" y="649" type="curve" smooth="yes"/>
			<point x="773" y="461"/>
			<point x="881" y="286"/>
			<point x="881" y="99" type="curve" smooth="yes"/>
			<point x="881" y="38"/>
			<point x="857" y="-33"/>
			<point x="836" y="-33" type="curve" smooth="yes"/>
			<point x="830" y="-33"/>
			<point x="826" y="-26"/>
			<point x="826" y="-15" type="curve" smooth="yes"/>
			<point x="826" y="-7"/>
			<point x="828" y="6"/>
			<point x="834" y="26" type="curve" smooth="yes"/>
			<point x="847" y="70"/>
			<point x="870" y="135"/>
		</contour>
		<contour>
			<point x="886" y="872" type="curve" smooth="yes"/>
			<point x="890" y="872"/>
			<point x="893" y="870"/>
			<point x="893" y="868" type="curve"/>
			<point x="894" y="863"/>
			<point x="885" y="857"/>
			<point x="876" y="853" type="curve" smooth="yes"/>
			<point x="862" y="847"/>
			<point x="849" y="840"/>
			<point x="836" y="831" type="curve"/>
			<point x="849" y="848"/>
			<point x="862" y="872"/>
		</contour>
		<contour>
			<point x="812" y="919" type="curve"/>
			<point x="805" y="925" type="line"/>
			<point x="779" y="860"/>
			<point x="734" y="831"/>
			<point x="655" y="831" type="curve" smooth="yes"/>
			<point x="553" y="831"/>
			<point x="500" y="870"/>
			<point x="375" y="870" type="curve" smooth="yes"/>
			<point x="154" y="870"/>
			<point x="-35" y="694"/>
			<point x="-35" y="488" type="curve" smooth="yes"/>
			<point x="-35" y="350"/>
			<point x="61" y="247"/>
			<point x="190" y="247" type="curve" smooth="yes"/>
			<point x="341" y="247"/>
			<point x="483" y="385"/>
			<point x="483" y="531" type="curve" smooth="yes"/>
			<point x="483" y="624"/>
			<point x="425" y="688"/>
			<point x="341" y="688" type="curve" smooth="yes"/>
			<point x="243" y="688"/>
			<point x="149" y="601"/>
			<point x="149" y="511" type="curve" smooth="yes"/>
			<point x="149" y="490"/>
			<point x="155" y="475"/>
			<point x="170" y="454" type="curve"/>
			<point x="173" y="452"/>
			<point x="174" y="452"/>
			<point x="175" y="456" type="curve"/>
			<point x="165" y="473"/>
			<point x="160" y="489"/>
			<point x="160" y="509" type="curve" smooth="yes"/>
			<point x="160" y="599"/>
			<point x="245" y="682"/>
			<point x="338" y="682" type="curve" smooth="yes"/>
			<point x="416" y="682"/>
			<point x="466" y="624"/>
			<point x="466" y="534" type="curve" smooth="yes"/>
			<point x="466" y="385"/>
			<point x="335" y="252"/>
			<point x="190" y="252" type="curve" smooth="yes"/>
			<point x="68" y="252"/>
			<point x="-20" y="343"/>
			<point x="-20" y="471" type="curve" smooth="yes"/>
			<point x="-20" y="680"/>
			<point x="169" y="863"/>
			<point x="384" y="863" type="curve" smooth="yes"/>
			<point x="502" y="863"/>
			<point x="547" y="826"/>
			<point x="649" y="826" type="curve" smooth="yes"/>
			<point x="731" y="826"/>
			<point x="782" y="855"/>
		</contour>
	</outline>
</glyph>
<glyph name="O" format="2">
	<advance width="853"/>
	<unicode hex="004F"/>
	<anchor x="713" y="998" name="top"/>
	<outline>
		<contour>
			<point x="634" y="879" type="curve" smooth="yes"/>
			<point x="770" y="879"/>
			<point x="850" y="787"/>
			<point x="850" y="629" type="curve" smooth="yes"/>
			<point x="850" y="320"/>
			<point x="545" y="-31"/>
			<point x="277" y="-31" type="curve" smooth="yes"/>
			<point x="118" y="-31"/>
			<point x="12" y="91"/>
			<point x="12" y="274" type="curve" smooth="yes"/>
			<point x="12" y="591"/>
			<point x="330" y="942"/>
			<point x="616" y="942" type="curve"/>
			<point x="619" y="943"/>
			<point x="618" y="946"/>
			<point x="614" y="946" type="curve"/>
			<point x="312" y="946"/>
			<point x="0" y="612"/>
			<point x="0" y="288" type="curve" smooth="yes"/>
			<point x="0" y="91"/>
			<point x="114" y="-39"/>
			<point x="288" y="-39" type="curve" smooth="yes"/>
			<point x="566" y="-39"/>
			<point x="861" y="296"/>
			<point x="861" y="611" type="curve" smooth="yes"/>
			<point x="861" y="782"/>
			<point x="774" y="884"/>
			<point x="629" y="884" type="curve" smooth="yes"/>
			<point x="434" y="884"/>
			<point x="251" y="704"/>
			<point x="251" y="514" type="curve" smooth="yes"/>
			<point x="251" y="402"/>
			<point x="313" y="329"/>
			<point x="409" y="329" type="curve" smooth="yes"/>
			<point x="523" y="329"/>
			<point x="635" y="433"/>
			<point x="635" y="538" type="curve" smooth="yes"/>
			<point x="635" y="564"/>
			<point x="628" y="585"/>
			<point x="612" y="608" type="curve"/>
			<point x="611" y="607"/>
			<point x="609" y="605"/>
			<point x="608" y="604" type="curve"/>
			<point x="618" y="585"/>
			<point x="623" y="567"/>
			<point x="623" y="544" type="curve" smooth="yes"/>
			<point x="623" y="436"/>
			<point x="520" y="334"/>
			<point x="410" y="334" type="curve" smooth="yes"/>
			<point x="321" y="334"/>
			<point x="265" y="401"/>
			<point x="265" y="508" type="curve" smooth="yes"/>
			<point x="265" y="701"/>
			<point x="443" y="879"/>
		</contour>
	</outline>
</glyph>
<glyph name="P" format="2">
	<advance width="818"/>
	<unicode hex="0050"/>
	<outline>
		<contour>
			<point x="506" y="933" type="curve" smooth="yes"/>
			<point x="673" y="933"/>
			<point x="856" y="832"/>
			<point x="856" y="645" type="curve" smooth="yes"/>
			<point x="856" y="499"/>
			<point x="735" y="350"/>
			<point x="590" y="350" type="curve" smooth="yes"/>
			<point x="561" y="350"/>
			<point x="519" y="363"/>
			<point x="521" y="381" type="curve"/>
			<point x="521" y="383"/>
			<point x="519" y="382"/>
			<point x="518" y="381" type="curve"/>
			<point x="515" y="361"/>
			<point x="559" y="346"/>
			<point x="590" y="346" type="curve" smooth="yes"/>
			<point x="744" y="346"/>
			<point x="874" y="491"/>
			<point x="874" y="641" type="curve" smooth="yes"/>
			<point x="874" y="837"/>
			<point x="671" y="937"/>
			<point x="500" y="937" type="curve" smooth="yes"/>
			<point x="167" y="937"/>
			<point x="-86" y="675"/>
			<point x="-86" y="453" type="curve" smooth="yes"/>
			<point x="-86" y="311"/>
			<point x="1" y="209"/>
			<point x="120" y="209" type="curve" smooth="yes"/>
			<point x="267" y="209"/>
			<point x="407" y="344"/>
			<point x="407" y="486" type="curve" smooth="yes"/>
			<point x="407" y="574"/>
			<point x="349" y="637"/>
			<point x="268" y="637" type="curve" smooth="yes"/>
			<point x="175" y="637"/>
			<point x="88" y="558"/>
			<point x="88" y="475" type="curve" smooth="yes"/>
			<point x="88" y="452"/>
			<point x="94" y="430"/>
			<point x="107" y="406" type="curve"/>
			<point x="109" y="404"/>
			<point x="112" y="405"/>
			<point x="112" y="408" type="curve"/>
			<point x="103" y="425"/>
			<point x="98" y="447"/>
			<point x="98" y="470" type="curve" smooth="yes"/>
			<point x="98" y="556"/>
			<point x="177" y="633"/>
			<point x="265" y="633" type="curve" smooth="yes"/>
			<point x="342" y="633"/>
			<point x="394" y="574"/>
			<point x="394" y="488" type="curve" smooth="yes"/>
			<point x="394" y="344"/>
			<point x="263" y="213"/>
			<point x="119" y="213" type="curve" smooth="yes"/>
			<point x="4" y="213"/>
			<point x="-75" y="305"/>
			<point x="-75" y="438" type="curve" smooth="yes"/>
			<point x="-75" y="658"/>
			<point x="175" y="933"/>
		</contour>
		<contour>
			<point x="915" y="960" type="curve"/>
			<point x="915" y="969" type="line"/>
			<point x="740" y="969"/>
			<point x="488" y="428"/>
			<point x="421" y="296" type="curve" smooth="yes"/>
			<point x="360" y="178"/>
			<point x="224" y="-23"/>
			<point x="63" y="-23" type="curve" smooth="yes"/>
			<point x="-19" y="-23"/>
			<point x="-70" y="21"/>
			<point x="-71" y="89" type="curve" smooth="yes"/>
			<point x="-71" y="128"/>
			<point x="-53" y="160"/>
			<point x="-22" y="175" type="curve"/>
			<point x="-21" y="176"/>
			<point x="-21" y="177"/>
			<point x="-24" y="177" type="curve"/>
			<point x="-62" y="159"/>
			<point x="-84" y="127"/>
			<point x="-83" y="84" type="curve" smooth="yes"/>
			<point x="-82" y="12"/>
			<point x="-24" y="-29"/>
			<point x="77" y="-29" type="curve" smooth="yes"/>
			<point x="256" y="-29"/>
			<point x="370" y="151"/>
			<point x="445" y="304" type="curve" smooth="yes"/>
			<point x="538" y="495"/>
			<point x="641" y="729"/>
			<point x="784" y="887" type="curve" smooth="yes"/>
			<point x="820" y="928"/>
			<point x="866" y="960"/>
		</contour>
	</outline>
</glyph>
<glyph name="Q" format="2">
	<advance width="920"/>
	<unicode hex="0051"/>
	<outline>
		<contour>
			<point x="753" y="-243" type="curve" smooth="yes"/>
			<point x="622" y="-243"/>
			<point x="478" y="-183"/>
			<point x="301" y="-53" type="curve"/>
			<point x="581" y="-46"/>
			<point x="874" y="255"/>
			<point x="874" y="569" type="curve" smooth="yes"/>
			<point x="874" y="786"/>
			<point x="740" y="936"/>
			<point x="547" y="936" type="curve" smooth="yes"/>
			<point x="291" y="936"/>
			<point x="46" y="707"/>
			<point x="46" y="466" type="curve" smooth="yes"/>
			<point x="46" y="305"/>
			<point x="151" y="191"/>
			<point x="298" y="191" type="curve" smooth="yes"/>
			<point x="476" y="191"/>
			<point x="641" y="346"/>
			<point x="641" y="514" type="curve" smooth="yes"/>
			<point x="641" y="614"/>
			<point x="583" y="681"/>
			<point x="496" y="681" type="curve" smooth="yes"/>
			<point x="397" y="681"/>
			<point x="306" y="596"/>
			<point x="306" y="505" type="curve" smooth="yes"/>
			<point x="306" y="476"/>
			<point x="315" y="453"/>
			<point x="333" y="432" type="curve"/>
			<point x="335" y="431"/>
			<point x="337" y="433"/>
			<point x="336" y="435" type="curve" smooth="yes"/>
			<point x="323" y="452"/>
			<point x="317" y="476"/>
			<point x="317" y="502" type="curve" smooth="yes"/>
			<point x="317" y="594"/>
			<point x="400" y="677"/>
			<point x="492" y="677" type="curve" smooth="yes"/>
			<point x="574" y="677"/>
			<point x="627" y="613"/>
			<point x="627" y="516" type="curve" smooth="yes"/>
			<point x="627" y="347"/>
			<point x="472" y="195"/>
			<point x="299" y="195" type="curve" smooth="yes"/>
			<point x="157" y="195"/>
			<point x="57" y="303"/>
			<point x="57" y="456" type="curve" smooth="yes"/>
			<point x="57" y="693"/>
			<point x="303" y="926"/>
			<point x="554" y="926" type="curve" smooth="yes"/>
			<point x="736" y="926"/>
			<point x="856" y="792"/>
			<point x="856" y="588" type="curve" smooth="yes"/>
			<point x="856" y="279"/>
			<point x="576" y="-44"/>
			<point x="295" y="-49" type="curve"/>
			<point x="204" y="9"/>
			<point x="72" y="110"/>
			<point x="-40" y="110" type="curve" smooth="yes"/>
			<point x="-79" y="110"/>
			<point x="-102" y="99"/>
			<point x="-102" y="79" type="curve" smooth="yes"/>
			<point x="-102" y="10"/>
			<point x="84" y="-53"/>
			<point x="289" y="-53" type="curve" smooth="yes"/>
			<point x="290" y="-53"/>
			<point x="291" y="-53"/>
			<point x="292" y="-53" type="curve"/>
			<point x="497" y="-196"/>
			<point x="643" y="-259"/>
			<point x="774" y="-259" type="curve" smooth="yes"/>
			<point x="918" y="-259"/>
			<point x="1042" y="-172"/>
			<point x="1042" y="-79" type="curve" smooth="yes"/>
			<point x="1042" y="-70"/>
			<point x="1041" y="-61"/>
			<point x="1038" y="-52" type="curve"/>
			<point x="1036" y="-52"/>
			<point x="1035" y="-52"/>
			<point x="1034" y="-54" type="curve"/>
			<point x="1036" y="-61"/>
			<point x="1037" y="-68"/>
			<point x="1037" y="-75" type="curve" smooth="yes"/>
			<point x="1037" y="-160"/>
			<point x="902" y="-243"/>
		</contour>
		<contour>
			<point x="-47" y="98" type="curve" smooth="yes"/>
			<point x="53" y="98"/>
			<point x="207" y="3"/>
			<point x="286" y="-49" type="curve"/>
			<point x="90" y="-48"/>
			<point x="-93" y="12"/>
			<point x="-93" y="76" type="curve" smooth="yes"/>
			<point x="-93" y="90"/>
			<point x="-77" y="98"/>
		</contour>
	</outline>
</glyph>
<glyph name="R" format="2">
	<advance width="857"/>
	<unicode hex="0052"/>
	<anchor x="793" y="998" name="top"/>
	<outline>
		<contour>
			<point x="61" y="-35" type="curve" smooth="yes"/>
			<point x="-21" y="-35"/>
			<point x="-73" y="9"/>
			<point x="-74" y="77" type="curve" smooth="yes"/>
			<point x="-74" y="116"/>
			<point x="-56" y="148"/>
			<point x="-25" y="163" type="curve"/>
			<point x="-24" y="164"/>
			<point x="-24" y="165"/>
			<point x="-27" y="165" type="curve"/>
			<point x="-65" y="147"/>
			<point x="-86" y="115"/>
			<point x="-86" y="72" type="curve" smooth="yes"/>
			<point x="-85" y="0"/>
			<point x="-26" y="-41"/>
			<point x="75" y="-41" type="curve" smooth="yes"/>
			<point x="272" y="-41"/>
			<point x="387" y="148"/>
			<point x="468" y="308" type="curve" smooth="yes"/>
			<point x="550" y="470"/>
			<point x="661" y="711"/>
			<point x="767" y="846" type="curve"/>
			<point x="832" y="791"/>
			<point x="871" y="712"/>
			<point x="871" y="626" type="curve" smooth="yes"/>
			<point x="871" y="472"/>
			<point x="742" y="314"/>
			<point x="582" y="314" type="curve"/>
			<point x="581" y="309" type="line"/>
			<point x="697" y="268"/>
			<point x="608" y="-136"/>
			<point x="729" y="-252" type="curve" smooth="yes"/>
			<point x="745" y="-267"/>
			<point x="770" y="-283"/>
			<point x="798" y="-283" type="curve" smooth="yes"/>
			<point x="817" y="-283"/>
			<point x="839" y="-276"/>
			<point x="860" y="-256" type="curve"/>
			<point x="861" y="-254"/>
			<point x="860" y="-253"/>
			<point x="857" y="-253" type="curve"/>
			<point x="842" y="-269"/>
			<point x="820" y="-279"/>
			<point x="798" y="-279" type="curve" smooth="yes"/>
			<point x="773" y="-279"/>
			<point x="749" y="-268"/>
			<point x="731" y="-248" type="curve" smooth="yes"/>
			<point x="677" y="-185"/>
			<point x="677" y="-59"/>
			<point x="671" y="67" type="curve" smooth="yes"/>
			<point x="666" y="164"/>
			<point x="662" y="259"/>
			<point x="601" y="302" type="curve" smooth="yes"/>
			<point x="598" y="304"/>
			<point x="601" y="309"/>
			<point x="605" y="310" type="curve"/>
			<point x="763" y="323"/>
			<point x="891" y="470"/>
			<point x="891" y="622" type="curve" smooth="yes"/>
			<point x="891" y="715"/>
			<point x="844" y="796"/>
			<point x="773" y="853" type="curve"/>
			<point x="813" y="903"/>
			<point x="880" y="961"/>
			<point x="939" y="961" type="curve"/>
			<point x="939" y="970" type="line"/>
			<point x="887" y="970"/>
			<point x="828" y="925"/>
			<point x="769" y="855" type="curve"/>
			<point x="702" y="905"/>
			<point x="613" y="937"/>
			<point x="507" y="937" type="curve" smooth="yes"/>
			<point x="181" y="937"/>
			<point x="-75" y="672"/>
			<point x="-75" y="445" type="curve" smooth="yes"/>
			<point x="-75" y="320"/>
			<point x="-1" y="196"/>
			<point x="137" y="196" type="curve" smooth="yes"/>
			<point x="283" y="196"/>
			<point x="420" y="329"/>
			<point x="420" y="470" type="curve" smooth="yes"/>
			<point x="420" y="553"/>
			<point x="368" y="624"/>
			<point x="280" y="624" type="curve" smooth="yes"/>
			<point x="187" y="624"/>
			<point x="102" y="545"/>
			<point x="102" y="462" type="curve" smooth="yes"/>
			<point x="102" y="439"/>
			<point x="108" y="417"/>
			<point x="121" y="393" type="curve"/>
			<point x="123" y="391"/>
			<point x="126" y="392"/>
			<point x="126" y="395" type="curve"/>
			<point x="117" y="412"/>
			<point x="112" y="434"/>
			<point x="112" y="457" type="curve" smooth="yes"/>
			<point x="112" y="543"/>
			<point x="189" y="620"/>
			<point x="277" y="620" type="curve" smooth="yes"/>
			<point x="363" y="620"/>
			<point x="407" y="551"/>
			<point x="407" y="472" type="curve" smooth="yes"/>
			<point x="407" y="329"/>
			<point x="279" y="200"/>
			<point x="136" y="200" type="curve" smooth="yes"/>
			<point x="7" y="200"/>
			<point x="-61" y="311"/>
			<point x="-61" y="429" type="curve" smooth="yes"/>
			<point x="-61" y="654"/>
			<point x="191" y="932"/>
			<point x="513" y="932" type="curve" smooth="yes"/>
			<point x="619" y="932"/>
			<point x="703" y="899"/>
			<point x="764" y="849" type="curve"/>
			<point x="648" y="708"/>
			<point x="529" y="465"/>
			<point x="443" y="300" type="curve" smooth="yes"/>
			<point x="379" y="176"/>
			<point x="237" y="-35"/>
		</contour>
	</outline>
</glyph>
<glyph name="S" format="2">
	<advance width="766"/>
	<unicode hex="0053"/>
	<anchor x="865" y="998" name="top"/>
	<outline>
		<contour>
			<point x="385" y="838" type="curve"/>
			<point x="335" y="840"/>
			<point x="286" y="784"/>
			<point x="286" y="712" type="curve" smooth="yes"/>
			<point x="286" y="577"/>
			<point x="416" y="513"/>
			<point x="535" y="513" type="curve" smooth="yes"/>
			<point x="585" y="513"/>
			<point x="639" y="524"/>
			<point x="681" y="543" type="curve"/>
			<point x="674" y="427"/>
			<point x="666" y="305"/>
			<point x="624" y="205" type="curve" smooth="yes"/>
			<point x="556" y="43"/>
			<point x="410" y="-64"/>
			<point x="252" y="-64" type="curve" smooth="yes"/>
			<point x="94" y="-64"/>
			<point x="-27" y="48"/>
			<point x="-27" y="208" type="curve" smooth="yes"/>
			<point x="-27" y="362"/>
			<point x="99" y="500"/>
			<point x="241" y="500" type="curve" smooth="yes"/>
			<point x="333" y="500"/>
			<point x="416" y="439"/>
			<point x="416" y="341" type="curve" smooth="yes"/>
			<point x="416" y="254"/>
			<point x="343" y="171"/>
			<point x="265" y="171" type="curve" smooth="yes"/>
			<point x="216" y="171"/>
			<point x="175" y="203"/>
			<point x="174" y="242" type="curve"/>
			<point x="173" y="244"/>
			<point x="170" y="243"/>
			<point x="170" y="240" type="curve"/>
			<point x="172" y="197"/>
			<point x="216" y="164"/>
			<point x="270" y="164" type="curve" smooth="yes"/>
			<point x="355" y="164"/>
			<point x="431" y="247"/>
			<point x="431" y="337" type="curve" smooth="yes"/>
			<point x="431" y="443"/>
			<point x="340" y="505"/>
			<point x="241" y="505" type="curve" smooth="yes"/>
			<point x="88" y="505"/>
			<point x="-44" y="368"/>
			<point x="-44" y="212" type="curve" smooth="yes"/>
			<point x="-44" y="42"/>
			<point x="93" y="-69"/>
			<point x="256" y="-69" type="curve" smooth="yes"/>
			<point x="412" y="-69"/>
			<point x="565" y="32"/>
			<point x="644" y="194" type="curve" smooth="yes"/>
			<point x="688" y="286"/>
			<point x="690" y="388"/>
			<point x="693" y="491" type="curve" smooth="yes"/>
			<point x="694" y="511"/>
			<point x="694" y="531"/>
			<point x="695" y="551" type="curve"/>
			<point x="810" y="609"/>
			<point x="901" y="743"/>
			<point x="901" y="853" type="curve" smooth="yes"/>
			<point x="901" y="906"/>
			<point x="880" y="940"/>
			<point x="848" y="940" type="curve" smooth="yes"/>
			<point x="814" y="940"/>
			<point x="776" y="909"/>
			<point x="747" y="858" type="curve" smooth="yes"/>
			<point x="711" y="794"/>
			<point x="693" y="712"/>
			<point x="682" y="552" type="curve"/>
			<point x="640" y="530"/>
			<point x="591" y="518"/>
			<point x="543" y="518" type="curve" smooth="yes"/>
			<point x="423" y="518"/>
			<point x="300" y="591"/>
			<point x="300" y="723" type="curve" smooth="yes"/>
			<point x="300" y="788"/>
			<point x="341" y="836"/>
			<point x="385" y="834" type="curve"/>
			<point x="387" y="836"/>
			<point x="386" y="837"/>
		</contour>
		<contour>
			<point x="753" y="850" type="curve" smooth="yes"/>
			<point x="782" y="903"/>
			<point x="819" y="936"/>
			<point x="850" y="936" type="curve" smooth="yes"/>
			<point x="875" y="936"/>
			<point x="890" y="910"/>
			<point x="890" y="865" type="curve" smooth="yes"/>
			<point x="890" y="751"/>
			<point x="805" y="619"/>
			<point x="695" y="560" type="curve"/>
			<point x="701" y="703"/>
			<point x="716" y="783"/>
		</contour>
	</outline>
</glyph>
<glyph name="T" format="2">
	<advance width="641"/>
	<unicode hex="0054"/>
	<anchor x="901" y="971" name="top"/>
	<outline>
		<contour>
			<point x="75" y="-58" type="curve" smooth="yes"/>
			<point x="275" y="-58"/>
			<point x="387" y="127"/>
			<point x="470" y="291" type="curve" smooth="yes"/>
			<point x="549" y="447"/>
			<point x="654" y="745"/>
			<point x="825" y="785" type="curve"/>
			<point x="825" y="798" type="line"/>
			<point x="656" y="743"/>
			<point x="528" y="445"/>
			<point x="445" y="283" type="curve" smooth="yes"/>
			<point x="380" y="156"/>
			<point x="234" y="-52"/>
			<point x="61" y="-52" type="curve" smooth="yes"/>
			<point x="-26" y="-52"/>
			<point x="-81" y="-9"/>
			<point x="-81" y="59" type="curve" smooth="yes"/>
			<point x="-81" y="99"/>
			<point x="-61" y="130"/>
			<point x="-26" y="146" type="curve"/>
			<point x="-25" y="148"/>
			<point x="-26" y="150"/>
			<point x="-29" y="149" type="curve"/>
			<point x="-66" y="131"/>
			<point x="-86" y="100"/>
			<point x="-86" y="58" type="curve" smooth="yes"/>
			<point x="-86" y="-15"/>
			<point x="-26" y="-58"/>
		</contour>
		<contour>
			<point x="1180" y="798" type="curve" smooth="yes"/>
			<point x="922" y="798"/>
			<point x="759" y="960"/>
			<point x="478" y="960" type="curve" smooth="yes"/>
			<point x="181" y="960"/>
			<point x="-67" y="766"/>
			<point x="-67" y="534" type="curve" smooth="yes"/>
			<point x="-67" y="395"/>
			<point x="20" y="295"/>
			<point x="142" y="295" type="curve" smooth="yes"/>
			<point x="291" y="295"/>
			<point x="432" y="429"/>
			<point x="432" y="572" type="curve" smooth="yes"/>
			<point x="432" y="661"/>
			<point x="374" y="723"/>
			<point x="290" y="723" type="curve" smooth="yes"/>
			<point x="195" y="723"/>
			<point x="102" y="644"/>
			<point x="102" y="564" type="curve" smooth="yes"/>
			<point x="102" y="543"/>
			<point x="108" y="526"/>
			<point x="121" y="507" type="curve"/>
			<point x="124" y="504"/>
			<point x="127" y="506"/>
			<point x="126" y="509" type="curve"/>
			<point x="117" y="522"/>
			<point x="112" y="539"/>
			<point x="112" y="559" type="curve" smooth="yes"/>
			<point x="112" y="642"/>
			<point x="195" y="719"/>
			<point x="286" y="719" type="curve" smooth="yes"/>
			<point x="366" y="719"/>
			<point x="419" y="662"/>
			<point x="419" y="575" type="curve" smooth="yes"/>
			<point x="419" y="429"/>
			<point x="288" y="299"/>
			<point x="142" y="299" type="curve" smooth="yes"/>
			<point x="23" y="299"/>
			<point x="-58" y="389"/>
			<point x="-58" y="521" type="curve" smooth="yes"/>
			<point x="-58" y="752"/>
			<point x="197" y="954"/>
			<point x="489" y="954" type="curve" smooth="yes"/>
			<point x="760" y="954"/>
			<point x="923" y="794"/>
			<point x="1181" y="794" type="curve" smooth="yes"/>
			<point x="1256" y="794"/>
			<point x="1306" y="808"/>
			<point x="1348" y="839" type="curve"/>
			<point x="1350" y="841"/>
			<point x="1348" y="844"/>
			<point x="1346" y="843" type="curve"/>
			<point x="1304" y="812"/>
			<point x="1254" y="798"/>
		</contour>
	</outline>
</glyph>
<glyph name="V" format="2">
	<advance width="1015"/>
	<unicode hex="0056"/>
	<outline>
		<contour>
			<point x="886" y="870" type="curve"/>
			<point x="883" y="857" type="line"/>
			<point x="893" y="863"/>
			<point x="909" y="869"/>
			<point x="920" y="869" type="curve" smooth="yes"/>
			<point x="1010" y="869"/>
			<point x="1031" y="754"/>
			<point x="1031" y="685" type="curve" smooth="yes"/>
			<point x="1031" y="458"/>
			<point x="846" y="171"/>
			<point x="636" y="55" type="curve" smooth="yes"/>
			<point x="613" y="42"/>
			<point x="576" y="23"/>
			<point x="540" y="5" type="curve"/>
			<point x="652" y="128"/>
			<point x="742" y="355"/>
			<point x="742" y="553" type="curve" smooth="yes"/>
			<point x="742" y="780"/>
			<point x="636" y="948"/>
			<point x="413" y="948" type="curve" smooth="yes"/>
			<point x="172" y="948"/>
			<point x="-38" y="750"/>
			<point x="-38" y="522" type="curve" smooth="yes"/>
			<point x="-38" y="361"/>
			<point x="65" y="242"/>
			<point x="204" y="242" type="curve" smooth="yes"/>
			<point x="357" y="242"/>
			<point x="501" y="381"/>
			<point x="501" y="531" type="curve" smooth="yes"/>
			<point x="501" y="632"/>
			<point x="437" y="703"/>
			<point x="345" y="703" type="curve" smooth="yes"/>
			<point x="251" y="703"/>
			<point x="145" y="623"/>
			<point x="145" y="523" type="curve" smooth="yes"/>
			<point x="145" y="491"/>
			<point x="150" y="459"/>
			<point x="183" y="424" type="curve"/>
			<point x="185" y="423"/>
			<point x="187" y="424"/>
			<point x="186" y="426" type="curve"/>
			<point x="163" y="448"/>
			<point x="159" y="481"/>
			<point x="159" y="515" type="curve" smooth="yes"/>
			<point x="159" y="613"/>
			<point x="244" y="698"/>
			<point x="342" y="698" type="curve" smooth="yes"/>
			<point x="428" y="698"/>
			<point x="483" y="634"/>
			<point x="483" y="533" type="curve" smooth="yes"/>
			<point x="483" y="379"/>
			<point x="354" y="247"/>
			<point x="205" y="247" type="curve" smooth="yes"/>
			<point x="69" y="247"/>
			<point x="-22" y="352"/>
			<point x="-22" y="508" type="curve" smooth="yes"/>
			<point x="-22" y="743"/>
			<point x="181" y="943"/>
			<point x="418" y="943" type="curve" smooth="yes"/>
			<point x="631" y="943"/>
			<point x="722" y="784"/>
			<point x="722" y="561" type="curve" smooth="yes"/>
			<point x="722" y="350"/>
			<point x="640" y="117"/>
			<point x="528" y="-1" type="curve"/>
			<point x="508" y="-11"/>
			<point x="438" y="-39"/>
			<point x="438" y="-60" type="curve" smooth="yes"/>
			<point x="438" y="-65"/>
			<point x="441" y="-68"/>
			<point x="448" y="-68" type="curve" smooth="yes"/>
			<point x="476" y="-68"/>
			<point x="517" y="-24"/>
			<point x="533" y="-4" type="curve"/>
			<point x="571" y="15"/>
			<point x="614" y="36"/>
			<point x="639" y="51" type="curve" smooth="yes"/>
			<point x="848" y="173"/>
			<point x="1046" y="433"/>
			<point x="1046" y="667" type="curve" smooth="yes"/>
			<point x="1046" y="746"/>
			<point x="1016" y="875"/>
			<point x="915" y="875" type="curve" smooth="yes"/>
			<point x="905" y="875"/>
			<point x="895" y="873"/>
		</contour>
		<contour>
			<point x="462" y="-60" type="curve" smooth="yes"/>
			<point x="457" y="-60"/>
			<point x="455" y="-57"/>
			<point x="455" y="-53" type="curve" smooth="yes"/>
			<point x="455" y="-37"/>
			<point x="514" y="-13"/>
			<point x="520" y="-10" type="curve"/>
			<point x="511" y="-20"/>
			<point x="476" y="-60"/>
		</contour>
	</outline>
</glyph>
<glyph name="W" format="2">
	<advance width="1339"/>
	<unicode hex="0057"/>
	<outline>
		<contour>
			<point x="906" y="-1" type="curve"/>
			<point x="956" y="81"/>
			<point x="968" y="184"/>
			<point x="968" y="291" type="curve" smooth="yes"/>
			<point x="968" y="428"/>
			<point x="940" y="566"/>
			<point x="940" y="655" type="curve" smooth="yes"/>
			<point x="940" y="775"/>
			<point x="991" y="861"/>
			<point x="1061" y="861" type="curve" smooth="yes"/>
			<point x="1112" y="861"/>
			<point x="1144" y="818"/>
			<point x="1144" y="750" type="curve" smooth="yes"/>
			<point x="1144" y="479"/>
			<point x="750" y="113"/>
			<point x="504" y="5" type="curve"/>
			<point x="643" y="151"/>
			<point x="744" y="366"/>
			<point x="744" y="596" type="curve" smooth="yes"/>
			<point x="744" y="800"/>
			<point x="622" y="948"/>
			<point x="413" y="948" type="curve" smooth="yes"/>
			<point x="172" y="948"/>
			<point x="-38" y="750"/>
			<point x="-38" y="522" type="curve" smooth="yes"/>
			<point x="-38" y="361"/>
			<point x="65" y="242"/>
			<point x="204" y="242" type="curve" smooth="yes"/>
			<point x="357" y="242"/>
			<point x="501" y="381"/>
			<point x="501" y="531" type="curve" smooth="yes"/>
			<point x="501" y="632"/>
			<point x="437" y="703"/>
			<point x="345" y="703" type="curve" smooth="yes"/>
			<point x="251" y="703"/>
			<point x="145" y="623"/>
			<point x="145" y="523" type="curve" smooth="yes"/>
			<point x="145" y="491"/>
			<point x="151" y="460"/>
			<point x="184" y="425" type="curve"/>
			<point x="186" y="424"/>
			<point x="188" y="425"/>
			<point x="187" y="427" type="curve"/>
			<point x="164" y="449"/>
			<point x="159" y="481"/>
			<point x="159" y="515" type="curve" smooth="yes"/>
			<point x="159" y="613"/>
			<point x="244" y="698"/>
			<point x="342" y="698" type="curve" smooth="yes"/>
			<point x="428" y="698"/>
			<point x="483" y="634"/>
			<point x="483" y="533" type="curve" smooth="yes"/>
			<point x="483" y="379"/>
			<point x="354" y="247"/>
			<point x="205" y="247" type="curve" smooth="yes"/>
			<point x="69" y="247"/>
			<point x="-22" y="352"/>
			<point x="-22" y="508" type="curve" smooth="yes"/>
			<point x="-22" y="743"/>
			<point x="181" y="943"/>
			<point x="418" y="943" type="curve" smooth="yes"/>
			<point x="616" y="943"/>
			<point x="724" y="805"/>
			<point x="724" y="608" type="curve" smooth="yes"/>
			<point x="724" y="377"/>
			<point x="631" y="146"/>
			<point x="490" y="-1" type="curve"/>
			<point x="483" y="-4"/>
			<point x="471" y="-9"/>
			<point x="458" y="-14" type="curve" smooth="yes"/>
			<point x="425" y="-28"/>
			<point x="383" y="-46"/>
			<point x="383" y="-59" type="curve" smooth="yes"/>
			<point x="383" y="-63"/>
			<point x="386" y="-65"/>
			<point x="393" y="-65" type="curve" smooth="yes"/>
			<point x="426" y="-65"/>
			<point x="472" y="-25"/>
			<point x="495" y="-4" type="curve"/>
			<point x="747" y="107"/>
			<point x="1151" y="461"/>
			<point x="1151" y="741" type="curve" smooth="yes"/>
			<point x="1151" y="818"/>
			<point x="1116" y="867"/>
			<point x="1060" y="867" type="curve" smooth="yes"/>
			<point x="981" y="867"/>
			<point x="923" y="770"/>
			<point x="923" y="637" type="curve" smooth="yes"/>
			<point x="923" y="545"/>
			<point x="951" y="391"/>
			<point x="951" y="236" type="curve" smooth="yes"/>
			<point x="951" y="143"/>
			<point x="931" y="48"/>
			<point x="896" y="-8" type="curve"/>
			<point x="891" y="-11"/>
			<point x="883" y="-15"/>
			<point x="873" y="-20" type="curve" smooth="yes"/>
			<point x="847" y="-32"/>
			<point x="811" y="-48"/>
			<point x="811" y="-59" type="curve" smooth="yes"/>
			<point x="811" y="-63"/>
			<point x="814" y="-65"/>
			<point x="821" y="-65" type="curve" smooth="yes"/>
			<point x="855" y="-65"/>
			<point x="883" y="-36"/>
			<point x="900" y="-10" type="curve"/>
			<point x="1083" y="101"/>
			<point x="1221" y="373"/>
			<point x="1298" y="496" type="curve" smooth="yes"/>
			<point x="1385" y="636"/>
			<point x="1534" y="883"/>
			<point x="1738" y="883" type="curve" smooth="yes"/>
			<point x="1818" y="883"/>
			<point x="1868" y="831"/>
			<point x="1868" y="770" type="curve" smooth="yes"/>
			<point x="1868" y="751"/>
			<point x="1863" y="731"/>
			<point x="1853" y="711" type="curve"/>
			<point x="1852" y="709"/>
			<point x="1854" y="709"/>
			<point x="1855" y="710" type="curve"/>
			<point x="1869" y="733"/>
			<point x="1875" y="756"/>
			<point x="1875" y="776" type="curve" smooth="yes"/>
			<point x="1875" y="842"/>
			<point x="1811" y="888"/>
			<point x="1733" y="888" type="curve" smooth="yes"/>
			<point x="1504" y="888"/>
			<point x="1382" y="659"/>
			<point x="1271" y="480" type="curve" smooth="yes"/>
			<point x="1201" y="366"/>
			<point x="1080" y="107"/>
		</contour>
		<contour>
			<point x="409" y="-57" type="curve" smooth="yes"/>
			<point x="405" y="-57"/>
			<point x="403" y="-56"/>
			<point x="403" y="-53" type="curve" smooth="yes"/>
			<point x="403" y="-40"/>
			<point x="472" y="-14"/>
			<point x="480" y="-10" type="curve"/>
			<point x="467" y="-22"/>
			<point x="428" y="-57"/>
		</contour>
		<contour>
			<point x="837" y="-57" type="curve" smooth="yes"/>
			<point x="833" y="-57"/>
			<point x="831" y="-56"/>
			<point x="831" y="-53" type="curve" smooth="yes"/>
			<point x="831" y="-44"/>
			<point x="882" y="-21"/>
			<point x="891" y="-16" type="curve"/>
			<point x="880" y="-31"/>
			<point x="858" y="-57"/>
		</contour>
	</outline>
</glyph>
<glyph name="X" format="2">
	<advance width="940"/>
	<unicode hex="0058"/>
	<outline>
		<contour>
			<point x="677" y="392" type="curve" smooth="yes"/>
			<point x="674" y="384"/>
			<point x="668" y="380"/>
			<point x="659" y="380" type="curve" smooth="yes"/>
			<point x="532" y="380" type="line"/>
			<point x="532" y="376" type="line"/>
			<point x="657" y="376" type="line" smooth="yes"/>
			<point x="666" y="376"/>
			<point x="668" y="372"/>
			<point x="665" y="364" type="curve" smooth="yes"/>
			<point x="580" y="161"/>
			<point x="411" y="-42"/>
			<point x="189" y="-42" type="curve" smooth="yes"/>
			<point x="119" y="-42"/>
			<point x="28" y="-6"/>
			<point x="28" y="78" type="curve" smooth="yes"/>
			<point x="28" y="98"/>
			<point x="34" y="122"/>
			<point x="50" y="136" type="curve"/>
			<point x="51" y="137"/>
			<point x="49" y="139"/>
			<point x="48" y="138" type="curve"/>
			<point x="26" y="122"/>
			<point x="18" y="97"/>
			<point x="18" y="75" type="curve" smooth="yes"/>
			<point x="18" y="-11"/>
			<point x="121" y="-46"/>
			<point x="191" y="-46" type="curve" smooth="yes"/>
			<point x="404" y="-46"/>
			<point x="565" y="121"/>
			<point x="657" y="298" type="curve"/>
			<point x="647" y="252"/>
			<point x="642" y="206"/>
			<point x="642" y="159" type="curve" smooth="yes"/>
			<point x="642" y="-67"/>
			<point x="753" y="-226"/>
			<point x="910" y="-226" type="curve" smooth="yes"/>
			<point x="991" y="-226"/>
			<point x="1064" y="-183"/>
			<point x="1058" y="-140" type="curve"/>
			<point x="1057" y="-138"/>
			<point x="1055" y="-138"/>
			<point x="1054" y="-140" type="curve"/>
			<point x="1054" y="-142"/>
			<point x="1054" y="-143"/>
			<point x="1054" y="-145" type="curve" smooth="yes"/>
			<point x="1054" y="-184"/>
			<point x="986" y="-222"/>
			<point x="913" y="-222" type="curve" smooth="yes"/>
			<point x="765" y="-222"/>
			<point x="660" y="-67"/>
			<point x="660" y="153" type="curve" smooth="yes"/>
			<point x="660" y="226"/>
			<point x="672" y="296"/>
			<point x="693" y="364" type="curve" smooth="yes"/>
			<point x="696" y="372"/>
			<point x="701" y="376"/>
			<point x="710" y="376" type="curve" smooth="yes"/>
			<point x="860" y="376" type="line"/>
			<point x="860" y="380" type="line"/>
			<point x="711" y="380" type="line" smooth="yes"/>
			<point x="702" y="380"/>
			<point x="699" y="384"/>
			<point x="702" y="392" type="curve" smooth="yes"/>
			<point x="792" y="644"/>
			<point x="1017" y="913"/>
			<point x="1303" y="913" type="curve" smooth="yes"/>
			<point x="1388" y="913"/>
			<point x="1467" y="874"/>
			<point x="1470" y="794" type="curve" smooth="yes"/>
			<point x="1471" y="756"/>
			<point x="1454" y="705"/>
			<point x="1413" y="694" type="curve"/>
			<point x="1412" y="694"/>
			<point x="1413" y="691"/>
			<point x="1414" y="691" type="curve"/>
			<point x="1457" y="702"/>
			<point x="1483" y="752"/>
			<point x="1482" y="790" type="curve" smooth="yes"/>
			<point x="1479" y="881"/>
			<point x="1380" y="917"/>
			<point x="1303" y="917" type="curve" smooth="yes"/>
			<point x="1048" y="917"/>
			<point x="848" y="726"/>
			<point x="738" y="516" type="curve"/>
			<point x="746" y="552"/>
			<point x="750" y="588"/>
			<point x="749" y="625" type="curve" smooth="yes"/>
			<point x="744" y="784"/>
			<point x="660" y="937"/>
			<point x="452" y="937" type="curve" smooth="yes"/>
			<point x="195" y="937"/>
			<point x="-25" y="729"/>
			<point x="-25" y="478" type="curve" smooth="yes"/>
			<point x="-25" y="339"/>
			<point x="62" y="239"/>
			<point x="184" y="239" type="curve" smooth="yes"/>
			<point x="333" y="239"/>
			<point x="474" y="373"/>
			<point x="474" y="516" type="curve" smooth="yes"/>
			<point x="474" y="605"/>
			<point x="416" y="667"/>
			<point x="332" y="667" type="curve" smooth="yes"/>
			<point x="242" y="667"/>
			<point x="155" y="581"/>
			<point x="155" y="494" type="curve" smooth="yes"/>
			<point x="155" y="473"/>
			<point x="161" y="456"/>
			<point x="174" y="437" type="curve"/>
			<point x="177" y="434"/>
			<point x="181" y="436"/>
			<point x="179" y="439" type="curve"/>
			<point x="170" y="452"/>
			<point x="165" y="469"/>
			<point x="165" y="489" type="curve" smooth="yes"/>
			<point x="165" y="579"/>
			<point x="243" y="663"/>
			<point x="328" y="663" type="curve" smooth="yes"/>
			<point x="408" y="663"/>
			<point x="461" y="606"/>
			<point x="461" y="519" type="curve" smooth="yes"/>
			<point x="461" y="373"/>
			<point x="330" y="243"/>
			<point x="184" y="243" type="curve" smooth="yes"/>
			<point x="65" y="243"/>
			<point x="-16" y="333"/>
			<point x="-16" y="465" type="curve" smooth="yes"/>
			<point x="-16" y="715"/>
			<point x="198" y="931"/>
			<point x="442" y="931" type="curve" smooth="yes"/>
			<point x="624" y="931"/>
			<point x="723" y="802"/>
			<point x="728" y="648" type="curve" smooth="yes"/>
			<point x="731" y="564"/>
			<point x="708" y="470"/>
		</contour>
	</outline>
</glyph>
<glyph name="Y" format="2">
	<advance width="899"/>
	<unicode hex="0059"/>
	<anchor x="1010" y="971" name="top"/>
	<outline>
		<contour>
			<point x="239" y="34" type="curve"/>
			<point x="221" y="42"/>
			<point x="200" y="46"/>
			<point x="178" y="46" type="curve" smooth="yes"/>
			<point x="70" y="46"/>
			<point x="-23" y="-43"/>
			<point x="-23" y="-166" type="curve" smooth="yes"/>
			<point x="-23" y="-285"/>
			<point x="99" y="-378"/>
			<point x="230" y="-378" type="curve" smooth="yes"/>
			<point x="409" y="-378"/>
			<point x="548" y="-243"/>
			<point x="627" y="-85" type="curve" smooth="yes"/>
			<point x="698" y="57"/>
			<point x="733" y="247"/>
			<point x="813" y="434" type="curve" smooth="yes"/>
			<point x="858" y="539"/>
			<point x="921" y="644"/>
			<point x="1006" y="737" type="curve" smooth="yes"/>
			<point x="1111" y="853"/>
			<point x="1216" y="935"/>
			<point x="1332" y="935" type="curve" smooth="yes"/>
			<point x="1365" y="935"/>
			<point x="1427" y="918"/>
			<point x="1435" y="880" type="curve"/>
			<point x="1437" y="878"/>
			<point x="1439" y="880"/>
			<point x="1439" y="883" type="curve"/>
			<point x="1431" y="924"/>
			<point x="1368" y="939"/>
			<point x="1327" y="939" type="curve" smooth="yes"/>
			<point x="1201" y="939"/>
			<point x="1094" y="859"/>
			<point x="998" y="749" type="curve" smooth="yes"/>
			<point x="918" y="657"/>
			<point x="852" y="547"/>
			<point x="799" y="434" type="curve" smooth="yes"/>
			<point x="714" y="254"/>
			<point x="536" y="50"/>
			<point x="426" y="50" type="curve" smooth="yes"/>
			<point x="361" y="50"/>
			<point x="337" y="96"/>
			<point x="337" y="148" type="curve" smooth="yes"/>
			<point x="337" y="325"/>
			<point x="567" y="673"/>
			<point x="707" y="783" type="curve" smooth="yes"/>
			<point x="740" y="809"/>
			<point x="788" y="825"/>
			<point x="788" y="858" type="curve" smooth="yes"/>
			<point x="788" y="934"/>
			<point x="607" y="976"/>
			<point x="469" y="976" type="curve" smooth="yes"/>
			<point x="235" y="976"/>
			<point x="-32" y="835"/>
			<point x="-32" y="595" type="curve" smooth="yes"/>
			<point x="-32" y="497"/>
			<point x="26" y="387"/>
			<point x="152" y="387" type="curve" smooth="yes"/>
			<point x="280" y="387"/>
			<point x="405" y="499"/>
			<point x="405" y="632" type="curve" smooth="yes"/>
			<point x="405" y="716"/>
			<point x="344" y="760"/>
			<point x="276" y="760" type="curve" smooth="yes"/>
			<point x="189" y="760"/>
			<point x="106" y="688"/>
			<point x="106" y="616" type="curve" smooth="yes"/>
			<point x="106" y="599"/>
			<point x="114" y="586"/>
			<point x="124" y="571" type="curve"/>
			<point x="125" y="570"/>
			<point x="129" y="572"/>
			<point x="128" y="573" type="curve"/>
			<point x="120" y="586"/>
			<point x="116" y="599"/>
			<point x="116" y="613" type="curve" smooth="yes"/>
			<point x="116" y="685"/>
			<point x="189" y="755"/>
			<point x="275" y="755" type="curve" smooth="yes"/>
			<point x="336" y="755"/>
			<point x="391" y="717"/>
			<point x="391" y="633" type="curve" smooth="yes"/>
			<point x="391" y="502"/>
			<point x="278" y="391"/>
			<point x="161" y="391" type="curve" smooth="yes"/>
			<point x="31" y="391"/>
			<point x="-21" y="490"/>
			<point x="-21" y="583" type="curve" smooth="yes"/>
			<point x="-21" y="774"/>
			<point x="181" y="971"/>
			<point x="470" y="971" type="curve" smooth="yes"/>
			<point x="615" y="971"/>
			<point x="777" y="926"/>
			<point x="777" y="858" type="curve" smooth="yes"/>
			<point x="777" y="828"/>
			<point x="735" y="811"/>
			<point x="706" y="788" type="curve" smooth="yes"/>
			<point x="560" y="672"/>
			<point x="325" y="356"/>
			<point x="325" y="164" type="curve" smooth="yes"/>
			<point x="325" y="101"/>
			<point x="348" y="43"/>
			<point x="421" y="43" type="curve" smooth="yes"/>
			<point x="532" y="43"/>
			<point x="707" y="236"/>
			<point x="803" y="432" type="curve"/>
			<point x="806" y="432" type="line"/>
			<point x="722" y="240"/>
			<point x="671" y="44"/>
			<point x="597" y="-98" type="curve" smooth="yes"/>
			<point x="519" y="-247"/>
			<point x="395" y="-372"/>
			<point x="226" y="-372" type="curve" smooth="yes"/>
			<point x="97" y="-372"/>
			<point x="-8" y="-281"/>
			<point x="-8" y="-168" type="curve" smooth="yes"/>
			<point x="-8" y="-51"/>
			<point x="74" y="43"/>
			<point x="178" y="43" type="curve" smooth="yes"/>
			<point x="199" y="43"/>
			<point x="220" y="38"/>
			<point x="237" y="29" type="curve"/>
			<point x="239" y="28"/>
			<point x="241" y="33"/>
		</contour>
	</outline>
</glyph>
<glyph name="Z" format="2">
	<advance width="581"/>
	<unicode hex="005A"/>
	<anchor x="763" y="998" name="top"/>
	<outline>
		<contour>
			<point x="383" y="655" type="curve" smooth="yes"/>
			<point x="272" y="655"/>
			<point x="167" y="563"/>
			<point x="167" y="465" type="curve" smooth="yes"/>
			<point x="167" y="431"/>
			<point x="178" y="394"/>
			<point x="213" y="380" type="curve"/>
			<point x="215" y="379"/>
			<point x="216" y="382"/>
			<point x="215" y="383" type="curve"/>
			<point x="188" y="392"/>
			<point x="178" y="423"/>
			<point x="178" y="452" type="curve" smooth="yes"/>
			<point x="178" y="559"/>
			<point x="272" y="650"/>
			<point x="383" y="650" type="curve" smooth="yes"/>
			<point x="478" y="650"/>
			<point x="527" y="580"/>
			<point x="527" y="488" type="curve" smooth="yes"/>
			<point x="527" y="326"/>
			<point x="381" y="184"/>
			<point x="220" y="184" type="curve" smooth="yes"/>
			<point x="59" y="184"/>
			<point x="0" y="312"/>
			<point x="0" y="428" type="curve" smooth="yes"/>
			<point x="0" y="691"/>
			<point x="260" y="898"/>
			<point x="532" y="898" type="curve" smooth="yes"/>
			<point x="653" y="898"/>
			<point x="773" y="865"/>
			<point x="894" y="865" type="curve" smooth="yes"/>
			<point x="985" y="865"/>
			<point x="1039" y="889"/>
			<point x="1039" y="927" type="curve" smooth="yes"/>
			<point x="1039" y="948"/>
			<point x="1023" y="959"/>
			<point x="993" y="959" type="curve" smooth="yes"/>
			<point x="826" y="959"/>
			<point x="556" y="608"/>
			<point x="466" y="497" type="curve" smooth="yes"/>
			<point x="313" y="309"/>
			<point x="153" y="117"/>
			<point x="-6" y="42" type="curve"/>
			<point x="-38" y="51"/>
			<point x="-81" y="62"/>
			<point x="-126" y="62" type="curve" smooth="yes"/>
			<point x="-150" y="62"/>
			<point x="-162" y="54"/>
			<point x="-162" y="45" type="curve" smooth="yes"/>
			<point x="-162" y="35"/>
			<point x="-147" y="23"/>
			<point x="-117" y="23" type="curve" smooth="yes"/>
			<point x="-79" y="23"/>
			<point x="-44" y="26"/>
			<point x="-12" y="33" type="curve"/>
			<point x="203" y="-42"/>
			<point x="372" y="-240"/>
			<point x="614" y="-240" type="curve" smooth="yes"/>
			<point x="771" y="-240"/>
			<point x="867" y="-154"/>
			<point x="867" y="-84" type="curve" smooth="yes"/>
			<point x="867" y="-77"/>
			<point x="866" y="-70"/>
			<point x="864" y="-63" type="curve"/>
			<point x="862" y="-61"/>
			<point x="860" y="-62"/>
			<point x="860" y="-65" type="curve"/>
			<point x="861" y="-70"/>
			<point x="862" y="-75"/>
			<point x="862" y="-81" type="curve" smooth="yes"/>
			<point x="862" y="-148"/>
			<point x="747" y="-224"/>
			<point x="590" y="-224" type="curve" smooth="yes"/>
			<point x="347" y="-224"/>
			<point x="214" y="-36"/>
			<point x="8" y="38" type="curve"/>
			<point x="164" y="115"/>
			<point x="323" y="308"/>
			<point x="469" y="493" type="curve" smooth="yes"/>
			<point x="552" y="598"/>
			<point x="837" y="946"/>
			<point x="978" y="946" type="curve" smooth="yes"/>
			<point x="1002" y="946"/>
			<point x="1017" y="936"/>
			<point x="1017" y="920" type="curve" smooth="yes"/>
			<point x="1017" y="890"/>
			<point x="970" y="870"/>
			<point x="892" y="870" type="curve" smooth="yes"/>
			<point x="767" y="870"/>
			<point x="645" y="906"/>
			<point x="520" y="906" type="curve" smooth="yes"/>
			<point x="253" y="906"/>
			<point x="-14" y="712"/>
			<point x="-14" y="447" type="curve" smooth="yes"/>
			<point x="-14" y="320"/>
			<point x="53" y="179"/>
			<point x="219" y="179" type="curve" smooth="yes"/>
			<point x="379" y="179"/>
			<point x="541" y="319"/>
			<point x="541" y="485" type="curve" smooth="yes"/>
			<point x="541" y="581"/>
			<point x="478" y="655"/>
		</contour>
		<contour>
			<point x="-117" y="29" type="curve" smooth="yes"/>
			<point x="-136" y="29"/>
			<point x="-145" y="35"/>
			<point x="-145" y="41" type="curve" smooth="yes"/>
			<point x="-145" y="47"/>
			<point x="-135" y="54"/>
			<point x="-117" y="54" type="curve" smooth="yes"/>
			<point x="-89" y="54"/>
			<point x="-60" y="48"/>
			<point x="-30" y="39" type="curve"/>
			<point x="-58" y="32"/>
			<point x="-87" y="29"/>
		</contour>
	</outline>
</glyph>
<glyph name="backslash" format="2">
	<advance width="550"/>
	<unicode hex="005C"/>
	<outline>
		<contour>
			<point x="343" y="-121" type="curve"/>
			<point x="354" y="-121" type="line"/>
			<point x="354" y="-121"/>
			<point x="306" y="110"/>
			<point x="263" y="337" type="curve" smooth="yes"/>
			<point x="222" y="558"/>
			<point x="183" y="775"/>
			<point x="183" y="775" type="curve"/>
			<point x="172" y="775" type="line"/>
			<point x="172" y="775"/>
			<point x="217" y="560"/>
			<point x="258" y="339" type="curve" smooth="yes"/>
			<point x="301" y="112"/>
			<point x="343" y="-121"/>
		</contour>
	</outline>
</glyph>
<glyph name="asciicircum" format="2">
	<advance width="600"/>
	<unicode hex="005E"/>
	<outline>
		<contour>
			<point x="73" y="213" type="curve"/>
			<point x="375" y="501" type="line"/>
			<point x="479" y="222" type="line"/>
			<point x="482" y="220"/>
			<point x="483" y="221"/>
			<point x="484" y="225" type="curve"/>
			<point x="390" y="530" type="line"/>
			<point x="71" y="217" type="line"/>
			<point x="70" y="215"/>
			<point x="70" y="213"/>
		</contour>
	</outline>
</glyph>
<glyph name="underscore" format="2">
	<advance width="361"/>
	<unicode hex="005F"/>
	<outline>
		<contour>
			<point x="-51" y="5" type="curve"/>
			<point x="-51" y="0" type="line"/>
			<point x="-51" y="0"/>
			<point x="233" y="0"/>
			<point x="233" y="0" type="curve"/>
			<point x="233" y="5" type="line"/>
			<point x="233" y="5"/>
			<point x="-51" y="5"/>
		</contour>
	</outline>
</glyph>
<glyph name="a" format="2">
	<advance width="436"/>
	<unicode hex="0061"/>
	<anchor x="307" y="638" name="top"/>
	<outline>
		<contour>
			<point x="268" y="558" type="curve" smooth="yes"/>
			<point x="300" y="558"/>
			<point x="319" y="536"/>
			<point x="319" y="500" type="curve" smooth="yes"/>
			<point x="319" y="460"/>
			<point x="295" y="410"/>
			<point x="266" y="382" type="curve"/>
			<point x="266" y="381"/>
			<point x="267" y="380"/>
			<point x="267" y="379" type="curve"/>
			<point x="297" y="407"/>
			<point x="327" y="456"/>
			<point x="327" y="499" type="curve" smooth="yes"/>
			<point x="327" y="538"/>
			<point x="303" y="563"/>
			<point x="266" y="563" type="curve" smooth="yes"/>
			<point x="178" y="563"/>
			<point x="61" y="424"/>
			<point x="0" y="282" type="curve" smooth="yes"/>
			<point x="-27" y="218"/>
			<point x="-41" y="158"/>
			<point x="-41" y="104" type="curve" smooth="yes"/>
			<point x="-41" y="40"/>
			<point x="-18" y="0"/>
			<point x="21" y="0" type="curve" smooth="yes"/>
			<point x="96" y="0"/>
			<point x="171" y="98"/>
			<point x="217" y="191" type="curve"/>
			<point x="219" y="191" type="line"/>
			<point x="193" y="138"/>
			<point x="184" y="97"/>
			<point x="184" y="67" type="curve" smooth="yes"/>
			<point x="184" y="21"/>
			<point x="207" y="0"/>
			<point x="237" y="0" type="curve" smooth="yes"/>
			<point x="303" y="0"/>
			<point x="375" y="112"/>
			<point x="439" y="280" type="curve"/>
			<point x="439" y="282"/>
			<point x="439" y="283"/>
			<point x="436" y="282" type="curve"/>
			<point x="374" y="120"/>
			<point x="301" y="4"/>
			<point x="237" y="4" type="curve" smooth="yes"/>
			<point x="209" y="4"/>
			<point x="193" y="27"/>
			<point x="193" y="64" type="curve" smooth="yes"/>
			<point x="193" y="94"/>
			<point x="203" y="133"/>
			<point x="224" y="178" type="curve" smooth="yes"/>
			<point x="403" y="550" type="line"/>
			<point x="382" y="550" type="line"/>
			<point x="239" y="242" type="line" smooth="yes"/>
			<point x="187" y="129"/>
			<point x="103" y="6"/>
			<point x="23" y="6" type="curve" smooth="yes"/>
			<point x="-11" y="6"/>
			<point x="-27" y="38"/>
			<point x="-27" y="91" type="curve" smooth="yes"/>
			<point x="-27" y="146"/>
			<point x="-10" y="211"/>
			<point x="16" y="274" type="curve" smooth="yes"/>
			<point x="77" y="420"/>
			<point x="190" y="558"/>
		</contour>
	</outline>
</glyph>
<glyph name="b" format="2">
	<advance width="376"/>
	<unicode hex="0062"/>
	<outline>
		<contour>
			<point x="-17" y="0" type="curve"/>
			<point x="52" y="-7"/>
			<point x="132" y="71"/>
			<point x="200" y="177" type="curve"/>
			<point x="212" y="171"/>
			<point x="227" y="167"/>
			<point x="244" y="167" type="curve" smooth="yes"/>
			<point x="299" y="167"/>
			<point x="347" y="210"/>
			<point x="379" y="280" type="curve" smooth="yes"/>
			<point x="380" y="282"/>
			<point x="378" y="283"/>
			<point x="376" y="282" type="curve"/>
			<point x="346" y="215"/>
			<point x="300" y="171"/>
			<point x="247" y="171" type="curve" smooth="yes"/>
			<point x="229" y="171"/>
			<point x="215" y="175"/>
			<point x="203" y="181" type="curve"/>
			<point x="257" y="267"/>
			<point x="326" y="396"/>
			<point x="326" y="500" type="curve" smooth="yes"/>
			<point x="326" y="538"/>
			<point x="316" y="563"/>
			<point x="296" y="563" type="curve" smooth="yes"/>
			<point x="241" y="563"/>
			<point x="151" y="384"/>
			<point x="151" y="276" type="curve" smooth="yes"/>
			<point x="151" y="238"/>
			<point x="161" y="202"/>
			<point x="187" y="184" type="curve"/>
			<point x="119" y="69"/>
			<point x="51" y="1"/>
			<point x="-16" y="5" type="curve" smooth="yes"/>
			<point x="-42" y="6"/>
			<point x="-63" y="36"/>
			<point x="-63" y="79" type="curve" smooth="yes"/>
			<point x="-63" y="100"/>
			<point x="-58" y="125"/>
			<point x="-46" y="152" type="curve" smooth="yes"/>
			<point x="336" y="971" type="line"/>
			<point x="316" y="971" type="line"/>
			<point x="0" y="282" type="line"/>
			<point x="-55" y="161" type="line" smooth="yes"/>
			<point x="-67" y="133"/>
			<point x="-72" y="108"/>
			<point x="-72" y="86" type="curve" smooth="yes"/>
			<point x="-72" y="36"/>
			<point x="-46" y="2"/>
		</contour>
		<contour>
			<point x="157" y="273" type="curve" smooth="yes"/>
			<point x="157" y="378"/>
			<point x="245" y="558"/>
			<point x="296" y="558" type="curve" smooth="yes"/>
			<point x="311" y="558"/>
			<point x="318" y="541"/>
			<point x="318" y="515" type="curve" smooth="yes"/>
			<point x="318" y="421"/>
			<point x="237" y="268"/>
			<point x="189" y="189" type="curve"/>
			<point x="165" y="206"/>
			<point x="157" y="239"/>
		</contour>
	</outline>
</glyph>
<glyph name="d" format="2">
	<advance width="436"/>
	<unicode hex="0064"/>
	<outline>
		<contour>
			<point x="268" y="558" type="curve" smooth="yes"/>
			<point x="300" y="558"/>
			<point x="319" y="536"/>
			<point x="319" y="500" type="curve" smooth="yes"/>
			<point x="319" y="460"/>
			<point x="295" y="410"/>
			<point x="266" y="382" type="curve"/>
			<point x="265" y="381"/>
			<point x="266" y="380"/>
			<point x="267" y="379" type="curve"/>
			<point x="297" y="407"/>
			<point x="327" y="456"/>
			<point x="327" y="499" type="curve" smooth="yes"/>
			<point x="327" y="538"/>
			<point x="303" y="563"/>
			<point x="266" y="563" type="curve" smooth="yes"/>
			<point x="178" y="563"/>
			<point x="62" y="427"/>
			<point x="0" y="282" type="curve" smooth="yes"/>
			<point x="-26" y="221"/>
			<point x="-43" y="160"/>
			<point x="-43" y="106" type="curve" smooth="yes"/>
			<point x="-43" y="42"/>
			<point x="-18" y="0"/>
			<point x="21" y="0" type="curve" smooth="yes"/>
			<point x="96" y="0"/>
			<point x="171" y="98"/>
			<point x="217" y="191" type="curve"/>
			<point x="219" y="191" type="line"/>
			<point x="193" y="138"/>
			<point x="184" y="97"/>
			<point x="184" y="67" type="curve" smooth="yes"/>
			<point x="184" y="21"/>
			<point x="207" y="0"/>
			<point x="237" y="0" type="curve" smooth="yes"/>
			<point x="303" y="0"/>
			<point x="375" y="112"/>
			<point x="439" y="280" type="curve"/>
			<point x="439" y="282"/>
			<point x="439" y="283"/>
			<point x="436" y="282" type="curve"/>
			<point x="374" y="120"/>
			<point x="301" y="4"/>
			<point x="237" y="4" type="curve" smooth="yes"/>
			<point x="209" y="4"/>
			<point x="193" y="27"/>
			<point x="193" y="64" type="curve" smooth="yes"/>
			<point x="193" y="94"/>
			<point x="203" y="133"/>
			<point x="224" y="178" type="curve" smooth="yes"/>
			<point x="594" y="971" type="line"/>
			<point x="573" y="971" type="line"/>
			<point x="239" y="242" type="line" smooth="yes"/>
			<point x="187" y="129"/>
			<point x="103" y="6"/>
			<point x="23" y="6" type="curve" smooth="yes"/>
			<point x="-11" y="6"/>
			<point x="-27" y="38"/>
			<point x="-27" y="91" type="curve" smooth="yes"/>
			<point x="-27" y="271"/>
			<point x="150" y="558"/>
		</contour>
	</outline>
</glyph>
<glyph name="e" format="2">
	<advance width="325"/>
	<unicode hex="0065"/>
	<anchor x="288" y="638" name="top"/>
	<outline>
		<contour>
			<point x="325" y="282" type="curve"/>
			<point x="265" y="129"/>
			<point x="169" y="6"/>
			<point x="68" y="6" type="curve" smooth="yes"/>
			<point x="15" y="6"/>
			<point x="-21" y="44"/>
			<point x="-21" y="111" type="curve" smooth="yes"/>
			<point x="-21" y="283"/>
			<point x="147" y="558"/>
			<point x="263" y="558" type="curve" smooth="yes"/>
			<point x="294" y="558"/>
			<point x="311" y="539"/>
			<point x="311" y="505" type="curve" smooth="yes"/>
			<point x="311" y="422"/>
			<point x="206" y="308"/>
			<point x="131" y="308" type="curve" smooth="yes"/>
			<point x="94" y="308"/>
			<point x="67" y="333"/>
			<point x="67" y="366" type="curve" smooth="yes"/>
			<point x="67" y="376"/>
			<point x="69" y="386"/>
			<point x="74" y="397" type="curve"/>
			<point x="72" y="395" type="line"/>
			<point x="69" y="392" type="line"/>
			<point x="64" y="382"/>
			<point x="62" y="372"/>
			<point x="62" y="363" type="curve" smooth="yes"/>
			<point x="62" y="329"/>
			<point x="92" y="303"/>
			<point x="133" y="303" type="curve" smooth="yes"/>
			<point x="219" y="303"/>
			<point x="321" y="417"/>
			<point x="321" y="498" type="curve" smooth="yes"/>
			<point x="321" y="537"/>
			<point x="297" y="563"/>
			<point x="260" y="563" type="curve" smooth="yes"/>
			<point x="174" y="563"/>
			<point x="57" y="429"/>
			<point x="0" y="282" type="curve" smooth="yes"/>
			<point x="-22" y="227"/>
			<point x="-35" y="169"/>
			<point x="-35" y="117" type="curve" smooth="yes"/>
			<point x="-35" y="44"/>
			<point x="5" y="0"/>
			<point x="68" y="0" type="curve" smooth="yes"/>
			<point x="170" y="0"/>
			<point x="266" y="124"/>
			<point x="328" y="280" type="curve"/>
			<point x="328" y="282"/>
			<point x="327" y="283"/>
		</contour>
	</outline>
</glyph>
<glyph name="f" format="2">
	<advance width="213"/>
	<unicode hex="0066"/>
	<outline>
		<contour>
			<point x="535" y="992" type="curve" smooth="yes"/>
			<point x="578" y="992"/>
			<point x="609" y="954"/>
			<point x="609" y="912" type="curve" smooth="yes"/>
			<point x="609" y="753"/>
			<point x="346" y="589"/>
			<point x="182" y="589" type="curve" smooth="yes"/>
			<point x="53" y="589"/>
			<point x="-78" y="664"/>
			<point x="-78" y="808" type="curve" smooth="yes"/>
			<point x="-78" y="922"/>
			<point x="2" y="1019"/>
			<point x="123" y="1019" type="curve" smooth="yes"/>
			<point x="187" y="1019"/>
			<point x="249" y="979"/>
			<point x="249" y="909" type="curve" smooth="yes"/>
			<point x="249" y="838"/>
			<point x="196" y="786"/>
			<point x="131" y="786" type="curve" smooth="yes"/>
			<point x="117" y="786"/>
			<point x="79" y="786"/>
			<point x="64" y="811" type="curve"/>
			<point x="62" y="812"/>
			<point x="61" y="812"/>
			<point x="59" y="809" type="curve"/>
			<point x="77" y="782"/>
			<point x="117" y="782"/>
			<point x="131" y="782" type="curve" smooth="yes"/>
			<point x="198" y="782"/>
			<point x="258" y="832"/>
			<point x="258" y="907" type="curve" smooth="yes"/>
			<point x="258" y="982"/>
			<point x="191" y="1023"/>
			<point x="123" y="1023" type="curve" smooth="yes"/>
			<point x="-1" y="1023"/>
			<point x="-92" y="931"/>
			<point x="-92" y="812" type="curve" smooth="yes"/>
			<point x="-92" y="667"/>
			<point x="54" y="585"/>
			<point x="183" y="585" type="curve" smooth="yes"/>
			<point x="346" y="585"/>
			<point x="618" y="733"/>
			<point x="618" y="904" type="curve" smooth="yes"/>
			<point x="618" y="950"/>
			<point x="587" y="996"/>
			<point x="537" y="996" type="curve" smooth="yes"/>
			<point x="396" y="996"/>
			<point x="244" y="800"/>
			<point x="131" y="567" type="curve" smooth="yes"/>
			<point x="97" y="497" type="line" smooth="yes"/>
			<point x="94" y="490"/>
			<point x="89" y="487"/>
			<point x="81" y="487" type="curve" smooth="yes"/>
			<point x="15" y="487" type="line"/>
			<point x="15" y="483" type="line"/>
			<point x="79" y="483" type="line" smooth="yes"/>
			<point x="87" y="483"/>
			<point x="88" y="480"/>
			<point x="85" y="473" type="curve" smooth="yes"/>
			<point x="54" y="408"/>
			<point x="27" y="344"/>
			<point x="0" y="282" type="curve"/>
			<point x="-34" y="202" type="line" smooth="yes"/>
			<point x="-134" y="-34"/>
			<point x="-299" y="-438"/>
			<point x="-516" y="-438" type="curve" smooth="yes"/>
			<point x="-561" y="-438"/>
			<point x="-601" y="-419"/>
			<point x="-601" y="-368" type="curve" smooth="yes"/>
			<point x="-601" y="-345"/>
			<point x="-590" y="-307"/>
			<point x="-564" y="-304" type="curve"/>
			<point x="-566" y="-302" type="line"/>
			<point x="-589" y="-305"/>
			<point x="-612" y="-337"/>
			<point x="-612" y="-365" type="curve" smooth="yes"/>
			<point x="-612" y="-427"/>
			<point x="-555" y="-443"/>
			<point x="-504" y="-443" type="curve" smooth="yes"/>
			<point x="-399" y="-443"/>
			<point x="-312" y="-364"/>
			<point x="-241" y="-261" type="curve" smooth="yes"/>
			<point x="-143" y="-119"/>
			<point x="-71" y="64"/>
			<point x="0" y="241" type="curve" smooth="yes"/>
			<point x="32" y="321"/>
			<point x="64" y="400"/>
			<point x="97" y="473" type="curve" smooth="yes"/>
			<point x="100" y="480"/>
			<point x="105" y="483"/>
			<point x="113" y="483" type="curve" smooth="yes"/>
			<point x="250" y="483" type="line"/>
			<point x="250" y="487" type="line"/>
			<point x="115" y="487" type="line" smooth="yes"/>
			<point x="107" y="487"/>
			<point x="106" y="490"/>
			<point x="109" y="497" type="curve" smooth="yes"/>
			<point x="120" y="521"/>
			<point x="131" y="545"/>
			<point x="143" y="569" type="curve" smooth="yes"/>
			<point x="258" y="798"/>
			<point x="398" y="992"/>
		</contour>
	</outline>
</glyph>
<glyph name="h" format="2">
	<advance width="449"/>
	<unicode hex="0068"/>
	<outline>
		<contour>
			<point x="599" y="943" type="curve" smooth="yes"/>
			<point x="599" y="815"/>
			<point x="320" y="652"/>
			<point x="224" y="578" type="curve"/>
			<point x="248" y="643"/>
			<point x="283" y="742"/>
			<point x="332" y="828" type="curve" smooth="yes"/>
			<point x="396" y="941"/>
			<point x="467" y="1000"/>
			<point x="535" y="1000" type="curve" smooth="yes"/>
			<point x="575" y="1000"/>
			<point x="599" y="979"/>
		</contour>
		<contour>
			<point x="303" y="285" type="curve" smooth="yes"/>
			<point x="358" y="364"/>
			<point x="415" y="440"/>
			<point x="415" y="513" type="curve" smooth="yes"/>
			<point x="415" y="555"/>
			<point x="392" y="582"/>
			<point x="358" y="582" type="curve" smooth="yes"/>
			<point x="307" y="582"/>
			<point x="236" y="510"/>
			<point x="169" y="418" type="curve" smooth="yes"/>
			<point x="115" y="345"/>
			<point x="41" y="238"/>
			<point x="-14" y="126" type="curve" smooth="yes"/>
			<point x="-17" y="119"/>
			<point x="-21" y="112"/>
			<point x="-24" y="105" type="curve" smooth="yes"/>
			<point x="-40" y="70"/>
			<point x="-57" y="30"/>
			<point x="-57" y="11" type="curve" smooth="yes"/>
			<point x="-57" y="4"/>
			<point x="-55" y="0"/>
			<point x="-49" y="0" type="curve" smooth="yes"/>
			<point x="-33" y="0"/>
			<point x="2" y="48"/>
			<point x="64" y="188" type="curve" smooth="yes"/>
			<point x="158" y="401" type="line" smooth="yes"/>
			<point x="175" y="439"/>
			<point x="186" y="480"/>
			<point x="200" y="513" type="curve" smooth="yes"/>
			<point x="207" y="531"/>
			<point x="213" y="550"/>
			<point x="220" y="569" type="curve"/>
			<point x="325" y="651"/>
			<point x="602" y="785"/>
			<point x="602" y="940" type="curve" smooth="yes"/>
			<point x="602" y="982"/>
			<point x="575" y="1006"/>
			<point x="529" y="1006" type="curve" smooth="yes"/>
			<point x="450" y="1006"/>
			<point x="376" y="945"/>
			<point x="318" y="840" type="curve" smooth="yes"/>
			<point x="268" y="750"/>
			<point x="240" y="643"/>
			<point x="215" y="571" type="curve"/>
			<point x="137" y="509"/>
			<point x="63" y="427"/>
			<point x="0" y="282" type="curve"/>
			<point x="0" y="281"/>
			<point x="1" y="280"/>
			<point x="3" y="280" type="curve"/>
			<point x="63" y="419"/>
			<point x="135" y="500"/>
			<point x="212" y="562" type="curve"/>
			<point x="207" y="546"/>
			<point x="201" y="529"/>
			<point x="195" y="513" type="curve" smooth="yes"/>
			<point x="181" y="478"/>
			<point x="168" y="440"/>
			<point x="152" y="406" type="curve" smooth="yes"/>
			<point x="132" y="361"/>
			<point x="109" y="315"/>
			<point x="86" y="270" type="curve" smooth="yes"/>
			<point x="73" y="244"/>
			<point x="60" y="218"/>
			<point x="48" y="193" type="curve" smooth="yes"/>
			<point x="30" y="155"/>
			<point x="15" y="124"/>
			<point x="3" y="100" type="curve"/>
			<point x="3" y="100"/>
			<point x="3" y="100"/>
			<point x="3" y="100" type="curve"/>
			<point x="-36" y="19"/>
			<point x="-43" y="5"/>
			<point x="-49" y="5" type="curve" smooth="yes"/>
			<point x="-63" y="5"/>
			<point x="-35" y="73"/>
			<point x="-12" y="120" type="curve" smooth="yes"/>
			<point x="24" y="194"/>
			<point x="82" y="283"/>
			<point x="129" y="352" type="curve" smooth="yes"/>
			<point x="141" y="369"/>
			<point x="152" y="386"/>
			<point x="162" y="400" type="curve" smooth="yes"/>
			<point x="231" y="499"/>
			<point x="305" y="577"/>
			<point x="358" y="577" type="curve" smooth="yes"/>
			<point x="387" y="577"/>
			<point x="408" y="556"/>
			<point x="408" y="522" type="curve" smooth="yes"/>
			<point x="408" y="465"/>
			<point x="364" y="403"/>
			<point x="316" y="336" type="curve" smooth="yes"/>
			<point x="306" y="323"/>
			<point x="297" y="310"/>
			<point x="287" y="296" type="curve" smooth="yes"/>
			<point x="240" y="229"/>
			<point x="198" y="156"/>
			<point x="198" y="80" type="curve" smooth="yes"/>
			<point x="198" y="36"/>
			<point x="221" y="0"/>
			<point x="250" y="0" type="curve" smooth="yes"/>
			<point x="316" y="0"/>
			<point x="388" y="112"/>
			<point x="452" y="280" type="curve"/>
			<point x="452" y="282"/>
			<point x="452" y="283"/>
			<point x="449" y="282" type="curve"/>
			<point x="387" y="120"/>
			<point x="314" y="4"/>
			<point x="250" y="4" type="curve" smooth="yes"/>
			<point x="224" y="4"/>
			<point x="206" y="32"/>
			<point x="206" y="71" type="curve" smooth="yes"/>
			<point x="206" y="143"/>
			<point x="254" y="215"/>
		</contour>
	</outline>
</glyph>
<glyph name="i" format="2">
	<advance width="177"/>
	<unicode hex="0069"/>
	<outline>
		<contour>
			<point x="0" y="282" type="line"/>
			<point x="-41" y="191" type="line" smooth="yes"/>
			<point x="-65" y="137"/>
			<point x="-75" y="97"/>
			<point x="-75" y="67" type="curve" smooth="yes"/>
			<point x="-75" y="21"/>
			<point x="-52" y="0"/>
			<point x="-22" y="0" type="curve" smooth="yes"/>
			<point x="44" y="0"/>
			<point x="116" y="112"/>
			<point x="180" y="280" type="curve"/>
			<point x="180" y="282"/>
			<point x="180" y="283"/>
			<point x="177" y="282" type="curve"/>
			<point x="115" y="120"/>
			<point x="42" y="4"/>
			<point x="-22" y="4" type="curve" smooth="yes"/>
			<point x="-50" y="4"/>
			<point x="-66" y="27"/>
			<point x="-66" y="64" type="curve" smooth="yes"/>
			<point x="-66" y="94"/>
			<point x="-57" y="133"/>
			<point x="-35" y="178" type="curve" smooth="yes"/>
			<point x="145" y="550" type="line"/>
			<point x="123" y="550" type="line"/>
		</contour>
		<contour>
			<point x="193" y="735" type="curve"/>
			<point x="191" y="724"/>
			<point x="195" y="713"/>
			<point x="208" y="713" type="curve" smooth="yes"/>
			<point x="220" y="713"/>
			<point x="233" y="722"/>
			<point x="238" y="735" type="curve" smooth="yes"/>
			<point x="242" y="748"/>
			<point x="235" y="758"/>
			<point x="224" y="758" type="curve" smooth="yes"/>
			<point x="209" y="758"/>
			<point x="198" y="748"/>
		</contour>
	</outline>
</glyph>
<glyph name="j" format="2">
	<advance width="214"/>
	<unicode hex="006A"/>
	<outline>
		<contour>
			<point x="273" y="735" type="curve"/>
			<point x="271" y="724"/>
			<point x="275" y="713"/>
			<point x="288" y="713" type="curve" smooth="yes"/>
			<point x="300" y="713"/>
			<point x="313" y="722"/>
			<point x="318" y="735" type="curve" smooth="yes"/>
			<point x="322" y="748"/>
			<point x="315" y="758"/>
			<point x="304" y="758" type="curve" smooth="yes"/>
			<point x="289" y="758"/>
			<point x="278" y="748"/>
		</contour>
		<contour>
			<point x="-367" y="-430" type="curve" smooth="yes"/>
			<point x="-407" y="-430"/>
			<point x="-431" y="-409"/>
			<point x="-431" y="-373" type="curve" smooth="yes"/>
			<point x="-431" y="-245"/>
			<point x="-152" y="-82"/>
			<point x="-56" y="-8" type="curve"/>
			<point x="-80" y="-73"/>
			<point x="-115" y="-172"/>
			<point x="-164" y="-258" type="curve" smooth="yes"/>
			<point x="-228" y="-371"/>
			<point x="-299" y="-430"/>
		</contour>
		<contour>
			<point x="-52" y="1" type="curve"/>
			<point x="-157" y="-81"/>
			<point x="-434" y="-215"/>
			<point x="-434" y="-370" type="curve" smooth="yes"/>
			<point x="-434" y="-412"/>
			<point x="-410" y="-433"/>
			<point x="-364" y="-433" type="curve" smooth="yes"/>
			<point x="-285" y="-433"/>
			<point x="-205" y="-373"/>
			<point x="-147" y="-268" type="curve" smooth="yes"/>
			<point x="-97" y="-178"/>
			<point x="-72" y="-73"/>
			<point x="-47" y="-1" type="curve"/>
			<point x="48" y="59"/>
			<point x="148" y="136"/>
			<point x="217" y="280" type="curve"/>
			<point x="217" y="283"/>
			<point x="216" y="283"/>
			<point x="214" y="282" type="curve"/>
			<point x="149" y="144"/>
			<point x="50" y="68"/>
			<point x="-44" y="8" type="curve"/>
			<point x="-2" y="127"/>
			<point x="56" y="300"/>
			<point x="124" y="424" type="curve" smooth="yes"/>
			<point x="156" y="484"/>
			<point x="184" y="527"/>
			<point x="229" y="561" type="curve"/>
			<point x="200" y="561" type="line"/>
			<point x="164" y="533"/>
			<point x="123" y="459"/>
			<point x="108" y="429" type="curve" smooth="yes"/>
			<point x="42" y="298"/>
			<point x="-4" y="134"/>
		</contour>
		<contour>
			<point x="202" y="556" type="curve"/>
			<point x="200" y="561" type="line"/>
			<point x="107" y="515"/>
			<point x="21" y="331"/>
			<point x="0" y="282" type="curve"/>
			<point x="0" y="280"/>
			<point x="1" y="279"/>
			<point x="3" y="280" type="curve"/>
			<point x="22" y="322"/>
			<point x="108" y="509"/>
		</contour>
	</outline>
</glyph>
<glyph name="l" format="2">
	<advance width="174"/>
	<unicode hex="006C"/>
	<outline>
		<contour>
			<point x="-78" y="67" type="curve" smooth="yes"/>
			<point x="-78" y="21"/>
			<point x="-55" y="0"/>
			<point x="-25" y="0" type="curve" smooth="yes"/>
			<point x="41" y="0"/>
			<point x="113" y="112"/>
			<point x="177" y="280" type="curve"/>
			<point x="177" y="282"/>
			<point x="177" y="283"/>
			<point x="174" y="282" type="curve"/>
			<point x="112" y="120"/>
			<point x="39" y="4"/>
			<point x="-25" y="4" type="curve" smooth="yes"/>
			<point x="-53" y="4"/>
			<point x="-69" y="27"/>
			<point x="-69" y="64" type="curve" smooth="yes"/>
			<point x="-69" y="88"/>
			<point x="-61" y="119"/>
			<point x="-46" y="152" type="curve" smooth="yes"/>
			<point x="336" y="971" type="line"/>
			<point x="316" y="971" type="line"/>
			<point x="0" y="282" type="line"/>
			<point x="-55" y="161" type="line" smooth="yes"/>
			<point x="-70" y="126"/>
			<point x="-78" y="93"/>
		</contour>
	</outline>
</glyph>
<glyph name="m" format="2">
	<advance width="723"/>
	<unicode hex="006D"/>
	<outline>
		<contour>
			<point x="678" y="494" type="curve" smooth="yes"/>
			<point x="678" y="536"/>
			<point x="655" y="563"/>
			<point x="621" y="563" type="curve" smooth="yes"/>
			<point x="573" y="563"/>
			<point x="506" y="499"/>
			<point x="443" y="418" type="curve" smooth="yes"/>
			<point x="384" y="342"/>
			<point x="306" y="224"/>
			<point x="250" y="105" type="curve" smooth="yes"/>
			<point x="234" y="70"/>
			<point x="217" y="30"/>
			<point x="217" y="11" type="curve" smooth="yes"/>
			<point x="217" y="4"/>
			<point x="219" y="0"/>
			<point x="225" y="0" type="curve" smooth="yes"/>
			<point x="241" y="0"/>
			<point x="276" y="48"/>
			<point x="338" y="188" type="curve" smooth="yes"/>
			<point x="352" y="219"/>
			<point x="411" y="354"/>
			<point x="432" y="401" type="curve" smooth="yes"/>
			<point x="441" y="421"/>
			<point x="456" y="468"/>
			<point x="456" y="506" type="curve" smooth="yes"/>
			<point x="456" y="537"/>
			<point x="445" y="563"/>
			<point x="412" y="563" type="curve" smooth="yes"/>
			<point x="364" y="563"/>
			<point x="297" y="499"/>
			<point x="234" y="418" type="curve" smooth="yes"/>
			<point x="175" y="342"/>
			<point x="97" y="224"/>
			<point x="41" y="105" type="curve" smooth="yes"/>
			<point x="25" y="70"/>
			<point x="8" y="30"/>
			<point x="8" y="11" type="curve" smooth="yes"/>
			<point x="8" y="4"/>
			<point x="10" y="0"/>
			<point x="16" y="0" type="curve" smooth="yes"/>
			<point x="32" y="0"/>
			<point x="67" y="48"/>
			<point x="129" y="188" type="curve" smooth="yes"/>
			<point x="133" y="196"/>
			<point x="191" y="329"/>
			<point x="223" y="401" type="curve"/>
			<point x="231" y="421"/>
			<point x="247" y="468"/>
			<point x="247" y="506" type="curve" smooth="yes"/>
			<point x="247" y="537"/>
			<point x="236" y="563"/>
			<point x="203" y="563" type="curve" smooth="yes"/>
			<point x="137" y="563"/>
			<point x="64" y="450"/>
			<point x="0" y="282" type="curve"/>
			<point x="0" y="280"/>
			<point x="0" y="279"/>
			<point x="3" y="280" type="curve"/>
			<point x="65" y="442"/>
			<point x="139" y="559"/>
			<point x="203" y="559" type="curve" smooth="yes"/>
			<point x="232" y="559"/>
			<point x="241" y="536"/>
			<point x="241" y="507" type="curve" smooth="yes"/>
			<point x="241" y="470"/>
			<point x="226" y="423"/>
			<point x="217" y="406" type="curve" smooth="yes"/>
			<point x="213" y="398"/>
			<point x="148" y="265"/>
			<point x="113" y="193" type="curve" smooth="yes"/>
			<point x="91" y="148"/>
			<point x="75" y="114"/>
			<point x="62" y="88" type="curve" smooth="yes"/>
			<point x="28" y="18"/>
			<point x="22" y="5"/>
			<point x="16" y="5" type="curve" smooth="yes"/>
			<point x="13" y="5"/>
			<point x="12" y="7"/>
			<point x="12" y="11" type="curve" smooth="yes"/>
			<point x="12" y="29"/>
			<point x="34" y="81"/>
			<point x="53" y="120" type="curve" smooth="yes"/>
			<point x="98" y="213"/>
			<point x="175" y="330"/>
			<point x="227" y="400" type="curve" smooth="yes"/>
			<point x="292" y="488"/>
			<point x="362" y="558"/>
			<point x="412" y="558" type="curve" smooth="yes"/>
			<point x="441" y="558"/>
			<point x="450" y="535"/>
			<point x="450" y="506" type="curve" smooth="yes"/>
			<point x="450" y="469"/>
			<point x="434" y="422"/>
			<point x="426" y="405" type="curve" smooth="yes"/>
			<point x="417" y="387"/>
			<point x="330" y="209"/>
			<point x="322" y="192" type="curve" smooth="yes"/>
			<point x="298" y="144"/>
			<point x="280" y="107"/>
			<point x="267" y="80" type="curve" smooth="yes"/>
			<point x="236" y="17"/>
			<point x="230" y="4"/>
			<point x="225" y="4" type="curve" smooth="yes"/>
			<point x="222" y="4"/>
			<point x="221" y="6"/>
			<point x="221" y="10" type="curve" smooth="yes"/>
			<point x="221" y="28"/>
			<point x="243" y="80"/>
			<point x="262" y="119" type="curve" smooth="yes"/>
			<point x="307" y="212"/>
			<point x="384" y="329"/>
			<point x="436" y="399" type="curve" smooth="yes"/>
			<point x="501" y="487"/>
			<point x="571" y="558"/>
			<point x="621" y="558" type="curve" smooth="yes"/>
			<point x="649" y="558"/>
			<point x="669" y="538"/>
			<point x="669" y="506" type="curve" smooth="yes"/>
			<point x="669" y="442"/>
			<point x="612" y="372"/>
			<point x="561" y="296" type="curve" smooth="yes"/>
			<point x="515" y="228"/>
			<point x="472" y="156"/>
			<point x="472" y="80" type="curve" smooth="yes"/>
			<point x="472" y="36"/>
			<point x="495" y="0"/>
			<point x="524" y="0" type="curve" smooth="yes"/>
			<point x="590" y="0"/>
			<point x="662" y="112"/>
			<point x="726" y="280" type="curve"/>
			<point x="726" y="282"/>
			<point x="726" y="283"/>
			<point x="723" y="282" type="curve"/>
			<point x="661" y="120"/>
			<point x="588" y="4"/>
			<point x="524" y="4" type="curve" smooth="yes"/>
			<point x="498" y="4"/>
			<point x="480" y="32"/>
			<point x="480" y="71" type="curve" smooth="yes"/>
			<point x="480" y="143"/>
			<point x="528" y="215"/>
			<point x="577" y="285" type="curve" smooth="yes"/>
			<point x="627" y="357"/>
			<point x="678" y="427"/>
		</contour>
	</outline>
</glyph>
<glyph name="o" format="2">
	<advance width="387"/>
	<unicode hex="006F"/>
	<anchor x="279" y="638" name="top"/>
	<outline>
		<contour>
			<point x="317" y="398" type="curve" smooth="yes"/>
			<point x="317" y="444"/>
			<point x="299" y="476"/>
			<point x="272" y="476" type="curve" smooth="yes"/>
			<point x="227" y="476"/>
			<point x="160" y="388"/>
			<point x="148" y="292" type="curve" smooth="yes"/>
			<point x="140" y="226"/>
			<point x="156" y="161"/>
			<point x="203" y="142" type="curve"/>
			<point x="147" y="61"/>
			<point x="83" y="5"/>
			<point x="36" y="5" type="curve" smooth="yes"/>
			<point x="-2" y="5"/>
			<point x="-22" y="43"/>
			<point x="-22" y="102" type="curve" smooth="yes"/>
			<point x="-22" y="283"/>
			<point x="152" y="557"/>
			<point x="260" y="557" type="curve" smooth="yes"/>
			<point x="289" y="557"/>
			<point x="314" y="543"/>
			<point x="322" y="508" type="curve"/>
			<point x="325" y="512" type="line"/>
			<point x="315" y="544"/>
			<point x="292" y="563"/>
			<point x="261" y="563" type="curve" smooth="yes"/>
			<point x="170" y="563"/>
			<point x="58" y="430"/>
			<point x="0" y="282" type="curve" smooth="yes"/>
			<point x="-22" y="226"/>
			<point x="-35" y="167"/>
			<point x="-35" y="113" type="curve" smooth="yes"/>
			<point x="-35" y="45"/>
			<point x="-11" y="0"/>
			<point x="35" y="0" type="curve" smooth="yes"/>
			<point x="87" y="0"/>
			<point x="158" y="59"/>
			<point x="216" y="138" type="curve"/>
			<point x="222" y="137"/>
			<point x="227" y="137"/>
			<point x="233" y="137" type="curve" smooth="yes"/>
			<point x="284" y="137"/>
			<point x="352" y="197"/>
			<point x="390" y="280" type="curve"/>
			<point x="390" y="282"/>
			<point x="389" y="283"/>
			<point x="387" y="282" type="curve"/>
			<point x="350" y="201"/>
			<point x="282" y="141"/>
			<point x="234" y="141" type="curve" smooth="yes"/>
			<point x="228" y="141"/>
			<point x="224" y="141"/>
			<point x="219" y="142" type="curve"/>
			<point x="268" y="218"/>
			<point x="317" y="317"/>
		</contour>
		<contour>
			<point x="206" y="146" type="curve"/>
			<point x="159" y="164"/>
			<point x="147" y="228"/>
			<point x="155" y="289" type="curve" smooth="yes"/>
			<point x="167" y="387"/>
			<point x="230" y="472"/>
			<point x="273" y="472" type="curve" smooth="yes"/>
			<point x="293" y="472"/>
			<point x="304" y="450"/>
			<point x="304" y="415" type="curve" smooth="yes"/>
			<point x="304" y="316"/>
			<point x="251" y="215"/>
		</contour>
	</outline>
</glyph>
<glyph name="p" format="2">
	<advance width="363"/>
	<unicode hex="0070"/>
	<outline>
		<contour>
			<point x="-318" y="-396" type="line"/>
			<point x="-300" y="-396" type="line"/>
			<point x="55" y="369" type="line"/>
			<point x="117" y="486"/>
			<point x="200" y="557"/>
			<point x="256" y="557" type="curve" smooth="yes"/>
			<point x="290" y="557"/>
			<point x="306" y="525"/>
			<point x="306" y="472" type="curve" smooth="yes"/>
			<point x="306" y="408"/>
			<point x="287" y="334"/>
			<point x="262" y="276" type="curve" smooth="yes"/>
			<point x="197" y="127"/>
			<point x="89" y="6"/>
			<point x="21" y="6" type="curve" smooth="yes"/>
			<point x="-21" y="6"/>
			<point x="-37" y="31"/>
			<point x="-37" y="63" type="curve" smooth="yes"/>
			<point x="-37" y="104"/>
			<point x="-13" y="154"/>
			<point x="16" y="182" type="curve"/>
			<point x="16" y="183"/>
			<point x="15" y="184"/>
			<point x="15" y="185" type="curve"/>
			<point x="-15" y="157"/>
			<point x="-45" y="108"/>
			<point x="-45" y="65" type="curve" smooth="yes"/>
			<point x="-45" y="29"/>
			<point x="-24" y="1"/>
			<point x="21" y="1" type="curve" smooth="yes"/>
			<point x="98" y="1"/>
			<point x="216" y="119"/>
			<point x="278" y="271" type="curve" smooth="yes"/>
			<point x="301" y="328"/>
			<point x="322" y="394"/>
			<point x="322" y="456" type="curve" smooth="yes"/>
			<point x="322" y="521"/>
			<point x="297" y="563"/>
			<point x="258" y="563" type="curve" smooth="yes"/>
			<point x="208" y="563"/>
			<point x="131" y="501"/>
			<point x="77" y="417" type="curve"/>
			<point x="183" y="644" type="line"/>
			<point x="170" y="644" type="line"/>
			<point x="0" y="282" type="line"/>
		</contour>
	</outline>
</glyph>
<glyph name="q" format="2">
	<advance width="436"/>
	<unicode hex="0071"/>
	<outline>
		<contour>
			<point x="266" y="563" type="curve" smooth="yes"/>
			<point x="178" y="563"/>
			<point x="61" y="424"/>
			<point x="0" y="282" type="curve" smooth="yes"/>
			<point x="-27" y="218"/>
			<point x="-41" y="158"/>
			<point x="-41" y="104" type="curve" smooth="yes"/>
			<point x="-41" y="40"/>
			<point x="-18" y="0"/>
			<point x="21" y="0" type="curve" smooth="yes"/>
			<point x="96" y="0"/>
			<point x="171" y="98"/>
			<point x="217" y="191" type="curve"/>
			<point x="219" y="191" type="line"/>
			<point x="55" y="-151" type="line"/>
			<point x="52" y="-158"/>
			<point x="47" y="-162"/>
			<point x="40" y="-164" type="curve"/>
			<point x="21" y="-169"/>
			<point x="2" y="-172"/>
			<point x="-16" y="-172" type="curve"/>
			<point x="-14" y="-176" type="line"/>
			<point x="3" y="-176"/>
			<point x="20" y="-174"/>
			<point x="37" y="-170" type="curve"/>
			<point x="44" y="-168"/>
			<point x="45" y="-171"/>
			<point x="42" y="-177" type="curve"/>
			<point x="-60" y="-396" type="line"/>
			<point x="-42" y="-396" type="line"/>
			<point x="63" y="-170" type="line"/>
			<point x="66" y="-164"/>
			<point x="71" y="-159"/>
			<point x="78" y="-156" type="curve" smooth="yes"/>
			<point x="217" y="-98"/>
			<point x="359" y="61"/>
			<point x="439" y="280" type="curve"/>
			<point x="439" y="283"/>
			<point x="438" y="283"/>
			<point x="436" y="282" type="curve"/>
			<point x="360" y="75"/>
			<point x="218" y="-88"/>
			<point x="81" y="-149" type="curve" smooth="yes"/>
			<point x="74" y="-152"/>
			<point x="73" y="-149"/>
			<point x="76" y="-143" type="curve"/>
			<point x="404" y="556" type="line"/>
			<point x="387" y="556" type="line"/>
			<point x="239" y="242" type="line" smooth="yes"/>
			<point x="187" y="129"/>
			<point x="103" y="6"/>
			<point x="23" y="6" type="curve" smooth="yes"/>
			<point x="-11" y="6"/>
			<point x="-27" y="38"/>
			<point x="-27" y="91" type="curve" smooth="yes"/>
			<point x="-27" y="146"/>
			<point x="-10" y="211"/>
			<point x="16" y="274" type="curve" smooth="yes"/>
			<point x="77" y="420"/>
			<point x="190" y="558"/>
			<point x="268" y="558" type="curve" smooth="yes"/>
			<point x="300" y="558"/>
			<point x="319" y="536"/>
			<point x="319" y="500" type="curve" smooth="yes"/>
			<point x="319" y="460"/>
			<point x="295" y="410"/>
			<point x="266" y="382" type="curve"/>
			<point x="264" y="380"/>
			<point x="266" y="378"/>
			<point x="267" y="379" type="curve"/>
			<point x="297" y="407"/>
			<point x="327" y="456"/>
			<point x="327" y="499" type="curve" smooth="yes"/>
			<point x="327" y="538"/>
			<point x="303" y="563"/>
		</contour>
	</outline>
</glyph>
<glyph name="r" format="2">
	<advance width="296"/>
	<unicode hex="0072"/>
	<outline>
		<contour>
			<point x="222" y="516" type="curve" smooth="yes"/>
			<point x="222" y="450"/>
			<point x="180" y="388"/>
			<point x="133" y="312" type="curve" smooth="yes"/>
			<point x="88" y="240"/>
			<point x="45" y="156"/>
			<point x="45" y="80" type="curve" smooth="yes"/>
			<point x="45" y="36"/>
			<point x="68" y="0"/>
			<point x="97" y="0" type="curve" smooth="yes"/>
			<point x="163" y="0"/>
			<point x="235" y="112"/>
			<point x="299" y="280" type="curve"/>
			<point x="299" y="282"/>
			<point x="299" y="283"/>
			<point x="296" y="282" type="curve"/>
			<point x="234" y="120"/>
			<point x="161" y="4"/>
			<point x="97" y="4" type="curve" smooth="yes"/>
			<point x="71" y="4"/>
			<point x="53" y="32"/>
			<point x="53" y="71" type="curve" smooth="yes"/>
			<point x="53" y="143"/>
			<point x="102" y="226"/>
			<point x="149" y="301" type="curve" smooth="yes"/>
			<point x="195" y="374"/>
			<point x="230" y="435"/>
			<point x="230" y="505" type="curve" smooth="yes"/>
			<point x="230" y="590"/>
			<point x="123" y="633"/>
			<point x="123" y="728" type="curve" smooth="yes"/>
			<point x="123" y="743"/>
			<point x="129" y="793"/>
			<point x="151" y="793" type="curve" smooth="yes"/>
			<point x="162" y="793"/>
			<point x="170" y="776"/>
			<point x="170" y="744" type="curve" smooth="yes"/>
			<point x="170" y="656"/>
			<point x="34" y="363"/>
			<point x="0" y="282" type="curve"/>
			<point x="0" y="280"/>
			<point x="1" y="279"/>
			<point x="3" y="280" type="curve"/>
			<point x="33" y="350"/>
			<point x="174" y="658"/>
			<point x="174" y="741" type="curve" smooth="yes"/>
			<point x="174" y="780"/>
			<point x="161" y="798"/>
			<point x="149" y="798" type="curve" smooth="yes"/>
			<point x="118" y="798"/>
			<point x="112" y="761"/>
			<point x="112" y="743" type="curve" smooth="yes"/>
			<point x="112" y="643"/>
			<point x="222" y="583"/>
		</contour>
	</outline>
</glyph>
<glyph name="t" format="2">
	<advance width="183"/>
	<unicode hex="0074"/>
	<outline>
		<contour>
			<point x="-47" y="152" type="curve" smooth="yes"/>
			<point x="166" y="611" type="line" smooth="yes"/>
			<point x="169" y="618"/>
			<point x="174" y="621"/>
			<point x="182" y="621" type="curve" smooth="yes"/>
			<point x="333" y="621" type="line"/>
			<point x="333" y="625" type="line"/>
			<point x="184" y="625" type="line" smooth="yes"/>
			<point x="176" y="625"/>
			<point x="175" y="628"/>
			<point x="178" y="635" type="curve" smooth="yes"/>
			<point x="253" y="794" type="line"/>
			<point x="232" y="794" type="line"/>
			<point x="159" y="635" type="line" smooth="yes"/>
			<point x="156" y="628"/>
			<point x="151" y="625"/>
			<point x="143" y="625" type="curve" smooth="yes"/>
			<point x="5" y="625" type="line"/>
			<point x="5" y="621" type="line"/>
			<point x="141" y="621" type="line" smooth="yes"/>
			<point x="149" y="621"/>
			<point x="150" y="618"/>
			<point x="147" y="611" type="curve" smooth="yes"/>
			<point x="-56" y="161" type="line" smooth="yes"/>
			<point x="-71" y="129"/>
			<point x="-79" y="95"/>
			<point x="-79" y="67" type="curve" smooth="yes"/>
			<point x="-79" y="21"/>
			<point x="-52" y="0"/>
			<point x="-16" y="0" type="curve" smooth="yes"/>
			<point x="50" y="0"/>
			<point x="122" y="112"/>
			<point x="186" y="280" type="curve"/>
			<point x="186" y="282"/>
			<point x="186" y="283"/>
			<point x="183" y="282" type="curve"/>
			<point x="121" y="120"/>
			<point x="48" y="4"/>
			<point x="-16" y="4" type="curve" smooth="yes"/>
			<point x="-50" y="4"/>
			<point x="-70" y="27"/>
			<point x="-70" y="64" type="curve" smooth="yes"/>
			<point x="-70" y="90"/>
			<point x="-62" y="119"/>
		</contour>
	</outline>
</glyph>
<glyph name="u" format="2">
	<advance width="382"/>
	<unicode hex="0075"/>
	<anchor x="255" y="638" name="top"/>
	<outline>
		<contour>
			<point x="170" y="178" type="curve" smooth="yes"/>
			<point x="349" y="550" type="line"/>
			<point x="328" y="550" type="line"/>
			<point x="193" y="261" type="line" smooth="yes"/>
			<point x="135" y="137"/>
			<point x="54" y="4"/>
			<point x="-22" y="4" type="curve" smooth="yes"/>
			<point x="-57" y="4"/>
			<point x="-69" y="28"/>
			<point x="-69" y="59" type="curve" smooth="yes"/>
			<point x="-69" y="90"/>
			<point x="-58" y="127"/>
			<point x="-46" y="152" type="curve" smooth="yes"/>
			<point x="144" y="550" type="line"/>
			<point x="123" y="550" type="line"/>
			<point x="0" y="282" type="line"/>
			<point x="-55" y="161" type="line" smooth="yes"/>
			<point x="-67" y="134"/>
			<point x="-78" y="97"/>
			<point x="-78" y="65" type="curve" smooth="yes"/>
			<point x="-78" y="29"/>
			<point x="-64" y="0"/>
			<point x="-22" y="0" type="curve" smooth="yes"/>
			<point x="45" y="0"/>
			<point x="103" y="83"/>
			<point x="161" y="191" type="curve"/>
			<point x="165" y="191" type="line"/>
			<point x="139" y="138"/>
			<point x="130" y="97"/>
			<point x="130" y="67" type="curve" smooth="yes"/>
			<point x="130" y="21"/>
			<point x="153" y="0"/>
			<point x="183" y="0" type="curve" smooth="yes"/>
			<point x="249" y="0"/>
			<point x="321" y="112"/>
			<point x="385" y="280" type="curve"/>
			<point x="385" y="282"/>
			<point x="385" y="283"/>
			<point x="382" y="282" type="curve"/>
			<point x="320" y="120"/>
			<point x="247" y="4"/>
			<point x="183" y="4" type="curve" smooth="yes"/>
			<point x="155" y="4"/>
			<point x="139" y="27"/>
			<point x="139" y="64" type="curve" smooth="yes"/>
			<point x="139" y="94"/>
			<point x="148" y="133"/>
		</contour>
	</outline>
</glyph>
<glyph name="v" format="2">
	<advance width="496"/>
	<unicode hex="0076"/>
	<outline>
		<contour>
			<point x="420" y="392" type="curve" smooth="yes"/>
			<point x="389" y="321"/>
			<point x="351" y="243"/>
			<point x="319" y="190" type="curve"/>
			<point x="291" y="213"/>
			<point x="285" y="258"/>
			<point x="289" y="301" type="curve" smooth="yes"/>
			<point x="300" y="412"/>
			<point x="388" y="558"/>
			<point x="435" y="558" type="curve" smooth="yes"/>
			<point x="450" y="558"/>
			<point x="456" y="545"/>
			<point x="456" y="524" type="curve" smooth="yes"/>
			<point x="456" y="492"/>
			<point x="441" y="442"/>
		</contour>
		<contour>
			<point x="365" y="167" type="curve" smooth="yes"/>
			<point x="420" y="167"/>
			<point x="467" y="210"/>
			<point x="499" y="280" type="curve" smooth="yes"/>
			<point x="500" y="282"/>
			<point x="498" y="283"/>
			<point x="496" y="282" type="curve"/>
			<point x="466" y="215"/>
			<point x="421" y="171"/>
			<point x="368" y="171" type="curve" smooth="yes"/>
			<point x="353" y="171"/>
			<point x="341" y="176"/>
			<point x="332" y="182" type="curve"/>
			<point x="374" y="245"/>
			<point x="416" y="334"/>
			<point x="444" y="407" type="curve" smooth="yes"/>
			<point x="457" y="440"/>
			<point x="465" y="477"/>
			<point x="465" y="507" type="curve" smooth="yes"/>
			<point x="465" y="539"/>
			<point x="456" y="563"/>
			<point x="435" y="563" type="curve" smooth="yes"/>
			<point x="383" y="563"/>
			<point x="294" y="414"/>
			<point x="283" y="305" type="curve" smooth="yes"/>
			<point x="278" y="258"/>
			<point x="285" y="209"/>
			<point x="316" y="185" type="curve"/>
			<point x="246" y="72"/>
			<point x="176" y="4"/>
			<point x="122" y="4" type="curve" smooth="yes"/>
			<point x="83" y="4"/>
			<point x="62" y="32"/>
			<point x="62" y="71" type="curve" smooth="yes"/>
			<point x="62" y="143"/>
			<point x="111" y="213"/>
			<point x="158" y="285" type="curve" smooth="yes"/>
			<point x="205" y="357"/>
			<point x="251" y="427"/>
			<point x="251" y="494" type="curve" smooth="yes"/>
			<point x="251" y="536"/>
			<point x="227" y="563"/>
			<point x="193" y="563" type="curve" smooth="yes"/>
			<point x="129" y="563"/>
			<point x="62" y="450"/>
			<point x="0" y="282" type="curve"/>
			<point x="0" y="280"/>
			<point x="0" y="279"/>
			<point x="3" y="280" type="curve"/>
			<point x="63" y="442"/>
			<point x="131" y="558"/>
			<point x="193" y="558" type="curve" smooth="yes"/>
			<point x="221" y="558"/>
			<point x="242" y="538"/>
			<point x="242" y="506" type="curve" smooth="yes"/>
			<point x="242" y="442"/>
			<point x="190" y="372"/>
			<point x="142" y="296" type="curve" smooth="yes"/>
			<point x="98" y="227"/>
			<point x="54" y="156"/>
			<point x="54" y="80" type="curve" smooth="yes"/>
			<point x="54" y="36"/>
			<point x="80" y="0"/>
			<point x="123" y="0" type="curve" smooth="yes"/>
			<point x="180" y="0"/>
			<point x="260" y="75"/>
			<point x="329" y="178" type="curve"/>
			<point x="338" y="172"/>
			<point x="351" y="167"/>
		</contour>
	</outline>
</glyph>
<glyph name="w" format="2">
	<advance width="542"/>
	<unicode hex="0077"/>
	<outline>
		<contour>
			<point x="169" y="4" type="curve" smooth="yes"/>
			<point x="147" y="4"/>
			<point x="134" y="26"/>
			<point x="134" y="60" type="curve" smooth="yes"/>
			<point x="134" y="85"/>
			<point x="141" y="118"/>
			<point x="157" y="152" type="curve" smooth="yes"/>
			<point x="348" y="550" type="line"/>
			<point x="327" y="550" type="line"/>
			<point x="193" y="261" type="line" smooth="yes"/>
			<point x="135" y="137"/>
			<point x="54" y="4"/>
			<point x="-22" y="4" type="curve" smooth="yes"/>
			<point x="-57" y="4"/>
			<point x="-69" y="28"/>
			<point x="-69" y="59" type="curve" smooth="yes"/>
			<point x="-69" y="90"/>
			<point x="-58" y="127"/>
			<point x="-46" y="152" type="curve" smooth="yes"/>
			<point x="144" y="550" type="line"/>
			<point x="123" y="550" type="line"/>
			<point x="0" y="282" type="line"/>
			<point x="-55" y="161" type="line" smooth="yes"/>
			<point x="-67" y="134"/>
			<point x="-78" y="97"/>
			<point x="-78" y="65" type="curve" smooth="yes"/>
			<point x="-78" y="29"/>
			<point x="-64" y="0"/>
			<point x="-22" y="0" type="curve" smooth="yes"/>
			<point x="45" y="0"/>
			<point x="103" y="83"/>
			<point x="161" y="191" type="curve"/>
			<point x="165" y="191" type="line"/>
			<point x="150" y="161" type="line" smooth="yes"/>
			<point x="133" y="126"/>
			<point x="126" y="94"/>
			<point x="126" y="68" type="curve" smooth="yes"/>
			<point x="126" y="27"/>
			<point x="144" y="0"/>
			<point x="169" y="0" type="curve" smooth="yes"/>
			<point x="226" y="0"/>
			<point x="306" y="75"/>
			<point x="375" y="178" type="curve"/>
			<point x="384" y="172"/>
			<point x="397" y="167"/>
			<point x="411" y="167" type="curve" smooth="yes"/>
			<point x="466" y="167"/>
			<point x="513" y="210"/>
			<point x="545" y="280" type="curve" smooth="yes"/>
			<point x="546" y="282"/>
			<point x="544" y="283"/>
			<point x="542" y="282" type="curve"/>
			<point x="512" y="215"/>
			<point x="467" y="171"/>
			<point x="414" y="171" type="curve" smooth="yes"/>
			<point x="399" y="171"/>
			<point x="387" y="176"/>
			<point x="378" y="182" type="curve"/>
			<point x="420" y="245"/>
			<point x="462" y="334"/>
			<point x="490" y="407" type="curve" smooth="yes"/>
			<point x="503" y="440"/>
			<point x="511" y="477"/>
			<point x="511" y="507" type="curve" smooth="yes"/>
			<point x="511" y="539"/>
			<point x="502" y="563"/>
			<point x="481" y="563" type="curve" smooth="yes"/>
			<point x="429" y="563"/>
			<point x="340" y="414"/>
			<point x="329" y="305" type="curve" smooth="yes"/>
			<point x="324" y="258"/>
			<point x="331" y="209"/>
			<point x="362" y="185" type="curve"/>
			<point x="292" y="72"/>
			<point x="222" y="4"/>
		</contour>
		<contour>
			<point x="466" y="392" type="curve" smooth="yes"/>
			<point x="435" y="321"/>
			<point x="397" y="243"/>
			<point x="365" y="190" type="curve"/>
			<point x="337" y="213"/>
			<point x="331" y="258"/>
			<point x="335" y="301" type="curve" smooth="yes"/>
			<point x="346" y="412"/>
			<point x="434" y="558"/>
			<point x="481" y="558" type="curve" smooth="yes"/>
			<point x="496" y="558"/>
			<point x="502" y="545"/>
			<point x="502" y="524" type="curve" smooth="yes"/>
			<point x="502" y="492"/>
			<point x="487" y="442"/>
		</contour>
	</outline>
</glyph>
<glyph name="x" format="2">
	<advance width="509"/>
	<unicode hex="0078"/>
	<outline>
		<contour>
			<point x="294" y="0" type="curve" smooth="yes"/>
			<point x="374" y="0"/>
			<point x="447" y="112"/>
			<point x="512" y="280" type="curve"/>
			<point x="512" y="282"/>
			<point x="512" y="283"/>
			<point x="509" y="282" type="curve"/>
			<point x="446" y="120"/>
			<point x="372" y="4"/>
			<point x="293" y="4" type="curve" smooth="yes"/>
			<point x="247" y="4"/>
			<point x="220" y="37"/>
			<point x="220" y="93" type="curve" smooth="yes"/>
			<point x="220" y="171"/>
			<point x="248" y="242"/>
			<point x="267" y="313" type="curve"/>
			<point x="269" y="322" type="line"/>
			<point x="330" y="456"/>
			<point x="416" y="558"/>
			<point x="474" y="558" type="curve" smooth="yes"/>
			<point x="513" y="558"/>
			<point x="526" y="533"/>
			<point x="526" y="502" type="curve" smooth="yes"/>
			<point x="526" y="461"/>
			<point x="504" y="410"/>
			<point x="475" y="382" type="curve"/>
			<point x="474" y="381"/>
			<point x="475" y="378"/>
			<point x="476" y="379" type="curve"/>
			<point x="507" y="408"/>
			<point x="536" y="456"/>
			<point x="536" y="500" type="curve" smooth="yes"/>
			<point x="536" y="535"/>
			<point x="517" y="563"/>
			<point x="474" y="563" type="curve" smooth="yes"/>
			<point x="415" y="563"/>
			<point x="337" y="472"/>
			<point x="277" y="354" type="curve"/>
			<point x="287" y="397"/>
			<point x="293" y="442"/>
			<point x="293" y="473" type="curve" smooth="yes"/>
			<point x="293" y="532"/>
			<point x="271" y="563"/>
			<point x="228" y="563" type="curve" smooth="yes"/>
			<point x="152" y="563"/>
			<point x="75" y="466"/>
			<point x="0" y="282" type="curve"/>
			<point x="-1" y="279"/>
			<point x="1" y="279"/>
			<point x="3" y="280" type="curve"/>
			<point x="76" y="460"/>
			<point x="154" y="558"/>
			<point x="228" y="558" type="curve" smooth="yes"/>
			<point x="262" y="558"/>
			<point x="280" y="538"/>
			<point x="280" y="489" type="curve" smooth="yes"/>
			<point x="280" y="439"/>
			<point x="264" y="375"/>
			<point x="246" y="312" type="curve" smooth="yes"/>
			<point x="242" y="298"/>
			<point x="238" y="285"/>
			<point x="235" y="272" type="curve"/>
			<point x="176" y="124"/>
			<point x="79" y="5"/>
			<point x="21" y="5" type="curve" smooth="yes"/>
			<point x="-21" y="5"/>
			<point x="-37" y="30"/>
			<point x="-37" y="62" type="curve" smooth="yes"/>
			<point x="-37" y="102"/>
			<point x="-13" y="154"/>
			<point x="16" y="181" type="curve"/>
			<point x="17" y="182"/>
			<point x="16" y="185"/>
			<point x="15" y="184" type="curve"/>
			<point x="-16" y="156"/>
			<point x="-47" y="107"/>
			<point x="-47" y="64" type="curve" smooth="yes"/>
			<point x="-47" y="28"/>
			<point x="-25" y="0"/>
			<point x="21" y="0" type="curve" smooth="yes"/>
			<point x="79" y="0"/>
			<point x="166" y="104"/>
			<point x="225" y="232" type="curve"/>
			<point x="215" y="193"/>
			<point x="207" y="154"/>
			<point x="207" y="113" type="curve" smooth="yes"/>
			<point x="207" y="41"/>
			<point x="239" y="0"/>
		</contour>
	</outline>
</glyph>
<glyph name="z" format="2">
	<advance width="387"/>
	<unicode hex="007A"/>
	<anchor x="306" y="638" name="top"/>
	<outline>
		<contour>
			<point x="185" y="338" type="curve" smooth="yes"/>
			<point x="327" y="508" type="line"/>
			<point x="323" y="509" type="line"/>
			<point x="180" y="338" type="line" smooth="yes"/>
			<point x="173" y="330"/>
			<point x="164" y="326"/>
			<point x="154" y="326" type="curve" smooth="yes"/>
			<point x="63" y="328" type="line"/>
			<point x="60" y="320" type="line"/>
			<point x="150" y="322" type="line" smooth="yes"/>
			<point x="160" y="322"/>
			<point x="163" y="317"/>
			<point x="156" y="309" type="curve" smooth="yes"/>
			<point x="-33" y="85" type="line"/>
			<point x="-62" y="59"/>
			<point x="-91" y="25"/>
			<point x="-112" y="-2" type="curve"/>
			<point x="-121" y="-13" type="line"/>
			<point x="-115" y="-13" type="line"/>
			<point x="-23" y="89" type="line"/>
			<point x="-6" y="101"/>
			<point x="11" y="110"/>
			<point x="26" y="110" type="curve" smooth="yes"/>
			<point x="73" y="110"/>
			<point x="64" y="0"/>
			<point x="156" y="0" type="curve" smooth="yes"/>
			<point x="239" y="0"/>
			<point x="346" y="141"/>
			<point x="390" y="280" type="curve"/>
			<point x="390" y="282"/>
			<point x="389" y="283"/>
			<point x="387" y="282" type="curve"/>
			<point x="345" y="150"/>
			<point x="241" y="11"/>
			<point x="163" y="11" type="curve" smooth="yes"/>
			<point x="78" y="11"/>
			<point x="109" y="116"/>
			<point x="33" y="116" type="curve" smooth="yes"/>
			<point x="18" y="116"/>
			<point x="3" y="109"/>
			<point x="-12" y="101" type="curve"/>
			<point x="160" y="309" type="line" smooth="yes"/>
			<point x="167" y="318"/>
			<point x="176" y="322"/>
			<point x="186" y="322" type="curve" smooth="yes"/>
			<point x="277" y="320" type="line"/>
			<point x="280" y="328" type="line"/>
			<point x="189" y="326" type="line" smooth="yes"/>
			<point x="179" y="326"/>
			<point x="178" y="330"/>
		</contour>
		<contour>
			<point x="444" y="590" type="curve" smooth="yes"/>
			<point x="444" y="601"/>
			<point x="436" y="608"/>
			<point x="428" y="608" type="curve" smooth="yes"/>
			<point x="421" y="608"/>
			<point x="409" y="604"/>
			<point x="395" y="589" type="curve" smooth="yes"/>
			<point x="326" y="513" type="line"/>
			<point x="333" y="515" type="line"/>
			<point x="397" y="586" type="line" smooth="yes"/>
			<point x="409" y="600"/>
			<point x="420" y="605"/>
			<point x="427" y="605" type="curve" smooth="yes"/>
			<point x="432" y="605"/>
			<point x="435" y="602"/>
			<point x="435" y="597" type="curve" smooth="yes"/>
			<point x="435" y="560"/>
			<point x="361" y="511"/>
			<point x="262" y="511" type="curve" smooth="yes"/>
			<point x="187" y="511"/>
			<point x="132" y="540"/>
			<point x="132" y="578" type="curve" smooth="yes"/>
			<point x="132" y="580"/>
			<point x="132" y="582"/>
			<point x="133" y="585" type="curve"/>
			<point x="135" y="592"/>
			<point x="136" y="598"/>
			<point x="136" y="602" type="curve" smooth="yes"/>
			<point x="136" y="610"/>
			<point x="133" y="614"/>
			<point x="130" y="614" type="curve" smooth="yes"/>
			<point x="127" y="614"/>
			<point x="123" y="609"/>
			<point x="123" y="599" type="curve" smooth="yes"/>
			<point x="123" y="594"/>
			<point x="124" y="587"/>
			<point x="127" y="579" type="curve"/>
			<point x="106" y="524"/>
			<point x="24" y="341"/>
			<point x="0" y="282" type="curve"/>
			<point x="-1" y="280"/>
			<point x="2" y="279"/>
			<point x="3" y="280" type="curve"/>
			<point x="26" y="338"/>
			<point x="106" y="515"/>
			<point x="129" y="572" type="curve"/>
			<point x="137" y="528"/>
			<point x="199" y="497"/>
			<point x="274" y="497" type="curve" smooth="yes"/>
			<point x="365" y="497"/>
			<point x="444" y="550"/>
		</contour>
	</outline>
</glyph>
<glyph name="braceleft" format="2">
	<advance width="465"/>
	<unicode hex="007B"/>
	<outline>
		<contour>
			<point x="142" y="-315" type="curve"/>
			<point x="146" y="-309" type="line"/>
			<point x="117" y="-292"/>
			<point x="98" y="-249"/>
			<point x="98" y="-184" type="curve" smooth="yes"/>
			<point x="98" y="24"/>
			<point x="273" y="132"/>
			<point x="273" y="282" type="curve" smooth="yes"/>
			<point x="273" y="305"/>
			<point x="265" y="323"/>
			<point x="253" y="336" type="curve"/>
			<point x="310" y="356"/>
			<point x="353" y="394"/>
			<point x="377" y="444" type="curve" smooth="yes"/>
			<point x="391" y="475"/>
			<point x="398" y="508"/>
			<point x="406" y="545" type="curve" smooth="yes"/>
			<point x="418" y="603"/>
			<point x="432" y="668"/>
			<point x="479" y="741" type="curve" smooth="yes"/>
			<point x="521" y="808"/>
			<point x="598" y="860"/>
			<point x="676" y="860" type="curve" smooth="yes"/>
			<point x="688" y="860"/>
			<point x="701" y="858"/>
			<point x="712" y="854" type="curve"/>
			<point x="715" y="860" type="line"/>
			<point x="703" y="864"/>
			<point x="690" y="866"/>
			<point x="676" y="866" type="curve" smooth="yes"/>
			<point x="598" y="866"/>
			<point x="503" y="809"/>
			<point x="461" y="741" type="curve" smooth="yes"/>
			<point x="416" y="669"/>
			<point x="402" y="605"/>
			<point x="389" y="547" type="curve" smooth="yes"/>
			<point x="381" y="510"/>
			<point x="373" y="475"/>
			<point x="358" y="443" type="curve" smooth="yes"/>
			<point x="334" y="392"/>
			<point x="301" y="358"/>
			<point x="250" y="340" type="curve"/>
			<point x="223" y="366"/>
			<point x="180" y="371"/>
			<point x="160" y="371" type="curve" smooth="yes"/>
			<point x="122" y="371"/>
			<point x="97" y="355"/>
			<point x="96" y="341" type="curve"/>
			<point x="96" y="329"/>
			<point x="114" y="319"/>
			<point x="149" y="319" type="curve" smooth="yes"/>
			<point x="184" y="319"/>
			<point x="217" y="324"/>
			<point x="246" y="333" type="curve"/>
			<point x="254" y="322"/>
			<point x="259" y="307"/>
			<point x="259" y="286" type="curve" smooth="yes"/>
			<point x="259" y="145"/>
			<point x="84" y="36"/>
			<point x="84" y="-175" type="curve" smooth="yes"/>
			<point x="84" y="-243"/>
			<point x="112" y="-297"/>
		</contour>
		<contour>
			<point x="150" y="325" type="curve" smooth="yes"/>
			<point x="126" y="325"/>
			<point x="116" y="333"/>
			<point x="116" y="341" type="curve"/>
			<point x="117" y="353"/>
			<point x="133" y="365"/>
			<point x="161" y="365" type="curve" smooth="yes"/>
			<point x="182" y="365"/>
			<point x="221" y="363"/>
			<point x="243" y="337" type="curve"/>
			<point x="217" y="329"/>
			<point x="186" y="325"/>
		</contour>
	</outline>
</glyph>
<glyph name="bar" format="2">
	<advance width="395"/>
	<unicode hex="007C"/>
	<outline>
		<contour>
			<point x="9" y="-121" type="curve"/>
			<point x="20" y="-121" type="line"/>
			<point x="20" y="-121"/>
			<point x="110" y="110"/>
			<point x="202" y="338" type="curve" smooth="yes"/>
			<point x="291" y="558"/>
			<point x="382" y="775"/>
			<point x="382" y="775" type="curve"/>
			<point x="371" y="775" type="line"/>
			<point x="371" y="775"/>
			<point x="287" y="559"/>
			<point x="198" y="339" type="curve" smooth="yes"/>
			<point x="106" y="112"/>
			<point x="9" y="-121"/>
		</contour>
	</outline>
</glyph>
<glyph name="asciitilde" format="2">
	<advance width="656"/>
	<unicode hex="007E"/>
	<outline>
		<contour>
			<point x="98" y="266" type="curve"/>
			<point x="101" y="266" type="line"/>
			<point x="136" y="322"/>
			<point x="178" y="349"/>
			<point x="225" y="349" type="curve" smooth="yes"/>
			<point x="309" y="349"/>
			<point x="392" y="269"/>
			<point x="460" y="269" type="curve" smooth="yes"/>
			<point x="511" y="269"/>
			<point x="551" y="304"/>
			<point x="568" y="348" type="curve"/>
			<point x="565" y="348" type="line"/>
			<point x="547" y="307"/>
			<point x="514" y="286"/>
			<point x="474" y="286" type="curve" smooth="yes"/>
			<point x="406" y="286"/>
			<point x="320" y="366"/>
			<point x="246" y="366" type="curve" smooth="yes"/>
			<point x="188" y="366"/>
			<point x="133" y="330"/>
		</contour>
	</outline>
</glyph>
